<svg width="1218" height="241" viewBox="0 0 1218 241" fill="none" xmlns="http://www.w3.org/2000/svg">
<path d="M54.0868 186.581V194.355H45.0723V186.581H54.0868ZM54.0868 178.806V186.581H45.0723V178.806H54.0868ZM54.0868 171.032V178.806H45.0723V171.032H54.0868ZM54.0868 163.258V171.032H45.0723V163.258H54.0868ZM54.0868 155.484V163.258H45.0723V155.484H54.0868ZM54.0868 147.71V155.484H45.0723V147.71H54.0868ZM54.0868 139.935V147.71H45.0723V139.935H54.0868ZM54.0868 132.161V139.935H45.0723V132.161H54.0868ZM54.0868 124.387V132.161H45.0723V124.387H54.0868ZM54.0868 116.613V124.387H45.0723V116.613H54.0868ZM54.0868 108.839V116.613H45.0723V108.839H54.0868ZM54.0868 101.065V108.839H45.0723V101.065H54.0868ZM54.0868 93.2903V101.065H45.0723V93.2903H54.0868ZM54.0868 85.5161V93.2903H45.0723V85.5161H54.0868ZM54.0868 77.742V85.5161H45.0723V77.742H54.0868ZM63.1012 77.742V85.5161H54.0868V77.742H63.1012ZM63.1012 85.5161V93.2903H54.0868V85.5161H63.1012ZM63.1012 93.2903V101.065H54.0868V93.2903H63.1012ZM63.1012 101.065V108.839H54.0868V101.065H63.1012ZM63.1012 108.839V116.613H54.0868V108.839H63.1012ZM63.1012 116.613V124.387H54.0868V116.613H63.1012ZM63.1012 124.387V132.161H54.0868V124.387H63.1012ZM72.1157 132.161V139.935H63.1012V132.161H72.1157ZM72.1157 139.935V147.71H63.1012V139.935H72.1157ZM72.1157 147.71V155.484H63.1012V147.71H72.1157ZM72.1157 155.484V163.258H63.1012V155.484H72.1157ZM72.1157 163.258V171.032H63.1012V163.258H72.1157ZM72.1157 171.032V178.806H63.1012V171.032H72.1157ZM72.1157 178.806V186.581H63.1012V178.806H72.1157ZM72.1157 186.581V194.355H63.1012V186.581H72.1157ZM81.1302 186.581V194.355H72.1157V186.581H81.1302ZM90.1446 186.581V194.355H81.1302V186.581H90.1446ZM90.1446 178.806V186.581H81.1302V178.806H90.1446ZM90.1446 171.032V178.806H81.1302V171.032H90.1446ZM90.1446 163.258V171.032H81.1302V163.258H90.1446ZM90.1446 155.484V163.258H81.1302V155.484H90.1446ZM90.1446 147.71V155.484H81.1302V147.71H90.1446ZM90.1446 139.935V147.71H81.1302V139.935H90.1446ZM90.1446 132.161V139.935H81.1302V132.161H90.1446ZM81.1302 132.161V139.935H72.1157V132.161H81.1302ZM81.1302 124.387V132.161H72.1157V124.387H81.1302ZM81.1302 139.935V147.71H72.1157V139.935H81.1302ZM81.1302 147.71V155.484H72.1157V147.71H81.1302ZM81.1302 155.484V163.258H72.1157V155.484H81.1302ZM81.1302 163.258V171.032H72.1157V163.258H81.1302ZM81.1302 171.032V178.806H72.1157V171.032H81.1302ZM81.1302 178.806V186.581H72.1157V178.806H81.1302ZM63.1012 186.581V194.355H54.0868V186.581H63.1012ZM63.1012 178.806V186.581H54.0868V178.806H63.1012ZM63.1012 171.032V178.806H54.0868V171.032H63.1012ZM63.1012 163.258V171.032H54.0868V163.258H63.1012ZM63.1012 155.484V163.258H54.0868V155.484H63.1012ZM63.1012 147.71V155.484H54.0868V147.71H63.1012ZM63.1012 139.935V147.71H54.0868V139.935H63.1012ZM63.1012 132.161V139.935H54.0868V132.161H63.1012ZM54.0868 0V7.77421H45.0723V0H54.0868ZM54.0868 7.77421V15.5484H45.0723V7.77421H54.0868ZM54.0868 15.5484V23.3226H45.0723V15.5484H54.0868ZM54.0868 23.3226V31.0968H45.0723V23.3226H54.0868ZM54.0868 31.0968V38.871H45.0723V31.0968H54.0868ZM54.0868 38.871V46.6452H45.0723V38.871H54.0868ZM54.0868 46.6452V54.4194H45.0723V46.6452H54.0868ZM54.0868 54.4194V62.1936H45.0723V54.4194H54.0868ZM54.0868 62.1936V69.9678H45.0723V62.1936H54.0868ZM54.0868 69.9678V77.742H45.0723V69.9678H54.0868ZM81.1302 0V7.77421H72.1157V0H81.1302ZM81.1302 7.77421V15.5484H72.1157V7.77421H81.1302ZM81.1302 15.5484V23.3226H72.1157V15.5484H81.1302ZM81.1302 23.3226V31.0968H72.1157V23.3226H81.1302ZM81.1302 31.0968V38.871H72.1157V31.0968H81.1302ZM81.1302 38.871V46.6452H72.1157V38.871H81.1302ZM81.1302 54.4194V62.1936H72.1157V54.4194H81.1302ZM81.1302 62.1936V69.9678H72.1157V62.1936H81.1302ZM81.1302 69.9678V77.742H72.1157V69.9678H81.1302ZM81.1302 77.742V85.5161H72.1157V77.742H81.1302ZM81.1302 85.5161V93.2903H72.1157V85.5161H81.1302ZM81.1302 93.2903V101.065H72.1157V93.2903H81.1302ZM81.1302 101.065V108.839H72.1157V101.065H81.1302ZM90.1446 108.839V116.613H81.1302V108.839H90.1446ZM90.1446 116.613V124.387H81.1302V116.613H90.1446ZM90.1446 124.387V132.161H81.1302V124.387H90.1446ZM90.1446 101.065V108.839H81.1302V101.065H90.1446ZM90.1446 93.2903V101.065H81.1302V93.2903H90.1446ZM90.1446 85.5161V93.2903H81.1302V85.5161H90.1446ZM90.1446 77.742V85.5161H81.1302V77.742H90.1446ZM90.1446 69.9678V77.742H81.1302V69.9678H90.1446ZM90.1446 62.1936V69.9678H81.1302V62.1936H90.1446ZM90.1446 54.4194V62.1936H81.1302V54.4194H90.1446ZM90.1446 46.6452V54.4194H81.1302V46.6452H90.1446ZM90.1446 38.871V46.6452H81.1302V38.871H90.1446ZM90.1446 31.0968V38.871H81.1302V31.0968H90.1446ZM81.1302 46.6452V54.4194H72.1157V46.6452H81.1302ZM90.1446 23.3226V31.0968H81.1302V23.3226H90.1446ZM90.1446 15.5484V23.3226H81.1302V15.5484H90.1446ZM90.1446 7.77421V15.5484H81.1302V7.77421H90.1446ZM90.1446 0V7.77421H81.1302V0H90.1446ZM72.1157 0V7.77421H63.1012V0H72.1157ZM63.1012 0V7.77421H54.0868V0H63.1012ZM63.1012 7.77421V15.5484H54.0868V7.77421H63.1012ZM72.1157 7.77421V15.5484H63.1012V7.77421H72.1157ZM72.1157 15.5484V23.3226H63.1012V15.5484H72.1157ZM72.1157 23.3226V31.0968H63.1012V23.3226H72.1157ZM72.1157 31.0968V38.871H63.1012V31.0968H72.1157ZM72.1157 38.871V46.6452H63.1012V38.871H72.1157ZM72.1157 46.6452V54.4194H63.1012V46.6452H72.1157ZM72.1157 54.4194V62.1936H63.1012V54.4194H72.1157ZM63.1012 62.1936V69.9678H54.0868V62.1936H63.1012ZM63.1012 69.9678V77.742H54.0868V69.9678H63.1012ZM63.1012 54.4194V62.1936H54.0868V54.4194H63.1012ZM63.1012 46.6452V54.4194H54.0868V46.6452H63.1012ZM63.1012 38.871V46.6452H54.0868V38.871H63.1012ZM63.1012 31.0968V38.871H54.0868V31.0968H63.1012ZM63.1012 23.3226V31.0968H54.0868V23.3226H63.1012ZM63.1012 15.5484V23.3226H54.0868V15.5484H63.1012ZM72.1157 62.1936V69.9678H63.1012V62.1936H72.1157ZM72.1157 69.9678V77.742H63.1012V69.9678H72.1157ZM72.1157 77.742V85.5161H63.1012V77.742H72.1157ZM72.1157 85.5161V93.2903H63.1012V85.5161H72.1157ZM72.1157 93.2903V101.065H63.1012V93.2903H72.1157ZM72.1157 101.065V108.839H63.1012V101.065H72.1157ZM72.1157 108.839V116.613H63.1012V108.839H72.1157ZM72.1157 116.613V124.387H63.1012V116.613H72.1157ZM72.1157 124.387V132.161H63.1012V124.387H72.1157ZM81.1302 116.613V124.387H72.1157V116.613H81.1302ZM81.1302 108.839V116.613H72.1157V108.839H81.1302ZM45.0723 0V7.77421H36.0578V0H45.0723ZM36.0578 0V7.77421H27.0434V0H36.0578ZM27.0434 0V7.77421H18.0289V0H27.0434ZM18.0289 0V7.77421H9.01446V0H18.0289ZM9.01446 0V7.77421H0V0H9.01446ZM9.01446 7.77421V15.5484H0V7.77421H9.01446ZM9.01446 15.5484V23.3226H0V15.5484H9.01446ZM18.0289 7.77421V15.5484H9.01446V7.77421H18.0289ZM27.0434 7.77421V15.5484H18.0289V7.77421H27.0434ZM36.0578 7.77421V15.5484H27.0434V7.77421H36.0578ZM45.0723 15.5484V23.3226H36.0578V15.5484H45.0723ZM45.0723 7.77421V15.5484H36.0578V7.77421H45.0723ZM36.0578 15.5484V23.3226H27.0434V15.5484H36.0578ZM27.0434 15.5484V23.3226H18.0289V15.5484H27.0434ZM18.0289 15.5484V23.3226H9.01446V15.5484H18.0289ZM99.1591 0V7.77421H90.1446V0H99.1591ZM108.174 0V7.77421H99.1591V0H108.174ZM117.188 0V7.77421H108.174V0H117.188ZM126.202 0V7.77421H117.188V0H126.202ZM135.217 0V7.77421H126.202V0H135.217ZM135.217 7.77421V15.5484H126.202V7.77421H135.217ZM126.202 7.77421V15.5484H117.188V7.77421H126.202ZM117.188 7.77421V15.5484H108.174V7.77421H117.188ZM108.174 7.77421V15.5484H99.1591V7.77421H108.174ZM99.1591 7.77421V15.5484H90.1446V7.77421H99.1591ZM99.1591 15.5484V23.3226H90.1446V15.5484H99.1591ZM108.174 15.5484V23.3226H99.1591V15.5484H108.174ZM117.188 15.5484V23.3226H108.174V15.5484H117.188ZM126.202 15.5484V23.3226H117.188V15.5484H126.202ZM135.217 15.5484V23.3226H126.202V15.5484H135.217ZM9.01446 23.3226V31.0968H0V23.3226H9.01446ZM9.01446 31.0968V38.871H0V31.0968H9.01446ZM18.0289 31.0968V38.871H9.01446V31.0968H18.0289ZM27.0434 31.0968V38.871H18.0289V31.0968H27.0434ZM36.0578 31.0968V38.871H27.0434V31.0968H36.0578ZM45.0723 31.0968V38.871H36.0578V31.0968H45.0723ZM45.0723 23.3226V31.0968H36.0578V23.3226H45.0723ZM36.0578 23.3226V31.0968H27.0434V23.3226H36.0578ZM27.0434 23.3226V31.0968H18.0289V23.3226H27.0434ZM18.0289 23.3226V31.0968H9.01446V23.3226H18.0289ZM135.217 23.3226V31.0968H126.202V23.3226H135.217ZM135.217 31.0968V38.871H126.202V31.0968H135.217ZM126.202 31.0968V38.871H117.188V31.0968H126.202ZM117.188 31.0968V38.871H108.174V31.0968H117.188ZM108.174 31.0968V38.871H99.1591V31.0968H108.174ZM99.1591 31.0968V38.871H90.1446V31.0968H99.1591ZM99.1591 23.3226V31.0968H90.1446V23.3226H99.1591ZM108.174 23.3226V31.0968H99.1591V23.3226H108.174ZM117.188 23.3226V31.0968H108.174V23.3226H117.188ZM126.202 23.3226V31.0968H117.188V23.3226H126.202Z" fill="white"/>
<path d="M180.457 186.581V194.355H171.442V186.581H180.457ZM180.457 178.806V186.581H171.442V178.806H180.457ZM180.457 171.032V178.806H171.442V171.032H180.457ZM180.457 163.258V171.032H171.442V163.258H180.457ZM180.457 155.484V163.258H171.442V155.484H180.457ZM180.457 147.71V155.484H171.442V147.71H180.457ZM180.457 139.935V147.71H171.442V139.935H180.457ZM180.457 132.161V139.935H171.442V132.161H180.457ZM180.457 124.387V132.161H171.442V124.387H180.457ZM180.457 116.613V124.387H171.442V116.613H180.457ZM180.457 108.839V116.613H171.442V108.839H180.457ZM180.457 101.065V108.839H171.442V101.065H180.457ZM180.457 93.2903V101.065H171.442V93.2903H180.457ZM180.457 85.5161V93.2903H171.442V85.5161H180.457ZM180.457 77.742V85.5161H171.442V77.742H180.457ZM189.471 77.742V85.5161H180.457V77.742H189.471ZM189.471 85.5161V93.2903H180.457V85.5161H189.471ZM189.471 93.2903V101.065H180.457V93.2903H189.471ZM189.471 101.065V108.839H180.457V101.065H189.471ZM189.471 108.839V116.613H180.457V108.839H189.471ZM189.471 116.613V124.387H180.457V116.613H189.471ZM189.471 124.387V132.161H180.457V124.387H189.471ZM198.485 132.161V139.935H189.471V132.161H198.485ZM198.485 139.935V147.71H189.471V139.935H198.485ZM198.485 147.71V155.484H189.471V147.71H198.485ZM198.485 155.484V163.258H189.471V155.484H198.485ZM198.485 163.258V171.032H189.471V163.258H198.485ZM198.485 171.032V178.806H189.471V171.032H198.485ZM198.485 178.806V186.581H189.471V178.806H198.485ZM198.485 186.581V194.355H189.471V186.581H198.485ZM207.5 186.581V194.355H198.485V186.581H207.5ZM216.514 186.581V194.355H207.5V186.581H216.514ZM216.514 178.806V186.581H207.5V178.806H216.514ZM216.514 171.032V178.806H207.5V171.032H216.514ZM216.514 163.258V171.032H207.5V163.258H216.514ZM216.514 155.484V163.258H207.5V155.484H216.514ZM216.514 147.71V155.484H207.5V147.71H216.514ZM216.514 139.935V147.71H207.5V139.935H216.514ZM216.514 132.161V139.935H207.5V132.161H216.514ZM207.5 132.161V139.935H198.485V132.161H207.5ZM207.5 124.387V132.161H198.485V124.387H207.5ZM207.5 139.935V147.71H198.485V139.935H207.5ZM207.5 147.71V155.484H198.485V147.71H207.5ZM207.5 155.484V163.258H198.485V155.484H207.5ZM207.5 163.258V171.032H198.485V163.258H207.5ZM207.5 171.032V178.806H198.485V171.032H207.5ZM207.5 178.806V186.581H198.485V178.806H207.5ZM189.471 186.581V194.355H180.457V186.581H189.471ZM189.471 178.806V186.581H180.457V178.806H189.471ZM189.471 171.032V178.806H180.457V171.032H189.471ZM189.471 163.258V171.032H180.457V163.258H189.471ZM189.471 155.484V163.258H180.457V155.484H189.471ZM189.471 147.71V155.484H180.457V147.71H189.471ZM189.471 139.935V147.71H180.457V139.935H189.471ZM189.471 132.161V139.935H180.457V132.161H189.471ZM180.457 0V7.77421H171.442V0H180.457ZM180.457 7.77421V15.5484H171.442V7.77421H180.457ZM180.457 15.5484V23.3226H171.442V15.5484H180.457ZM180.457 23.3226V31.0968H171.442V23.3226H180.457ZM180.457 31.0968V38.871H171.442V31.0968H180.457ZM180.457 38.871V46.6452H171.442V38.871H180.457ZM180.457 46.6452V54.4194H171.442V46.6452H180.457ZM180.457 54.4194V62.1936H171.442V54.4194H180.457ZM180.457 62.1936V69.9678H171.442V62.1936H180.457ZM180.457 69.9678V77.742H171.442V69.9678H180.457ZM207.5 0V7.77421H198.485V0H207.5ZM207.5 7.77421V15.5484H198.485V7.77421H207.5ZM207.5 15.5484V23.3226H198.485V15.5484H207.5ZM207.5 23.3226V31.0968H198.485V23.3226H207.5ZM207.5 31.0968V38.871H198.485V31.0968H207.5ZM207.5 38.871V46.6452H198.485V38.871H207.5ZM207.5 54.4194V62.1936H198.485V54.4194H207.5ZM207.5 62.1936V69.9678H198.485V62.1936H207.5ZM207.5 69.9678V77.742H198.485V69.9678H207.5ZM207.5 77.742V85.5161H198.485V77.742H207.5ZM207.5 85.5161V93.2903H198.485V85.5161H207.5ZM207.5 93.2903V101.065H198.485V93.2903H207.5ZM207.5 101.065V108.839H198.485V101.065H207.5ZM216.514 108.839V116.613H207.5V108.839H216.514ZM216.514 116.613V124.387H207.5V116.613H216.514ZM216.514 124.387V132.161H207.5V124.387H216.514ZM216.514 101.065V108.839H207.5V101.065H216.514ZM216.514 93.2903V101.065H207.5V93.2903H216.514ZM216.514 85.5161V93.2903H207.5V85.5161H216.514ZM216.514 77.742V85.5161H207.5V77.742H216.514ZM216.514 69.9678V77.742H207.5V69.9678H216.514ZM216.514 62.1936V69.9678H207.5V62.1936H216.514ZM216.514 54.4194V62.1936H207.5V54.4194H216.514ZM216.514 46.6452V54.4194H207.5V46.6452H216.514ZM216.514 38.871V46.6452H207.5V38.871H216.514ZM216.514 31.0968V38.871H207.5V31.0968H216.514ZM207.5 46.6452V54.4194H198.485V46.6452H207.5ZM216.514 23.3226V31.0968H207.5V23.3226H216.514ZM216.514 15.5484V23.3226H207.5V15.5484H216.514ZM216.514 7.77421V15.5484H207.5V7.77421H216.514ZM216.514 0V7.77421H207.5V0H216.514ZM198.485 0V7.77421H189.471V0H198.485ZM189.471 0V7.77421H180.457V0H189.471ZM189.471 7.77421V15.5484H180.457V7.77421H189.471ZM198.485 7.77421V15.5484H189.471V7.77421H198.485ZM198.485 15.5484V23.3226H189.471V15.5484H198.485ZM198.485 23.3226V31.0968H189.471V23.3226H198.485ZM198.485 31.0968V38.871H189.471V31.0968H198.485ZM198.485 38.871V46.6452H189.471V38.871H198.485ZM198.485 46.6452V54.4194H189.471V46.6452H198.485ZM198.485 54.4194V62.1936H189.471V54.4194H198.485ZM189.471 62.1936V69.9678H180.457V62.1936H189.471ZM189.471 69.9678V77.742H180.457V69.9678H189.471ZM189.471 54.4194V62.1936H180.457V54.4194H189.471ZM189.471 46.6452V54.4194H180.457V46.6452H189.471ZM189.471 38.871V46.6452H180.457V38.871H189.471ZM189.471 31.0968V38.871H180.457V31.0968H189.471ZM189.471 23.3226V31.0968H180.457V23.3226H189.471ZM189.471 15.5484V23.3226H180.457V15.5484H189.471ZM198.485 62.1936V69.9678H189.471V62.1936H198.485ZM198.485 69.9678V77.742H189.471V69.9678H198.485ZM198.485 77.742V85.5161H189.471V77.742H198.485ZM198.485 85.5161V93.2903H189.471V85.5161H198.485ZM198.485 93.2903V101.065H189.471V93.2903H198.485ZM198.485 101.065V108.839H189.471V101.065H198.485ZM198.485 108.839V116.613H189.471V108.839H198.485ZM198.485 116.613V124.387H189.471V116.613H198.485ZM198.485 124.387V132.161H189.471V124.387H198.485ZM207.5 116.613V124.387H198.485V116.613H207.5ZM207.5 108.839V116.613H198.485V108.839H207.5ZM279.616 186.581V194.355H270.601V186.581H279.616ZM288.63 186.581V194.355H279.616V186.581H288.63ZM297.645 186.581V194.355H288.63V186.581H297.645ZM306.659 186.581V194.355H297.645V186.581H306.659ZM315.673 178.806V186.581H306.659V178.806H315.673ZM315.673 171.032V178.806H306.659V171.032H315.673ZM315.673 186.581V194.355H306.659V186.581H315.673ZM306.659 178.806V186.581H297.645V178.806H306.659ZM297.645 178.806V186.581H288.63V178.806H297.645ZM288.63 178.806V186.581H279.616V178.806H288.63ZM279.616 178.806V186.581H270.601V178.806H279.616ZM279.616 171.032V178.806H270.601V171.032H279.616ZM279.616 163.258V171.032H270.601V163.258H279.616ZM288.63 163.258V171.032H279.616V163.258H288.63ZM297.645 163.258V171.032H288.63V163.258H297.645ZM306.659 163.258V171.032H297.645V163.258H306.659ZM315.673 163.258V171.032H306.659V163.258H315.673ZM306.659 171.032V178.806H297.645V171.032H306.659ZM297.645 171.032V178.806H288.63V171.032H297.645ZM288.63 171.032V178.806H279.616V171.032H288.63ZM315.673 77.742V85.5161H306.659V77.742H315.673ZM306.659 77.742V85.5161H297.645V77.742H306.659ZM288.63 77.742V85.5161H279.616V77.742H288.63ZM288.63 85.5161V93.2903H279.616V85.5161H288.63ZM288.63 93.2903V101.065H279.616V93.2903H288.63ZM279.616 101.065V108.839H270.601V101.065H279.616ZM279.616 108.839V116.613H270.601V108.839H279.616ZM279.616 116.613V124.387H270.601V116.613H279.616ZM279.616 124.387V132.161H270.601V124.387H279.616ZM279.616 132.161V139.935H270.601V132.161H279.616ZM279.616 139.935V147.71H270.601V139.935H279.616ZM279.616 147.71V155.484H270.601V147.71H279.616ZM279.616 155.484V163.258H270.601V155.484H279.616ZM288.63 155.484V163.258H279.616V155.484H288.63ZM297.645 155.484V163.258H288.63V155.484H297.645ZM306.659 155.484V163.258H297.645V155.484H306.659ZM315.673 155.484V163.258H306.659V155.484H315.673ZM315.673 147.71V155.484H306.659V147.71H315.673ZM315.673 132.161V139.935H306.659V132.161H315.673ZM315.673 124.387V132.161H306.659V124.387H315.673ZM315.673 116.613V124.387H306.659V116.613H315.673ZM315.673 108.839V116.613H306.659V108.839H315.673ZM315.673 101.065V108.839H306.659V101.065H315.673ZM315.673 93.2903V101.065H306.659V93.2903H315.673ZM315.673 85.5161V93.2903H306.659V85.5161H315.673ZM306.659 116.613V124.387H297.645V116.613H306.659ZM306.659 132.161V139.935H297.645V132.161H306.659ZM306.659 139.935V147.71H297.645V139.935H306.659ZM306.659 147.71V155.484H297.645V147.71H306.659ZM315.673 139.935V147.71H306.659V139.935H315.673ZM306.659 101.065V108.839H297.645V101.065H306.659ZM297.645 101.065V108.839H288.63V101.065H297.645ZM288.63 101.065V108.839H279.616V101.065H288.63ZM288.63 108.839V116.613H279.616V108.839H288.63ZM288.63 116.613V124.387H279.616V116.613H288.63ZM288.63 124.387V132.161H279.616V124.387H288.63ZM288.63 132.161V139.935H279.616V132.161H288.63ZM288.63 139.935V147.71H279.616V139.935H288.63ZM288.63 147.71V155.484H279.616V147.71H288.63ZM297.645 147.71V155.484H288.63V147.71H297.645ZM297.645 139.935V147.71H288.63V139.935H297.645ZM297.645 132.161V139.935H288.63V132.161H297.645ZM297.645 124.387V132.161H288.63V124.387H297.645ZM297.645 116.613V124.387H288.63V116.613H297.645ZM297.645 108.839V116.613H288.63V108.839H297.645ZM306.659 108.839V116.613H297.645V108.839H306.659ZM306.659 124.387V132.161H297.645V124.387H306.659ZM306.659 93.2903V101.065H297.645V93.2903H306.659ZM306.659 85.5161V93.2903H297.645V85.5161H306.659ZM297.645 85.5161V93.2903H288.63V85.5161H297.645ZM297.645 93.2903V101.065H288.63V93.2903H297.645ZM279.616 93.2903V101.065H270.601V93.2903H279.616ZM279.616 85.5161V93.2903H270.601V85.5161H279.616ZM279.616 77.742V85.5161H270.601V77.742H279.616ZM297.645 77.742V85.5161H288.63V77.742H297.645ZM279.616 46.6452V54.4194H270.601V46.6452H279.616ZM279.616 54.4194V62.1936H270.601V54.4194H279.616ZM288.63 54.4194V62.1936H279.616V54.4194H288.63ZM297.645 54.4194V62.1936H288.63V54.4194H297.645ZM297.645 62.1936V69.9678H288.63V62.1936H297.645ZM306.659 62.1936V69.9678H297.645V62.1936H306.659ZM306.659 69.9678V77.742H297.645V69.9678H306.659ZM297.645 69.9678V77.742H288.63V69.9678H297.645ZM288.63 69.9678V77.742H279.616V69.9678H288.63ZM288.63 62.1936V69.9678H279.616V62.1936H288.63ZM279.616 62.1936V69.9678H270.601V62.1936H279.616ZM270.601 62.1936V69.9678H261.587V62.1936H270.601ZM270.601 69.9678V77.742H261.587V69.9678H270.601ZM279.616 69.9678V77.742H270.601V69.9678H279.616ZM270.601 77.742V85.5161H261.587V77.742H270.601ZM261.587 69.9678V77.742H252.572V69.9678H261.587ZM261.587 62.1936V69.9678H252.572V62.1936H261.587ZM261.587 54.4194V62.1936H252.572V54.4194H261.587ZM261.587 46.6452V54.4194H252.572V46.6452H261.587ZM270.601 46.6452V54.4194H261.587V46.6452H270.601ZM270.601 54.4194V62.1936H261.587V54.4194H270.601ZM252.572 46.6452V54.4194H243.558V46.6452H252.572ZM252.572 54.4194V62.1936H243.558V54.4194H252.572ZM252.572 62.1936V69.9678H243.558V62.1936H252.572ZM252.572 69.9678V77.742H243.558V69.9678H252.572ZM243.558 46.6452V54.4194H234.543V46.6452H243.558ZM243.558 54.4194V62.1936H234.543V54.4194H243.558ZM234.543 54.4194V62.1936H225.529V54.4194H234.543ZM234.543 62.1936V69.9678H225.529V62.1936H234.543ZM225.529 62.1936V69.9678H216.514V62.1936H225.529ZM225.529 69.9678V77.742H216.514V69.9678H225.529ZM234.543 69.9678V77.742H225.529V69.9678H234.543ZM243.558 69.9678V77.742H234.543V69.9678H243.558ZM243.558 62.1936V69.9678H234.543V62.1936H243.558ZM225.529 77.742V85.5161H216.514V77.742H225.529ZM234.543 46.6452V54.4194H225.529V46.6452H234.543ZM225.529 54.4194V62.1936H216.514V54.4194H225.529Z" fill="white"/>
<path d="M351.899 186.581V194.355H342.884V186.581H351.899ZM351.899 178.806V186.581H342.884V178.806H351.899ZM351.899 171.032V178.806H342.884V171.032H351.899ZM351.899 163.258V171.032H342.884V163.258H351.899ZM351.899 155.484V163.258H342.884V155.484H351.899ZM351.899 147.71V155.484H342.884V147.71H351.899ZM351.899 139.935V147.71H342.884V139.935H351.899ZM351.899 132.161V139.935H342.884V132.161H351.899ZM351.899 124.387V132.161H342.884V124.387H351.899ZM351.899 116.613V124.387H342.884V116.613H351.899ZM351.899 108.839V116.613H342.884V108.839H351.899ZM351.899 101.065V108.839H342.884V101.065H351.899ZM351.899 93.2903V101.065H342.884V93.2903H351.899ZM351.899 85.5161V93.2903H342.884V85.5161H351.899ZM351.899 77.742V85.5161H342.884V77.742H351.899ZM360.913 77.742V85.5161H351.899V77.742H360.913ZM360.913 85.5161V93.2903H351.899V85.5161H360.913ZM360.913 93.2903V101.065H351.899V93.2903H360.913ZM360.913 101.065V108.839H351.899V101.065H360.913ZM360.913 108.839V116.613H351.899V108.839H360.913ZM360.913 116.613V124.387H351.899V116.613H360.913ZM360.913 124.387V132.161H351.899V124.387H360.913ZM369.927 132.161V139.935H360.913V132.161H369.927ZM369.927 139.935V147.71H360.913V139.935H369.927ZM369.927 147.71V155.484H360.913V147.71H369.927ZM369.927 155.484V163.258H360.913V155.484H369.927ZM369.927 163.258V171.032H360.913V163.258H369.927ZM369.927 171.032V178.806H360.913V171.032H369.927ZM369.927 178.806V186.581H360.913V178.806H369.927ZM369.927 186.581V194.355H360.913V186.581H369.927ZM378.942 186.581V194.355H369.927V186.581H378.942ZM387.956 186.581V194.355H378.942V186.581H387.956ZM387.956 178.806V186.581H378.942V178.806H387.956ZM387.956 171.032V178.806H378.942V171.032H387.956ZM387.956 163.258V171.032H378.942V163.258H387.956ZM387.956 155.484V163.258H378.942V155.484H387.956ZM387.956 147.71V155.484H378.942V147.71H387.956ZM387.956 139.935V147.71H378.942V139.935H387.956ZM387.956 132.161V139.935H378.942V132.161H387.956ZM378.942 132.161V139.935H369.927V132.161H378.942ZM378.942 124.387V132.161H369.927V124.387H378.942ZM378.942 139.935V147.71H369.927V139.935H378.942ZM378.942 147.71V155.484H369.927V147.71H378.942ZM378.942 155.484V163.258H369.927V155.484H378.942ZM378.942 163.258V171.032H369.927V163.258H378.942ZM378.942 171.032V178.806H369.927V171.032H378.942ZM378.942 178.806V186.581H369.927V178.806H378.942ZM360.913 186.581V194.355H351.899V186.581H360.913ZM360.913 178.806V186.581H351.899V178.806H360.913ZM360.913 171.032V178.806H351.899V171.032H360.913ZM360.913 163.258V171.032H351.899V163.258H360.913ZM360.913 155.484V163.258H351.899V155.484H360.913ZM360.913 147.71V155.484H351.899V147.71H360.913ZM360.913 139.935V147.71H351.899V139.935H360.913ZM360.913 132.161V139.935H351.899V132.161H360.913ZM351.899 46.6452V54.4194H342.884V46.6452H351.899ZM351.899 54.4194V62.1936H342.884V54.4194H351.899ZM351.899 62.1936V69.9678H342.884V62.1936H351.899ZM351.899 69.9678V77.742H342.884V69.9678H351.899ZM378.942 54.4194V62.1936H369.927V54.4194H378.942ZM378.942 62.1936V69.9678H369.927V62.1936H378.942ZM378.942 69.9678V77.742H369.927V69.9678H378.942ZM378.942 77.742V85.5161H369.927V77.742H378.942ZM378.942 85.5161V93.2903H369.927V85.5161H378.942ZM378.942 93.2903V101.065H369.927V93.2903H378.942ZM378.942 101.065V108.839H369.927V101.065H378.942ZM387.956 108.839V116.613H378.942V108.839H387.956ZM387.956 116.613V124.387H378.942V116.613H387.956ZM387.956 124.387V132.161H378.942V124.387H387.956ZM387.956 101.065V108.839H378.942V101.065H387.956ZM387.956 93.2903V101.065H378.942V93.2903H387.956ZM387.956 85.5161V93.2903H378.942V85.5161H387.956ZM387.956 77.742V85.5161H378.942V77.742H387.956ZM387.956 69.9678V77.742H378.942V69.9678H387.956ZM387.956 62.1936V69.9678H378.942V62.1936H387.956ZM387.956 54.4194V62.1936H378.942V54.4194H387.956ZM387.956 46.6452V54.4194H378.942V46.6452H387.956ZM378.942 46.6452V54.4194H369.927V46.6452H378.942ZM369.927 46.6452V54.4194H360.913V46.6452H369.927ZM369.927 54.4194V62.1936H360.913V54.4194H369.927ZM360.913 62.1936V69.9678H351.899V62.1936H360.913ZM360.913 69.9678V77.742H351.899V69.9678H360.913ZM360.913 54.4194V62.1936H351.899V54.4194H360.913ZM360.913 46.6452V54.4194H351.899V46.6452H360.913ZM369.927 62.1936V69.9678H360.913V62.1936H369.927ZM369.927 69.9678V77.742H360.913V69.9678H369.927ZM369.927 77.742V85.5161H360.913V77.742H369.927ZM369.927 85.5161V93.2903H360.913V85.5161H369.927ZM369.927 93.2903V101.065H360.913V93.2903H369.927ZM369.927 101.065V108.839H360.913V101.065H369.927ZM369.927 108.839V116.613H360.913V108.839H369.927ZM369.927 116.613V124.387H360.913V116.613H369.927ZM369.927 124.387V132.161H360.913V124.387H369.927ZM378.942 116.613V124.387H369.927V116.613H378.942ZM378.942 108.839V116.613H369.927V108.839H378.942ZM451.058 77.742V85.5161H442.043V77.742H451.058ZM451.058 46.6452V54.4194H442.043V46.6452H451.058ZM451.058 54.4194V62.1936H442.043V54.4194H451.058ZM460.072 54.4194V62.1936H451.058V54.4194H460.072ZM469.087 62.1936V69.9678H460.072V62.1936H469.087ZM460.072 69.9678V77.742H451.058V69.9678H460.072ZM460.072 62.1936V69.9678H451.058V62.1936H460.072ZM451.058 62.1936V69.9678H442.043V62.1936H451.058ZM442.043 62.1936V69.9678H433.029V62.1936H442.043ZM442.043 69.9678V77.742H433.029V69.9678H442.043ZM451.058 69.9678V77.742H442.043V69.9678H451.058ZM442.043 77.742V85.5161H433.029V77.742H442.043ZM433.029 69.9678V77.742H424.014V69.9678H433.029ZM433.029 62.1936V69.9678H424.014V62.1936H433.029ZM433.029 54.4194V62.1936H424.014V54.4194H433.029ZM433.029 46.6452V54.4194H424.014V46.6452H433.029ZM442.043 46.6452V54.4194H433.029V46.6452H442.043ZM442.043 54.4194V62.1936H433.029V54.4194H442.043ZM424.014 46.6452V54.4194H415V46.6452H424.014ZM424.014 54.4194V62.1936H415V54.4194H424.014ZM424.014 62.1936V69.9678H415V62.1936H424.014ZM424.014 69.9678V77.742H415V69.9678H424.014ZM415 46.6452V54.4194H405.985V46.6452H415ZM415 54.4194V62.1936H405.985V54.4194H415ZM405.985 54.4194V62.1936H396.971V54.4194H405.985ZM405.985 62.1936V69.9678H396.971V62.1936H405.985ZM396.971 62.1936V69.9678H387.956V62.1936H396.971ZM396.971 69.9678V77.742H387.956V69.9678H396.971ZM405.985 69.9678V77.742H396.971V69.9678H405.985ZM415 69.9678V77.742H405.985V69.9678H415ZM415 62.1936V69.9678H405.985V62.1936H415ZM396.971 77.742V85.5161H387.956V77.742H396.971ZM405.985 46.6452V54.4194H396.971V46.6452H405.985ZM396.971 54.4194V62.1936H387.956V54.4194H396.971ZM433.029 77.742V85.5161H424.014V77.742H433.029ZM442.043 85.5161V93.2903H433.029V85.5161H442.043Z" fill="white"/>
<path d="M586.415 93.2903V101.065H577.401V93.2903H586.415ZM595.43 93.2903V101.065H586.415V93.2903H595.43ZM604.444 93.2903V101.065H595.43V93.2903H604.444ZM613.459 93.2903V101.065H604.444V93.2903H613.459ZM622.473 93.2903V101.065H613.459V93.2903H622.473ZM622.473 85.5161V93.2903H613.459V85.5161H622.473ZM622.473 77.742V85.5161H613.459V77.742H622.473ZM613.459 77.742V85.5161H604.444V77.742H613.459ZM604.444 77.742V85.5161H595.43V77.742H604.444ZM595.43 77.742V85.5161H586.415V77.742H595.43ZM595.43 85.5161V93.2903H586.415V85.5161H595.43ZM586.415 85.5161V93.2903H577.401V85.5161H586.415ZM604.444 85.5161V93.2903H595.43V85.5161H604.444ZM613.459 85.5161V93.2903H604.444V85.5161H613.459ZM586.415 77.742V85.5161H577.401V77.742H586.415ZM577.401 77.742V85.5161H568.386V77.742H577.401ZM577.401 69.9678V77.742H568.386V69.9678H577.401ZM586.415 69.9678V77.742H577.401V69.9678H586.415ZM595.43 69.9678V77.742H586.415V69.9678H595.43ZM604.444 69.9678V77.742H595.43V69.9678H604.444ZM613.459 69.9678V77.742H604.444V69.9678H613.459ZM613.459 62.1936V69.9678H604.444V62.1936H613.459ZM604.444 62.1936V69.9678H595.43V62.1936H604.444ZM595.43 62.1936V69.9678H586.415V62.1936H595.43ZM586.415 62.1936V69.9678H577.401V62.1936H586.415ZM577.401 62.1936V69.9678H568.386V62.1936H577.401ZM595.43 54.4194V62.1936H586.415V54.4194H595.43ZM604.444 54.4194V62.1936H595.43V54.4194H604.444ZM586.415 54.4194V62.1936H577.401V54.4194H586.415ZM586.415 46.6452V54.4194H577.401V46.6452H586.415ZM577.401 46.6452V54.4194H568.386V46.6452H577.401ZM577.401 54.4194V62.1936H568.386V54.4194H577.401ZM568.386 54.4194V62.1936H559.372V54.4194H568.386ZM568.386 46.6452V54.4194H559.372V46.6452H568.386ZM568.386 62.1936V69.9678H559.372V62.1936H568.386ZM559.372 62.1936V69.9678H550.358V62.1936H559.372ZM559.372 69.9678V77.742H550.358V69.9678H559.372ZM568.386 69.9678V77.742H559.372V69.9678H568.386ZM550.358 69.9678V77.742H541.343V69.9678H550.358ZM550.358 62.1936V69.9678H541.343V62.1936H550.358ZM550.358 54.4194V62.1936H541.343V54.4194H550.358ZM550.358 46.6452V54.4194H541.343V46.6452H550.358ZM559.372 46.6452V54.4194H550.358V46.6452H559.372ZM559.372 54.4194V62.1936H550.358V54.4194H559.372ZM541.343 46.6452V54.4194H532.329V46.6452H541.343ZM532.329 46.6452V54.4194H523.314V46.6452H532.329ZM523.314 46.6452V54.4194H514.3V46.6452H523.314ZM523.314 54.4194V62.1936H514.3V54.4194H523.314ZM523.314 62.1936V69.9678H514.3V62.1936H523.314ZM523.314 69.9678V77.742H514.3V69.9678H523.314ZM532.329 69.9678V77.742H523.314V69.9678H532.329ZM541.343 69.9678V77.742H532.329V69.9678H541.343ZM541.343 62.1936V69.9678H532.329V62.1936H541.343ZM541.343 54.4194V62.1936H532.329V54.4194H541.343ZM532.329 54.4194V62.1936H523.314V54.4194H532.329ZM532.329 62.1936V69.9678H523.314V62.1936H532.329ZM514.3 62.1936V69.9678H505.285V62.1936H514.3ZM514.3 54.4194V62.1936H505.285V54.4194H514.3ZM505.285 54.4194V62.1936H496.271V54.4194H505.285ZM505.285 62.1936V69.9678H496.271V62.1936H505.285ZM496.271 62.1936V69.9678H487.256V62.1936H496.271ZM496.271 69.9678V77.742H487.256V69.9678H496.271ZM496.271 77.742V85.5161H487.256V77.742H496.271ZM505.285 77.742V85.5161H496.271V77.742H505.285ZM505.285 69.9678V77.742H496.271V69.9678H505.285ZM514.3 69.9678V77.742H505.285V69.9678H514.3ZM514.3 77.742V85.5161H505.285V77.742H514.3ZM523.314 77.742V85.5161H514.3V77.742H523.314ZM532.329 77.742V85.5161H523.314V77.742H532.329ZM487.256 77.742V85.5161H478.242V77.742H487.256ZM487.256 85.5161V93.2903H478.242V85.5161H487.256ZM487.256 93.2903V101.065H478.242V93.2903H487.256ZM487.256 101.065V108.839H478.242V101.065H487.256ZM487.256 108.839V116.613H478.242V108.839H487.256ZM487.256 116.613V124.387H478.242V116.613H487.256ZM487.256 124.387V132.161H478.242V124.387H487.256ZM487.256 132.161V139.935H478.242V132.161H487.256ZM487.256 139.935V147.71H478.242V139.935H487.256ZM487.256 147.71V155.484H478.242V147.71H487.256ZM496.271 147.71V155.484H487.256V147.71H496.271ZM496.271 155.484V163.258H487.256V155.484H496.271ZM487.256 155.484V163.258H478.242V155.484H487.256ZM505.285 155.484V163.258H496.271V155.484H505.285ZM514.3 155.484V163.258H505.285V155.484H514.3ZM523.314 155.484V163.258H514.3V155.484H523.314ZM532.329 155.484V163.258H523.314V155.484H532.329ZM523.314 147.71V155.484H514.3V147.71H523.314ZM523.314 139.935V147.71H514.3V139.935H523.314ZM523.314 132.161V139.935H514.3V132.161H523.314ZM523.314 124.387V132.161H514.3V124.387H523.314ZM523.314 116.613V124.387H514.3V116.613H523.314ZM523.314 108.839V116.613H514.3V108.839H523.314ZM523.314 101.065V108.839H514.3V101.065H523.314ZM523.314 93.2903V101.065H514.3V93.2903H523.314ZM523.314 85.5161V93.2903H514.3V85.5161H523.314ZM514.3 85.5161V93.2903H505.285V85.5161H514.3ZM505.285 85.5161V93.2903H496.271V85.5161H505.285ZM496.271 85.5161V93.2903H487.256V85.5161H496.271ZM496.271 93.2903V101.065H487.256V93.2903H496.271ZM496.271 101.065V108.839H487.256V101.065H496.271ZM496.271 108.839V116.613H487.256V108.839H496.271ZM496.271 116.613V124.387H487.256V116.613H496.271ZM496.271 124.387V132.161H487.256V124.387H496.271ZM496.271 132.161V139.935H487.256V132.161H496.271ZM496.271 139.935V147.71H487.256V139.935H496.271ZM505.285 147.71V155.484H496.271V147.71H505.285ZM514.3 147.71V155.484H505.285V147.71H514.3ZM514.3 139.935V147.71H505.285V139.935H514.3ZM514.3 132.161V139.935H505.285V132.161H514.3ZM514.3 124.387V132.161H505.285V124.387H514.3ZM514.3 116.613V124.387H505.285V116.613H514.3ZM505.285 116.613V124.387H496.271V116.613H505.285ZM505.285 108.839V116.613H496.271V108.839H505.285ZM505.285 101.065V108.839H496.271V101.065H505.285ZM505.285 93.2903V101.065H496.271V93.2903H505.285ZM514.3 93.2903V101.065H505.285V93.2903H514.3ZM514.3 101.065V108.839H505.285V101.065H514.3ZM514.3 108.839V116.613H505.285V108.839H514.3ZM505.285 132.161V139.935H496.271V132.161H505.285ZM505.285 139.935V147.71H496.271V139.935H505.285ZM505.285 124.387V132.161H496.271V124.387H505.285ZM586.415 147.71V155.484H577.401V147.71H586.415ZM595.43 147.71V155.484H586.415V147.71H595.43ZM604.444 147.71V155.484H595.43V147.71H604.444ZM613.459 147.71V155.484H604.444V147.71H613.459ZM622.473 147.71V155.484H613.459V147.71H622.473ZM622.473 155.484V163.258H613.459V155.484H622.473ZM613.459 155.484V163.258H604.444V155.484H613.459ZM604.444 155.484V163.258H595.43V155.484H604.444ZM595.43 155.484V163.258H586.415V155.484H595.43ZM586.415 155.484V163.258H577.401V155.484H586.415ZM577.401 155.484V163.258H568.386V155.484H577.401ZM577.401 163.258V171.032H568.386V163.258H577.401ZM586.415 163.258V171.032H577.401V163.258H586.415ZM595.43 163.258V171.032H586.415V163.258H595.43ZM604.444 163.258V171.032H595.43V163.258H604.444ZM604.444 171.032V178.806H595.43V171.032H604.444ZM613.459 171.032V178.806H604.444V171.032H613.459ZM613.459 163.258V171.032H604.444V163.258H613.459ZM604.444 178.806V186.581H595.43V178.806H604.444ZM595.43 178.806V186.581H586.415V178.806H595.43ZM595.43 171.032V178.806H586.415V171.032H595.43ZM586.415 171.032V178.806H577.401V171.032H586.415ZM586.415 178.806V186.581H577.401V178.806H586.415ZM586.415 186.581V194.355H577.401V186.581H586.415ZM577.401 186.581V194.355H568.386V186.581H577.401ZM568.386 186.581V194.355H559.372V186.581H568.386ZM559.372 186.581V194.355H550.358V186.581H559.372ZM550.358 186.581V194.355H541.343V186.581H550.358ZM541.343 186.581V194.355H532.329V186.581H541.343ZM532.329 186.581V194.355H523.314V186.581H532.329ZM523.314 186.581V194.355H514.3V186.581H523.314ZM532.329 178.806V186.581H523.314V178.806H532.329ZM541.343 178.806V186.581H532.329V178.806H541.343ZM550.358 178.806V186.581H541.343V178.806H550.358ZM559.372 178.806V186.581H550.358V178.806H559.372ZM568.386 178.806V186.581H559.372V178.806H568.386ZM577.401 178.806V186.581H568.386V178.806H577.401ZM577.401 171.032V178.806H568.386V171.032H577.401ZM568.386 171.032V178.806H559.372V171.032H568.386ZM559.372 171.032V178.806H550.358V171.032H559.372ZM550.358 171.032V178.806H541.343V171.032H550.358ZM541.343 171.032V178.806H532.329V171.032H541.343ZM532.329 171.032V178.806H523.314V171.032H532.329ZM523.314 178.806V186.581H514.3V178.806H523.314ZM514.3 178.806V186.581H505.285V178.806H514.3ZM505.285 178.806V186.581H496.271V178.806H505.285ZM505.285 171.032V178.806H496.271V171.032H505.285ZM496.271 171.032V178.806H487.256V171.032H496.271ZM496.271 163.258V171.032H487.256V163.258H496.271ZM505.285 163.258V171.032H496.271V163.258H505.285ZM514.3 163.258V171.032H505.285V163.258H514.3ZM523.314 163.258V171.032H514.3V163.258H523.314ZM532.329 163.258V171.032H523.314V163.258H532.329ZM541.343 163.258V171.032H532.329V163.258H541.343ZM550.358 163.258V171.032H541.343V163.258H550.358ZM559.372 163.258V171.032H550.358V163.258H559.372ZM568.386 163.258V171.032H559.372V163.258H568.386ZM523.314 171.032V178.806H514.3V171.032H523.314ZM514.3 171.032V178.806H505.285V171.032H514.3ZM622.473 101.065V108.839H613.459V101.065H622.473ZM613.459 101.065V108.839H604.444V101.065H613.459ZM604.444 101.065V108.839H595.43V101.065H604.444ZM595.43 101.065V108.839H586.415V101.065H595.43ZM586.415 101.065V108.839H577.401V101.065H586.415ZM622.473 108.839V116.613H613.459V108.839H622.473ZM604.444 108.839V116.613H595.43V108.839H604.444ZM595.43 108.839V116.613H586.415V108.839H595.43ZM577.401 108.839V116.613H568.386V108.839H577.401ZM568.386 108.839V116.613H559.372V108.839H568.386ZM559.372 108.839V116.613H550.358V108.839H559.372ZM550.358 108.839V116.613H541.343V108.839H550.358ZM541.343 108.839V116.613H532.329V108.839H541.343ZM532.329 108.839V116.613H523.314V108.839H532.329ZM586.415 108.839V116.613H577.401V108.839H586.415ZM613.459 108.839V116.613H604.444V108.839H613.459ZM622.473 116.613V124.387H613.459V116.613H622.473ZM613.459 116.613V124.387H604.444V116.613H613.459ZM604.444 116.613V124.387H595.43V116.613H604.444ZM595.43 116.613V124.387H586.415V116.613H595.43ZM586.415 116.613V124.387H577.401V116.613H586.415ZM577.401 116.613V124.387H568.386V116.613H577.401ZM568.386 116.613V124.387H559.372V116.613H568.386ZM559.372 116.613V124.387H550.358V116.613H559.372ZM550.358 116.613V124.387H541.343V116.613H550.358ZM541.343 116.613V124.387H532.329V116.613H541.343ZM532.329 116.613V124.387H523.314V116.613H532.329ZM532.329 124.387V132.161H523.314V124.387H532.329ZM541.343 124.387V132.161H532.329V124.387H541.343ZM550.358 124.387V132.161H541.343V124.387H550.358ZM568.386 124.387V132.161H559.372V124.387H568.386ZM577.401 124.387V132.161H568.386V124.387H577.401ZM586.415 124.387V132.161H577.401V124.387H586.415ZM595.43 124.387V132.161H586.415V124.387H595.43ZM604.444 124.387V132.161H595.43V124.387H604.444ZM613.459 124.387V132.161H604.444V124.387H613.459ZM622.473 124.387V132.161H613.459V124.387H622.473ZM559.372 124.387V132.161H550.358V124.387H559.372Z" fill="white"/>
<path d="M676.718 147.71V139.935H685.733V147.71H676.718ZM667.704 147.71V139.935H676.718V147.71H667.704ZM658.69 147.71V139.935H667.704V147.71H658.69ZM649.675 147.71V139.935H658.69V147.71H649.675ZM640.661 147.71V139.935H649.675V147.71H640.661ZM640.661 155.484V147.71H649.675V155.484H640.661ZM640.661 163.258V155.484H649.675V163.258H640.661ZM649.675 163.258V155.484H658.69V163.258H649.675ZM658.69 163.258V155.484H667.704V163.258H658.69ZM667.704 163.258V155.484H676.718V163.258H667.704ZM667.704 155.484V147.71H676.718V155.484H667.704ZM676.718 155.484V147.71H685.733V155.484H676.718ZM658.69 155.484V147.71H667.704V155.484H658.69ZM649.675 155.484V147.71H658.69V155.484H649.675ZM676.718 163.258V155.484H685.733V163.258H676.718ZM685.733 163.258V155.484H694.747V163.258H685.733ZM685.733 171.032V163.258H694.747V171.032H685.733ZM676.718 171.032V163.258H685.733V171.032H676.718ZM667.704 171.032V163.258H676.718V171.032H667.704ZM658.69 171.032V163.258H667.704V171.032H658.69ZM649.675 171.032V163.258H658.69V171.032H649.675ZM649.675 178.806V171.032H658.69V178.806H649.675ZM658.69 178.806V171.032H667.704V178.806H658.69ZM667.704 178.806V171.032H676.718V178.806H667.704ZM676.718 178.806V171.032H685.733V178.806H676.718ZM685.733 178.806V171.032H694.747V178.806H685.733ZM667.704 186.581V178.806H676.718V186.581H667.704ZM658.69 186.581V178.806H667.704V186.581H658.69ZM676.718 186.581V178.806H685.733V186.581H676.718ZM676.718 194.355V186.581H685.733V194.355H676.718ZM685.733 194.355V186.581H694.747V194.355H685.733ZM685.733 186.581V178.806H694.747V186.581H685.733ZM694.747 186.581V178.806H703.762V186.581H694.747ZM694.747 194.355V186.581H703.762V194.355H694.747ZM694.747 178.806V171.032H703.762V178.806H694.747ZM703.762 178.806V171.032H712.776V178.806H703.762ZM703.762 171.032V163.258H712.776V171.032H703.762ZM694.747 171.032V163.258H703.762V171.032H694.747ZM712.776 171.032V163.258H721.791V171.032H712.776ZM712.776 178.806V171.032H721.791V178.806H712.776ZM712.776 186.581V178.806H721.791V186.581H712.776ZM712.776 194.355V186.581H721.791V194.355H712.776ZM703.762 194.355V186.581H712.776V194.355H703.762ZM703.762 186.581V178.806H712.776V186.581H703.762ZM721.791 194.355V186.581H730.805V194.355H721.791ZM739.82 186.581V178.806H748.834V186.581H739.82ZM739.82 178.806V171.032H748.834V178.806H739.82ZM739.82 171.032V163.258H748.834V171.032H739.82ZM730.805 171.032V163.258H739.82V171.032H730.805ZM721.791 171.032V163.258H730.805V171.032H721.791ZM721.791 178.806V171.032H730.805V178.806H721.791ZM721.791 186.581V178.806H730.805V186.581H721.791ZM730.805 186.581V178.806H739.82V186.581H730.805ZM730.805 178.806V171.032H739.82V178.806H730.805ZM748.834 178.806V171.032H757.849V178.806H748.834ZM748.834 186.581V178.806H757.849V186.581H748.834ZM757.849 186.581V178.806H766.863V186.581H757.849ZM757.849 178.806V171.032H766.863V178.806H757.849ZM766.863 178.806V171.032H775.878V178.806H766.863ZM766.863 171.032V163.258H775.878V171.032H766.863ZM766.863 163.258V155.484H775.878V163.258H766.863ZM757.849 163.258V155.484H766.863V163.258H757.849ZM757.849 171.032V163.258H766.863V171.032H757.849ZM748.834 171.032V163.258H757.849V171.032H748.834ZM748.834 163.258V155.484H757.849V163.258H748.834ZM739.82 163.258V155.484H748.834V163.258H739.82ZM775.878 163.258V155.484H784.892V163.258H775.878ZM775.878 155.484V147.71H784.892V155.484H775.878ZM775.878 147.71V139.935H784.892V147.71H775.878ZM775.878 139.935V132.161H784.892V139.935H775.878ZM775.878 132.161V124.387H784.892V132.161H775.878ZM775.878 124.387V116.613H784.892V124.387H775.878ZM775.878 116.613V108.839H784.892V116.613H775.878ZM775.878 108.839V101.065H784.892V108.839H775.878ZM775.878 101.065V93.2903H784.892V101.065H775.878ZM775.878 93.2903V85.5161H784.892V93.2903H775.878ZM766.863 93.2903V85.5161H775.878V93.2903H766.863ZM766.863 85.5161V77.742H775.878V85.5161H766.863ZM775.878 85.5161V77.742H784.892V85.5161H775.878ZM757.849 85.5161V77.742H766.863V85.5161H757.849ZM748.834 85.5161V77.742H757.849V85.5161H748.834ZM739.82 85.5161V77.742H748.834V85.5161H739.82ZM730.805 85.5161V77.742H739.82V85.5161H730.805ZM739.82 93.2903V85.5161H748.834V93.2903H739.82ZM739.82 101.065V93.2903H748.834V101.065H739.82ZM739.82 108.839V101.065H748.834V108.839H739.82ZM739.82 116.613V108.839H748.834V116.613H739.82ZM739.82 124.387V116.613H748.834V124.387H739.82ZM739.82 132.161V124.387H748.834V132.161H739.82ZM739.82 139.935V132.161H748.834V139.935H739.82ZM739.82 147.71V139.935H748.834V147.71H739.82ZM739.82 155.484V147.71H748.834V155.484H739.82ZM748.834 155.484V147.71H757.849V155.484H748.834ZM757.849 155.484V147.71H766.863V155.484H757.849ZM766.863 155.484V147.71H775.878V155.484H766.863ZM766.863 147.71V139.935H775.878V147.71H766.863ZM766.863 139.935V132.161H775.878V139.935H766.863ZM766.863 132.161V124.387H775.878V132.161H766.863ZM766.863 124.387V116.613H775.878V124.387H766.863ZM766.863 116.613V108.839H775.878V116.613H766.863ZM766.863 108.839V101.065H775.878V108.839H766.863ZM766.863 101.065V93.2903H775.878V101.065H766.863ZM757.849 93.2903V85.5161H766.863V93.2903H757.849ZM748.834 93.2903V85.5161H757.849V93.2903H748.834ZM748.834 101.065V93.2903H757.849V101.065H748.834ZM748.834 108.839V101.065H757.849V108.839H748.834ZM748.834 116.613V108.839H757.849V116.613H748.834ZM748.834 124.387V116.613H757.849V124.387H748.834ZM757.849 124.387V116.613H766.863V124.387H757.849ZM757.849 132.161V124.387H766.863V132.161H757.849ZM757.849 139.935V132.161H766.863V139.935H757.849ZM757.849 147.71V139.935H766.863V147.71H757.849ZM748.834 147.71V139.935H757.849V147.71H748.834ZM748.834 139.935V132.161H757.849V139.935H748.834ZM748.834 132.161V124.387H757.849V132.161H748.834ZM757.849 108.839V101.065H766.863V108.839H757.849ZM757.849 101.065V93.2903H766.863V101.065H757.849ZM757.849 116.613V108.839H766.863V116.613H757.849ZM676.718 93.2903V85.5161H685.733V93.2903H676.718ZM667.704 93.2903V85.5161H676.718V93.2903H667.704ZM658.69 93.2903V85.5161H667.704V93.2903H658.69ZM649.675 93.2903V85.5161H658.69V93.2903H649.675ZM640.661 93.2903V85.5161H649.675V93.2903H640.661ZM640.661 85.5161V77.742H649.675V85.5161H640.661ZM649.675 85.5161V77.742H658.69V85.5161H649.675ZM658.69 85.5161V77.742H667.704V85.5161H658.69ZM667.704 85.5161V77.742H676.718V85.5161H667.704ZM676.718 85.5161V77.742H685.733V85.5161H676.718ZM685.733 85.5161V77.742H694.747V85.5161H685.733ZM685.733 77.742V69.9678H694.747V77.742H685.733ZM676.718 77.742V69.9678H685.733V77.742H676.718ZM667.704 77.742V69.9678H676.718V77.742H667.704ZM658.69 77.742V69.9678H667.704V77.742H658.69ZM658.69 69.9678V62.1936H667.704V69.9678H658.69ZM649.675 69.9678V62.1936H658.69V69.9678H649.675ZM649.675 77.742V69.9678H658.69V77.742H649.675ZM658.69 62.1936V54.4194H667.704V62.1936H658.69ZM667.704 62.1936V54.4194H676.718V62.1936H667.704ZM667.704 69.9678V62.1936H676.718V69.9678H667.704ZM676.718 69.9678V62.1936H685.733V69.9678H676.718ZM676.718 62.1936V54.4194H685.733V62.1936H676.718ZM676.718 54.4194V46.6452H685.733V54.4194H676.718ZM685.733 54.4194V46.6452H694.747V54.4194H685.733ZM694.747 54.4194V46.6452H703.762V54.4194H694.747ZM703.762 54.4194V46.6452H712.776V54.4194H703.762ZM712.776 54.4194V46.6452H721.791V54.4194H712.776ZM721.791 54.4194V46.6452H730.805V54.4194H721.791ZM730.805 54.4194V46.6452H739.82V54.4194H730.805ZM739.82 54.4194V46.6452H748.834V54.4194H739.82ZM730.805 62.1936V54.4194H739.82V62.1936H730.805ZM721.791 62.1936V54.4194H730.805V62.1936H721.791ZM712.776 62.1936V54.4194H721.791V62.1936H712.776ZM703.762 62.1936V54.4194H712.776V62.1936H703.762ZM694.747 62.1936V54.4194H703.762V62.1936H694.747ZM685.733 62.1936V54.4194H694.747V62.1936H685.733ZM685.733 69.9678V62.1936H694.747V69.9678H685.733ZM694.747 69.9678V62.1936H703.762V69.9678H694.747ZM703.762 69.9678V62.1936H712.776V69.9678H703.762ZM712.776 69.9678V62.1936H721.791V69.9678H712.776ZM721.791 69.9678V62.1936H730.805V69.9678H721.791ZM730.805 69.9678V62.1936H739.82V69.9678H730.805ZM739.82 62.1936V54.4194H748.834V62.1936H739.82ZM748.834 62.1936V54.4194H757.849V62.1936H748.834ZM757.849 62.1936V54.4194H766.863V62.1936H757.849ZM757.849 69.9678V62.1936H766.863V69.9678H757.849ZM766.863 69.9678V62.1936H775.878V69.9678H766.863ZM766.863 77.742V69.9678H775.878V77.742H766.863ZM757.849 77.742V69.9678H766.863V77.742H757.849ZM748.834 77.742V69.9678H757.849V77.742H748.834ZM739.82 77.742V69.9678H748.834V77.742H739.82ZM730.805 77.742V69.9678H739.82V77.742H730.805ZM721.791 77.742V69.9678H730.805V77.742H721.791ZM712.776 77.742V69.9678H721.791V77.742H712.776ZM703.762 77.742V69.9678H712.776V77.742H703.762ZM694.747 77.742V69.9678H703.762V77.742H694.747ZM739.82 69.9678V62.1936H748.834V69.9678H739.82ZM748.834 69.9678V62.1936H757.849V69.9678H748.834ZM649.675 139.935V132.161H658.69V139.935H649.675ZM658.69 139.935V132.161H667.704V139.935H658.69ZM667.704 139.935V132.161H676.718V139.935H667.704ZM676.718 139.935V132.161H685.733V139.935H676.718ZM658.69 132.161V124.387H667.704V132.161H658.69ZM667.704 132.161V124.387H676.718V132.161H667.704ZM685.733 132.161V124.387H694.747V132.161H685.733ZM694.747 132.161V124.387H703.762V132.161H694.747ZM703.762 132.161V124.387H712.776V132.161H703.762ZM712.776 132.161V124.387H721.791V132.161H712.776ZM721.791 132.161V124.387H730.805V132.161H721.791ZM730.805 132.161V124.387H739.82V132.161H730.805ZM676.718 132.161V124.387H685.733V132.161H676.718ZM649.675 132.161V124.387H658.69V132.161H649.675ZM658.69 124.387V116.613H667.704V124.387H658.69ZM667.704 124.387V116.613H676.718V124.387H667.704ZM676.718 124.387V116.613H685.733V124.387H676.718ZM685.733 124.387V116.613H694.747V124.387H685.733ZM694.747 124.387V116.613H703.762V124.387H694.747ZM703.762 124.387V116.613H712.776V124.387H703.762ZM712.776 124.387V116.613H721.791V124.387H712.776ZM721.791 124.387V116.613H730.805V124.387H721.791ZM730.805 124.387V116.613H739.82V124.387H730.805ZM730.805 116.613V108.839H739.82V116.613H730.805ZM721.791 116.613V108.839H730.805V116.613H721.791ZM712.776 116.613V108.839H721.791V116.613H712.776ZM694.747 116.613V108.839H703.762V116.613H694.747ZM685.733 116.613V108.839H694.747V116.613H685.733ZM676.718 116.613V108.839H685.733V116.613H676.718ZM703.762 116.613V108.839H712.776V116.613H703.762ZM784.892 163.258V171.032H775.878V163.258H784.892ZM784.892 171.032V178.806H775.878V171.032H784.892ZM784.892 178.806V186.581H775.878V178.806H784.892ZM784.892 186.581V194.355H775.878V186.581H784.892ZM775.878 186.581V194.355H766.863V186.581H775.878ZM775.878 178.806V186.581H766.863V178.806H775.878ZM766.863 186.581V194.355H757.849V186.581H766.863ZM757.849 186.581V194.355H748.834V186.581H757.849ZM748.834 186.581V194.355H739.82V186.581H748.834ZM739.82 155.484V163.258H730.805V155.484H739.82ZM676.718 186.581V194.355H667.704V186.581H676.718ZM694.747 132.161V139.935H685.733V132.161H694.747Z" fill="white"/>
<path d="M911.262 69.9678V77.742H902.247V69.9678H911.262ZM911.262 62.1936V69.9678H902.247V62.1936H911.262ZM911.262 54.4194V62.1936H902.247V54.4194H911.262ZM902.247 54.4194V62.1936H893.233V54.4194H902.247ZM902.247 46.6452V54.4194H893.233V46.6452H902.247ZM902.247 62.1936V69.9678H893.233V62.1936H902.247ZM893.233 62.1936V69.9678H884.218V62.1936H893.233ZM893.233 69.9678V77.742H884.218V69.9678H893.233ZM902.247 69.9678V77.742H893.233V69.9678H902.247ZM884.218 69.9678V77.742H875.204V69.9678H884.218ZM884.218 62.1936V69.9678H875.204V62.1936H884.218ZM884.218 54.4194V62.1936H875.204V54.4194H884.218ZM884.218 46.6452V54.4194H875.204V46.6452H884.218ZM893.233 46.6452V54.4194H884.218V46.6452H893.233ZM893.233 54.4194V62.1936H884.218V54.4194H893.233ZM875.204 46.6452V54.4194H866.19V46.6452H875.204ZM866.19 46.6452V54.4194H857.175V46.6452H866.19ZM857.175 46.6452V54.4194H848.161V46.6452H857.175ZM857.175 54.4194V62.1936H848.161V54.4194H857.175ZM857.175 62.1936V69.9678H848.161V62.1936H857.175ZM857.175 69.9678V77.742H848.161V69.9678H857.175ZM866.19 69.9678V77.742H857.175V69.9678H866.19ZM875.204 69.9678V77.742H866.19V69.9678H875.204ZM875.204 62.1936V69.9678H866.19V62.1936H875.204ZM875.204 54.4194V62.1936H866.19V54.4194H875.204ZM866.19 54.4194V62.1936H857.175V54.4194H866.19ZM866.19 62.1936V69.9678H857.175V62.1936H866.19ZM848.161 62.1936V69.9678H839.146V62.1936H848.161ZM848.161 54.4194V62.1936H839.146V54.4194H848.161ZM839.146 54.4194V62.1936H830.132V54.4194H839.146ZM839.146 62.1936V69.9678H830.132V62.1936H839.146ZM830.132 62.1936V69.9678H821.117V62.1936H830.132ZM830.132 69.9678V77.742H821.117V69.9678H830.132ZM830.132 77.742V85.5161H821.117V77.742H830.132ZM839.146 77.742V85.5161H830.132V77.742H839.146ZM839.146 69.9678V77.742H830.132V69.9678H839.146ZM848.161 69.9678V77.742H839.146V69.9678H848.161ZM848.161 77.742V85.5161H839.146V77.742H848.161ZM857.175 77.742V85.5161H848.161V77.742H857.175ZM866.19 77.742V85.5161H857.175V77.742H866.19ZM821.117 77.742V85.5161H812.103V77.742H821.117ZM821.117 85.5161V93.2903H812.103V85.5161H821.117ZM821.117 93.2903V101.065H812.103V93.2903H821.117ZM821.117 101.065V108.839H812.103V101.065H821.117ZM821.117 108.839V116.613H812.103V108.839H821.117ZM821.117 116.613V124.387H812.103V116.613H821.117ZM821.117 124.387V132.161H812.103V124.387H821.117ZM821.117 132.161V139.935H812.103V132.161H821.117ZM821.117 139.935V147.71H812.103V139.935H821.117ZM821.117 147.71V155.484H812.103V147.71H821.117ZM830.132 147.71V155.484H821.117V147.71H830.132ZM830.132 155.484V163.258H821.117V155.484H830.132ZM821.117 155.484V163.258H812.103V155.484H821.117ZM839.146 155.484V163.258H830.132V155.484H839.146ZM848.161 155.484V163.258H839.146V155.484H848.161ZM857.175 155.484V163.258H848.161V155.484H857.175ZM866.19 155.484V163.258H857.175V155.484H866.19ZM857.175 147.71V155.484H848.161V147.71H857.175ZM857.175 139.935V147.71H848.161V139.935H857.175ZM857.175 132.161V139.935H848.161V132.161H857.175ZM857.175 124.387V132.161H848.161V124.387H857.175ZM857.175 116.613V124.387H848.161V116.613H857.175ZM857.175 108.839V116.613H848.161V108.839H857.175ZM857.175 101.065V108.839H848.161V101.065H857.175ZM857.175 93.2903V101.065H848.161V93.2903H857.175ZM857.175 85.5161V93.2903H848.161V85.5161H857.175ZM848.161 85.5161V93.2903H839.146V85.5161H848.161ZM839.146 85.5161V93.2903H830.132V85.5161H839.146ZM830.132 85.5161V93.2903H821.117V85.5161H830.132ZM830.132 93.2903V101.065H821.117V93.2903H830.132ZM830.132 101.065V108.839H821.117V101.065H830.132ZM830.132 108.839V116.613H821.117V108.839H830.132ZM830.132 116.613V124.387H821.117V116.613H830.132ZM830.132 124.387V132.161H821.117V124.387H830.132ZM830.132 132.161V139.935H821.117V132.161H830.132ZM830.132 139.935V147.71H821.117V139.935H830.132ZM839.146 147.71V155.484H830.132V147.71H839.146ZM848.161 147.71V155.484H839.146V147.71H848.161ZM848.161 139.935V147.71H839.146V139.935H848.161ZM848.161 132.161V139.935H839.146V132.161H848.161ZM848.161 124.387V132.161H839.146V124.387H848.161ZM848.161 116.613V124.387H839.146V116.613H848.161ZM839.146 116.613V124.387H830.132V116.613H839.146ZM839.146 108.839V116.613H830.132V108.839H839.146ZM839.146 101.065V108.839H830.132V101.065H839.146ZM839.146 93.2903V101.065H830.132V93.2903H839.146ZM848.161 93.2903V101.065H839.146V93.2903H848.161ZM848.161 101.065V108.839H839.146V101.065H848.161ZM848.161 108.839V116.613H839.146V108.839H848.161ZM839.146 132.161V139.935H830.132V132.161H839.146ZM839.146 139.935V147.71H830.132V139.935H839.146ZM839.146 124.387V132.161H830.132V124.387H839.146ZM911.262 163.258V171.032H902.247V163.258H911.262ZM902.247 186.581V194.355H893.233V186.581H902.247ZM893.233 186.581V194.355H884.218V186.581H893.233ZM884.218 186.581V194.355H875.204V186.581H884.218ZM875.204 186.581V194.355H866.19V186.581H875.204ZM866.19 186.581V194.355H857.175V186.581H866.19ZM857.175 186.581V194.355H848.161V186.581H857.175ZM866.19 178.806V186.581H857.175V178.806H866.19ZM875.204 178.806V186.581H866.19V178.806H875.204ZM884.218 178.806V186.581H875.204V178.806H884.218ZM893.233 178.806V186.581H884.218V178.806H893.233ZM902.247 178.806V186.581H893.233V178.806H902.247ZM911.262 178.806V186.581H902.247V178.806H911.262ZM911.262 171.032V178.806H902.247V171.032H911.262ZM902.247 171.032V178.806H893.233V171.032H902.247ZM893.233 171.032V178.806H884.218V171.032H893.233ZM884.218 171.032V178.806H875.204V171.032H884.218ZM875.204 171.032V178.806H866.19V171.032H875.204ZM866.19 171.032V178.806H857.175V171.032H866.19ZM857.175 178.806V186.581H848.161V178.806H857.175ZM848.161 178.806V186.581H839.146V178.806H848.161ZM839.146 178.806V186.581H830.132V178.806H839.146ZM839.146 171.032V178.806H830.132V171.032H839.146ZM830.132 171.032V178.806H821.117V171.032H830.132ZM830.132 163.258V171.032H821.117V163.258H830.132ZM839.146 163.258V171.032H830.132V163.258H839.146ZM848.161 163.258V171.032H839.146V163.258H848.161ZM857.175 163.258V171.032H848.161V163.258H857.175ZM866.19 163.258V171.032H857.175V163.258H866.19ZM875.204 163.258V171.032H866.19V163.258H875.204ZM884.218 163.258V171.032H875.204V163.258H884.218ZM893.233 163.258V171.032H884.218V163.258H893.233ZM902.247 163.258V171.032H893.233V163.258H902.247ZM857.175 171.032V178.806H848.161V171.032H857.175ZM848.161 171.032V178.806H839.146V171.032H848.161ZM920.276 171.032V178.806H911.262V171.032H920.276ZM920.276 163.258V171.032H911.262V163.258H920.276ZM920.276 155.484V163.258H911.262V155.484H920.276ZM920.276 147.71V155.484H911.262V147.71H920.276ZM920.276 139.935V147.71H911.262V139.935H920.276ZM920.276 132.161V139.935H911.262V132.161H920.276ZM920.276 124.387V132.161H911.262V124.387H920.276ZM920.276 116.613V124.387H911.262V116.613H920.276ZM920.276 108.839V116.613H911.262V108.839H920.276ZM920.276 101.065V108.839H911.262V101.065H920.276ZM920.276 93.2903V101.065H911.262V93.2903H920.276ZM920.276 85.5161V93.2903H911.262V85.5161H920.276ZM920.276 77.742V85.5161H911.262V77.742H920.276ZM929.291 77.742V85.5161H920.276V77.742H929.291ZM929.291 85.5161V93.2903H920.276V85.5161H929.291ZM929.291 93.2903V101.065H920.276V93.2903H929.291ZM929.291 101.065V108.839H920.276V101.065H929.291ZM929.291 108.839V116.613H920.276V108.839H929.291ZM929.291 116.613V124.387H920.276V116.613H929.291ZM929.291 124.387V132.161H920.276V124.387H929.291ZM938.305 132.161V139.935H929.291V132.161H938.305ZM938.305 139.935V147.71H929.291V139.935H938.305ZM938.305 147.71V155.484H929.291V147.71H938.305ZM938.305 155.484V163.258H929.291V155.484H938.305ZM938.305 163.258V171.032H929.291V163.258H938.305ZM938.305 171.032V178.806H929.291V171.032H938.305ZM938.305 178.806V186.581H929.291V178.806H938.305ZM938.305 186.581V194.355H929.291V186.581H938.305ZM947.32 186.581V194.355H938.305V186.581H947.32ZM956.334 186.581V194.355H947.32V186.581H956.334ZM956.334 178.806V186.581H947.32V178.806H956.334ZM956.334 171.032V178.806H947.32V171.032H956.334ZM956.334 163.258V171.032H947.32V163.258H956.334ZM956.334 155.484V163.258H947.32V155.484H956.334ZM956.334 147.71V155.484H947.32V147.71H956.334ZM956.334 139.935V147.71H947.32V139.935H956.334ZM956.334 132.161V139.935H947.32V132.161H956.334ZM947.32 132.161V139.935H938.305V132.161H947.32ZM947.32 124.387V132.161H938.305V124.387H947.32ZM947.32 139.935V147.71H938.305V139.935H947.32ZM947.32 147.71V155.484H938.305V147.71H947.32ZM947.32 155.484V163.258H938.305V155.484H947.32ZM947.32 163.258V171.032H938.305V163.258H947.32ZM947.32 171.032V178.806H938.305V171.032H947.32ZM947.32 178.806V186.581H938.305V178.806H947.32ZM929.291 171.032V178.806H920.276V171.032H929.291ZM929.291 163.258V171.032H920.276V163.258H929.291ZM929.291 155.484V163.258H920.276V155.484H929.291ZM929.291 147.71V155.484H920.276V147.71H929.291ZM929.291 139.935V147.71H920.276V139.935H929.291ZM929.291 132.161V139.935H920.276V132.161H929.291ZM920.276 0V7.77421H911.262V0H920.276ZM920.276 7.77421V15.5484H911.262V7.77421H920.276ZM920.276 15.5484V23.3226H911.262V15.5484H920.276ZM920.276 23.3226V31.0968H911.262V23.3226H920.276ZM920.276 31.0968V38.871H911.262V31.0968H920.276ZM920.276 38.871V46.6452H911.262V38.871H920.276ZM920.276 54.4194V62.1936H911.262V54.4194H920.276ZM920.276 69.9678V77.742H911.262V69.9678H920.276ZM947.32 0V7.77421H938.305V0H947.32ZM947.32 7.77421V15.5484H938.305V7.77421H947.32ZM947.32 15.5484V23.3226H938.305V15.5484H947.32ZM947.32 23.3226V31.0968H938.305V23.3226H947.32ZM947.32 31.0968V38.871H938.305V31.0968H947.32ZM947.32 38.871V46.6452H938.305V38.871H947.32ZM947.32 54.4194V62.1936H938.305V54.4194H947.32ZM947.32 62.1936V69.9678H938.305V62.1936H947.32ZM947.32 69.9678V77.742H938.305V69.9678H947.32ZM947.32 85.5161V93.2903H938.305V85.5161H947.32ZM947.32 93.2903V101.065H938.305V93.2903H947.32ZM947.32 101.065V108.839H938.305V101.065H947.32ZM956.334 108.839V116.613H947.32V108.839H956.334ZM956.334 116.613V124.387H947.32V116.613H956.334ZM956.334 124.387V132.161H947.32V124.387H956.334ZM956.334 101.065V108.839H947.32V101.065H956.334ZM956.334 93.2903V101.065H947.32V93.2903H956.334ZM956.334 77.742V85.5161H947.32V77.742H956.334ZM956.334 69.9678V77.742H947.32V69.9678H956.334ZM956.334 62.1936V69.9678H947.32V62.1936H956.334ZM956.334 54.4194V62.1936H947.32V54.4194H956.334ZM956.334 46.6452V54.4194H947.32V46.6452H956.334ZM956.334 38.871V46.6452H947.32V38.871H956.334ZM956.334 31.0968V38.871H947.32V31.0968H956.334ZM947.32 46.6452V54.4194H938.305V46.6452H947.32ZM956.334 23.3226V31.0968H947.32V23.3226H956.334ZM956.334 15.5484V23.3226H947.32V15.5484H956.334ZM956.334 7.77421V15.5484H947.32V7.77421H956.334ZM956.334 0V7.77421H947.32V0H956.334ZM938.305 0V7.77421H929.291V0H938.305ZM929.291 0V7.77421H920.276V0H929.291ZM929.291 7.77421V15.5484H920.276V7.77421H929.291ZM938.305 7.77421V15.5484H929.291V7.77421H938.305ZM938.305 15.5484V23.3226H929.291V15.5484H938.305ZM938.305 23.3226V31.0968H929.291V23.3226H938.305ZM938.305 31.0968V38.871H929.291V31.0968H938.305ZM938.305 38.871V46.6452H929.291V38.871H938.305ZM938.305 46.6452V54.4194H929.291V46.6452H938.305ZM938.305 54.4194V62.1936H929.291V54.4194H938.305ZM929.291 62.1936V69.9678H920.276V62.1936H929.291ZM929.291 69.9678V77.742H920.276V69.9678H929.291ZM929.291 54.4194V62.1936H920.276V54.4194H929.291ZM929.291 46.6452V54.4194H920.276V46.6452H929.291ZM929.291 38.871V46.6452H920.276V38.871H929.291ZM929.291 31.0968V38.871H920.276V31.0968H929.291ZM929.291 23.3226V31.0968H920.276V23.3226H929.291ZM929.291 15.5484V23.3226H920.276V15.5484H929.291ZM938.305 69.9678V77.742H929.291V69.9678H938.305ZM938.305 85.5161V93.2903H929.291V85.5161H938.305ZM938.305 93.2903V101.065H929.291V93.2903H938.305ZM938.305 101.065V108.839H929.291V101.065H938.305ZM938.305 108.839V116.613H929.291V108.839H938.305ZM938.305 116.613V124.387H929.291V116.613H938.305ZM938.305 124.387V132.161H929.291V124.387H938.305ZM947.32 116.613V124.387H938.305V116.613H947.32ZM947.32 108.839V116.613H938.305V108.839H947.32ZM920.276 46.6452V54.4194H911.262V46.6452H920.276ZM956.334 85.5161V93.2903H947.32V85.5161H956.334ZM920.276 62.1936V69.9678H911.262V62.1936H920.276ZM938.305 62.1936V69.9678H929.291V62.1936H938.305ZM938.305 77.742V85.5161H929.291V77.742H938.305ZM947.32 77.742V85.5161H938.305V77.742H947.32ZM920.276 178.806V186.581H911.262V178.806H920.276ZM929.291 178.806V186.581H920.276V178.806H929.291ZM929.291 186.581V194.355H920.276V186.581H929.291ZM911.262 46.6452V54.4194H902.247V46.6452H911.262ZM911.262 155.484V163.258H902.247V155.484H911.262ZM920.276 186.581V194.355H911.262V186.581H920.276Z" fill="white"/>
<path d="M1001.57 186.581V194.355H992.559V186.581H1001.57ZM1001.57 178.806V186.581H992.559V178.806H1001.57ZM1001.57 171.032V178.806H992.559V171.032H1001.57ZM1001.57 163.258V171.032H992.559V163.258H1001.57ZM1001.57 155.484V163.258H992.559V155.484H1001.57ZM1001.57 147.71V155.484H992.559V147.71H1001.57ZM1001.57 139.935V147.71H992.559V139.935H1001.57ZM1001.57 132.161V139.935H992.559V132.161H1001.57ZM1001.57 124.387V132.161H992.559V124.387H1001.57ZM1001.57 116.613V124.387H992.559V116.613H1001.57ZM1001.57 108.839V116.613H992.559V108.839H1001.57ZM1001.57 101.065V108.839H992.559V101.065H1001.57ZM1001.57 93.2903V101.065H992.559V93.2903H1001.57ZM1001.57 85.5161V93.2903H992.559V85.5161H1001.57ZM1001.57 77.742V85.5161H992.559V77.742H1001.57ZM1010.59 77.742V85.5161H1001.57V77.742H1010.59ZM1010.59 85.5161V93.2903H1001.57V85.5161H1010.59ZM1010.59 93.2903V101.065H1001.57V93.2903H1010.59ZM1010.59 101.065V108.839H1001.57V101.065H1010.59ZM1010.59 108.839V116.613H1001.57V108.839H1010.59ZM1010.59 116.613V124.387H1001.57V116.613H1010.59ZM1010.59 124.387V132.161H1001.57V124.387H1010.59ZM1019.6 132.161V139.935H1010.59V132.161H1019.6ZM1019.6 139.935V147.71H1010.59V139.935H1019.6ZM1019.6 147.71V155.484H1010.59V147.71H1019.6ZM1019.6 155.484V163.258H1010.59V155.484H1019.6ZM1019.6 163.258V171.032H1010.59V163.258H1019.6ZM1019.6 171.032V178.806H1010.59V171.032H1019.6ZM1019.6 178.806V186.581H1010.59V178.806H1019.6ZM1019.6 186.581V194.355H1010.59V186.581H1019.6ZM1028.62 186.581V194.355H1019.6V186.581H1028.62ZM1037.63 186.581V194.355H1028.62V186.581H1037.63ZM1037.63 178.806V186.581H1028.62V178.806H1037.63ZM1037.63 171.032V178.806H1028.62V171.032H1037.63ZM1037.63 163.258V171.032H1028.62V163.258H1037.63ZM1037.63 155.484V163.258H1028.62V155.484H1037.63ZM1037.63 147.71V155.484H1028.62V147.71H1037.63ZM1037.63 139.935V147.71H1028.62V139.935H1037.63ZM1037.63 132.161V139.935H1028.62V132.161H1037.63ZM1028.62 132.161V139.935H1019.6V132.161H1028.62ZM1028.62 124.387V132.161H1019.6V124.387H1028.62ZM1028.62 139.935V147.71H1019.6V139.935H1028.62ZM1028.62 147.71V155.484H1019.6V147.71H1028.62ZM1028.62 155.484V163.258H1019.6V155.484H1028.62ZM1028.62 163.258V171.032H1019.6V163.258H1028.62ZM1028.62 171.032V178.806H1019.6V171.032H1028.62ZM1028.62 178.806V186.581H1019.6V178.806H1028.62ZM1010.59 186.581V194.355H1001.57V186.581H1010.59ZM1010.59 178.806V186.581H1001.57V178.806H1010.59ZM1010.59 171.032V178.806H1001.57V171.032H1010.59ZM1010.59 163.258V171.032H1001.57V163.258H1010.59ZM1010.59 155.484V163.258H1001.57V155.484H1010.59ZM1010.59 147.71V155.484H1001.57V147.71H1010.59ZM1010.59 139.935V147.71H1001.57V139.935H1010.59ZM1010.59 132.161V139.935H1001.57V132.161H1010.59ZM1001.57 0V7.77421H992.559V0H1001.57ZM1001.57 7.77421V15.5484H992.559V7.77421H1001.57ZM1001.57 15.5484V23.3226H992.559V15.5484H1001.57ZM1001.57 23.3226V31.0968H992.559V23.3226H1001.57ZM1001.57 31.0968V38.871H992.559V31.0968H1001.57ZM1001.57 38.871V46.6452H992.559V38.871H1001.57ZM1001.57 46.6452V54.4194H992.559V46.6452H1001.57ZM1001.57 54.4194V62.1936H992.559V54.4194H1001.57ZM1001.57 62.1936V69.9678H992.559V62.1936H1001.57ZM1001.57 69.9678V77.742H992.559V69.9678H1001.57ZM1028.62 0V7.77421H1019.6V0H1028.62ZM1028.62 7.77421V15.5484H1019.6V7.77421H1028.62ZM1028.62 15.5484V23.3226H1019.6V15.5484H1028.62ZM1028.62 23.3226V31.0968H1019.6V23.3226H1028.62ZM1028.62 31.0968V38.871H1019.6V31.0968H1028.62ZM1028.62 38.871V46.6452H1019.6V38.871H1028.62ZM1028.62 54.4194V62.1936H1019.6V54.4194H1028.62ZM1028.62 62.1936V69.9678H1019.6V62.1936H1028.62ZM1028.62 69.9678V77.742H1019.6V69.9678H1028.62ZM1028.62 77.742V85.5161H1019.6V77.742H1028.62ZM1028.62 85.5161V93.2903H1019.6V85.5161H1028.62ZM1028.62 93.2903V101.065H1019.6V93.2903H1028.62ZM1028.62 101.065V108.839H1019.6V101.065H1028.62ZM1037.63 108.839V116.613H1028.62V108.839H1037.63ZM1037.63 116.613V124.387H1028.62V116.613H1037.63ZM1037.63 124.387V132.161H1028.62V124.387H1037.63ZM1037.63 101.065V108.839H1028.62V101.065H1037.63ZM1037.63 93.2903V101.065H1028.62V93.2903H1037.63ZM1037.63 85.5161V93.2903H1028.62V85.5161H1037.63ZM1037.63 77.742V85.5161H1028.62V77.742H1037.63ZM1037.63 69.9678V77.742H1028.62V69.9678H1037.63ZM1037.63 62.1936V69.9678H1028.62V62.1936H1037.63ZM1037.63 54.4194V62.1936H1028.62V54.4194H1037.63ZM1037.63 46.6452V54.4194H1028.62V46.6452H1037.63ZM1037.63 38.871V46.6452H1028.62V38.871H1037.63ZM1037.63 31.0968V38.871H1028.62V31.0968H1037.63ZM1028.62 46.6452V54.4194H1019.6V46.6452H1028.62ZM1037.63 23.3226V31.0968H1028.62V23.3226H1037.63ZM1037.63 15.5484V23.3226H1028.62V15.5484H1037.63ZM1037.63 7.77421V15.5484H1028.62V7.77421H1037.63ZM1037.63 0V7.77421H1028.62V0H1037.63ZM1019.6 0V7.77421H1010.59V0H1019.6ZM1010.59 0V7.77421H1001.57V0H1010.59ZM1010.59 7.77421V15.5484H1001.57V7.77421H1010.59ZM1019.6 7.77421V15.5484H1010.59V7.77421H1019.6ZM1019.6 15.5484V23.3226H1010.59V15.5484H1019.6ZM1019.6 23.3226V31.0968H1010.59V23.3226H1019.6ZM1019.6 31.0968V38.871H1010.59V31.0968H1019.6ZM1019.6 38.871V46.6452H1010.59V38.871H1019.6ZM1019.6 46.6452V54.4194H1010.59V46.6452H1019.6ZM1019.6 54.4194V62.1936H1010.59V54.4194H1019.6ZM1010.59 62.1936V69.9678H1001.57V62.1936H1010.59ZM1010.59 69.9678V77.742H1001.57V69.9678H1010.59ZM1010.59 54.4194V62.1936H1001.57V54.4194H1010.59ZM1010.59 46.6452V54.4194H1001.57V46.6452H1010.59ZM1010.59 38.871V46.6452H1001.57V38.871H1010.59ZM1010.59 31.0968V38.871H1001.57V31.0968H1010.59ZM1010.59 23.3226V31.0968H1001.57V23.3226H1010.59ZM1010.59 15.5484V23.3226H1001.57V15.5484H1010.59ZM1019.6 62.1936V69.9678H1010.59V62.1936H1019.6ZM1019.6 69.9678V77.742H1010.59V69.9678H1019.6ZM1019.6 77.742V85.5161H1010.59V77.742H1019.6ZM1019.6 85.5161V93.2903H1010.59V85.5161H1019.6ZM1019.6 93.2903V101.065H1010.59V93.2903H1019.6ZM1019.6 101.065V108.839H1010.59V101.065H1019.6ZM1019.6 108.839V116.613H1010.59V108.839H1019.6ZM1019.6 116.613V124.387H1010.59V116.613H1019.6ZM1019.6 124.387V132.161H1010.59V124.387H1019.6ZM1028.62 116.613V124.387H1019.6V116.613H1028.62ZM1028.62 108.839V116.613H1019.6V108.839H1028.62Z" fill="white"/>
<path d="M1082.78 46.6452V54.4194H1073.77V46.6452H1082.78ZM1091.8 46.6452V54.4194H1082.78V46.6452H1091.8ZM1100.81 46.6452V54.4194H1091.8V46.6452H1100.81ZM1109.83 46.6452V54.4194H1100.81V46.6452H1109.83ZM1109.83 54.4194V62.1936H1100.81V54.4194H1109.83ZM1118.84 54.4194V62.1936H1109.83V54.4194H1118.84ZM1118.84 62.1936V69.9678H1109.83V62.1936H1118.84ZM1118.84 46.6452V54.4194H1109.83V46.6452H1118.84ZM1118.84 69.9678V77.742H1109.83V69.9678H1118.84ZM1118.84 77.742V85.5161H1109.83V77.742H1118.84ZM1118.84 85.5161V93.2903H1109.83V85.5161H1118.84ZM1118.84 93.2903V101.065H1109.83V93.2903H1118.84ZM1118.84 101.065V108.839H1109.83V101.065H1118.84ZM1118.84 108.839V116.613H1109.83V108.839H1118.84ZM1118.84 116.613V124.387H1109.83V116.613H1118.84ZM1118.84 124.387V132.161H1109.83V124.387H1118.84ZM1118.84 132.161V139.935H1109.83V132.161H1118.84ZM1109.83 132.161V139.935H1100.81V132.161H1109.83ZM1100.81 139.935V147.71H1091.8V139.935H1100.81ZM1091.8 139.935V147.71H1082.78V139.935H1091.8ZM1082.78 139.935V147.71H1073.77V139.935H1082.78ZM1082.78 132.161V139.935H1073.77V132.161H1082.78ZM1082.78 124.387V132.161H1073.77V124.387H1082.78ZM1082.78 116.613V124.387H1073.77V116.613H1082.78ZM1082.78 108.839V116.613H1073.77V108.839H1082.78ZM1091.8 108.839V116.613H1082.78V108.839H1091.8ZM1091.8 101.065V108.839H1082.78V101.065H1091.8ZM1091.8 93.2903V101.065H1082.78V93.2903H1091.8ZM1091.8 85.5161V93.2903H1082.78V85.5161H1091.8ZM1091.8 77.742V85.5161H1082.78V77.742H1091.8ZM1091.8 69.9678V77.742H1082.78V69.9678H1091.8ZM1091.8 62.1936V69.9678H1082.78V62.1936H1091.8ZM1091.8 54.4194V62.1936H1082.78V54.4194H1091.8ZM1082.78 54.4194V62.1936H1073.77V54.4194H1082.78ZM1082.78 62.1936V69.9678H1073.77V62.1936H1082.78ZM1082.78 69.9678V77.742H1073.77V69.9678H1082.78ZM1082.78 77.742V85.5161H1073.77V77.742H1082.78ZM1082.78 85.5161V93.2903H1073.77V85.5161H1082.78ZM1082.78 93.2903V101.065H1073.77V93.2903H1082.78ZM1082.78 101.065V108.839H1073.77V101.065H1082.78ZM1100.81 85.5161V93.2903H1091.8V85.5161H1100.81ZM1100.81 77.742V85.5161H1091.8V77.742H1100.81ZM1100.81 69.9678V77.742H1091.8V69.9678H1100.81ZM1100.81 62.1936V69.9678H1091.8V62.1936H1100.81ZM1100.81 54.4194V62.1936H1091.8V54.4194H1100.81ZM1109.83 85.5161V93.2903H1100.81V85.5161H1109.83ZM1109.83 93.2903V101.065H1100.81V93.2903H1109.83ZM1109.83 77.742V85.5161H1100.81V77.742H1109.83ZM1109.83 69.9678V77.742H1100.81V69.9678H1109.83ZM1109.83 62.1936V69.9678H1100.81V62.1936H1109.83ZM1100.81 108.839V116.613H1091.8V108.839H1100.81ZM1100.81 101.065V108.839H1091.8V101.065H1100.81ZM1100.81 93.2903V101.065H1091.8V93.2903H1100.81ZM1109.83 101.065V108.839H1100.81V101.065H1109.83ZM1109.83 108.839V116.613H1100.81V108.839H1109.83ZM1109.83 116.613V124.387H1100.81V116.613H1109.83ZM1100.81 124.387V132.161H1091.8V124.387H1100.81ZM1100.81 132.161V139.935H1091.8V132.161H1100.81ZM1100.81 116.613V124.387H1091.8V116.613H1100.81ZM1091.8 116.613V124.387H1082.78V116.613H1091.8ZM1091.8 124.387V132.161H1082.78V124.387H1091.8ZM1091.8 132.161V139.935H1082.78V132.161H1091.8ZM1109.83 124.387V132.161H1100.81V124.387H1109.83ZM1100.81 147.71V155.484H1091.8V147.71H1100.81ZM1091.8 147.71V155.484H1082.78V147.71H1091.8ZM1109.83 147.71V155.484H1100.81V147.71H1109.83ZM1109.83 139.935V147.71H1100.81V139.935H1109.83ZM1118.84 139.935V147.71H1109.83V139.935H1118.84ZM1127.86 139.935V147.71H1118.84V139.935H1127.86ZM1127.86 147.71V155.484H1118.84V147.71H1127.86ZM1118.84 147.71V155.484H1109.83V147.71H1118.84ZM1136.87 147.71V155.484H1127.86V147.71H1136.87ZM1100.81 155.484V163.258H1091.8V155.484H1100.81ZM1109.83 155.484V163.258H1100.81V155.484H1109.83ZM1118.84 155.484V163.258H1109.83V155.484H1118.84ZM1127.86 155.484V163.258H1118.84V155.484H1127.86ZM1136.87 155.484V163.258H1127.86V155.484H1136.87ZM1145.88 155.484V163.258H1136.87V155.484H1145.88ZM1154.9 155.484V163.258H1145.88V155.484H1154.9ZM1163.91 155.484V163.258H1154.9V155.484H1163.91ZM1172.93 155.484V163.258H1163.91V155.484H1172.93ZM1181.94 155.484V163.258H1172.93V155.484H1181.94ZM1190.96 155.484V163.258H1181.94V155.484H1190.96ZM1199.97 155.484V163.258H1190.96V155.484H1199.97ZM1190.96 147.71V155.484H1181.94V147.71H1190.96ZM1181.94 147.71V155.484H1172.93V147.71H1181.94ZM1172.93 147.71V155.484H1163.91V147.71H1172.93ZM1163.91 147.71V155.484H1154.9V147.71H1163.91ZM1172.93 139.935V147.71H1163.91V139.935H1172.93ZM1181.94 139.935V147.71H1172.93V139.935H1181.94ZM1190.96 139.935V147.71H1181.94V139.935H1190.96ZM1199.97 139.935V147.71H1190.96V139.935H1199.97ZM1208.99 139.935V147.71H1199.97V139.935H1208.99ZM1208.99 147.71V155.484H1199.97V147.71H1208.99ZM1199.97 147.71V155.484H1190.96V147.71H1199.97ZM1218 139.935V147.71H1208.99V139.935H1218ZM1136.87 186.581V194.355H1127.86V186.581H1136.87ZM1136.87 178.806V186.581H1127.86V178.806H1136.87ZM1136.87 171.032V178.806H1127.86V171.032H1136.87ZM1145.88 171.032V178.806H1136.87V171.032H1145.88ZM1145.88 163.258V171.032H1136.87V163.258H1145.88ZM1154.9 163.258V171.032H1145.88V163.258H1154.9ZM1163.91 163.258V171.032H1154.9V163.258H1163.91ZM1163.91 171.032V178.806H1154.9V171.032H1163.91ZM1163.91 178.806V186.581H1154.9V178.806H1163.91ZM1163.91 186.581V194.355H1154.9V186.581H1163.91ZM1154.9 186.581V194.355H1145.88V186.581H1154.9ZM1145.88 186.581V194.355H1136.87V186.581H1145.88ZM1145.88 178.806V186.581H1136.87V178.806H1145.88ZM1154.9 171.032V178.806H1145.88V171.032H1154.9ZM1154.9 178.806V186.581H1145.88V178.806H1154.9ZM1172.93 171.032V178.806H1163.91V171.032H1172.93ZM1172.93 163.258V171.032H1163.91V163.258H1172.93ZM1181.94 163.258V171.032H1172.93V163.258H1181.94ZM1190.96 163.258V171.032H1181.94V163.258H1190.96ZM1181.94 171.032V178.806H1172.93V171.032H1181.94ZM1172.93 178.806V186.581H1163.91V178.806H1172.93ZM1109.83 163.258V171.032H1100.81V163.258H1109.83ZM1118.84 163.258V171.032H1109.83V163.258H1118.84ZM1118.84 171.032V178.806H1109.83V171.032H1118.84ZM1127.86 171.032V178.806H1118.84V171.032H1127.86ZM1127.86 178.806V186.581H1118.84V178.806H1127.86ZM1136.87 163.258V171.032H1127.86V163.258H1136.87ZM1127.86 163.258V171.032H1118.84V163.258H1127.86ZM1181.94 132.161V139.935H1172.93V132.161H1181.94ZM1181.94 124.387V132.161H1172.93V124.387H1181.94ZM1181.94 116.613V124.387H1172.93V116.613H1181.94ZM1181.94 108.839V116.613H1172.93V108.839H1181.94ZM1190.96 108.839V116.613H1181.94V108.839H1190.96ZM1199.97 108.839V116.613H1190.96V108.839H1199.97ZM1208.99 108.839V116.613H1199.97V108.839H1208.99ZM1218 108.839V116.613H1208.99V108.839H1218ZM1218 116.613V124.387H1208.99V116.613H1218ZM1218 124.387V132.161H1208.99V124.387H1218ZM1218 132.161V139.935H1208.99V132.161H1218ZM1208.99 132.161V139.935H1199.97V132.161H1208.99ZM1199.97 132.161V139.935H1190.96V132.161H1199.97ZM1190.96 132.161V139.935H1181.94V132.161H1190.96ZM1199.97 124.387V132.161H1190.96V124.387H1199.97ZM1208.99 124.387V132.161H1199.97V124.387H1208.99ZM1208.99 116.613V124.387H1199.97V116.613H1208.99ZM1199.97 116.613V124.387H1190.96V116.613H1199.97ZM1190.96 116.613V124.387H1181.94V116.613H1190.96ZM1190.96 124.387V132.161H1181.94V124.387H1190.96ZM1181.94 101.065V108.839H1172.93V101.065H1181.94ZM1181.94 93.2903V101.065H1172.93V93.2903H1181.94ZM1181.94 85.5161V93.2903H1172.93V85.5161H1181.94ZM1181.94 77.742V85.5161H1172.93V77.742H1181.94ZM1181.94 69.9678V77.742H1172.93V69.9678H1181.94ZM1181.94 62.1936V69.9678H1172.93V62.1936H1181.94ZM1181.94 54.4194V62.1936H1172.93V54.4194H1181.94ZM1181.94 46.6452V54.4194H1172.93V46.6452H1181.94ZM1190.96 54.4194V62.1936H1181.94V54.4194H1190.96ZM1190.96 46.6452V54.4194H1181.94V46.6452H1190.96ZM1199.97 46.6452V54.4194H1190.96V46.6452H1199.97ZM1208.99 46.6452V54.4194H1199.97V46.6452H1208.99ZM1208.99 54.4194V62.1936H1199.97V54.4194H1208.99ZM1208.99 62.1936V69.9678H1199.97V62.1936H1208.99ZM1218 62.1936V69.9678H1208.99V62.1936H1218ZM1218 69.9678V77.742H1208.99V69.9678H1218ZM1218 77.742V85.5161H1208.99V77.742H1218ZM1218 85.5161V93.2903H1208.99V85.5161H1218ZM1218 93.2903V101.065H1208.99V93.2903H1218ZM1218 101.065V108.839H1208.99V101.065H1218ZM1218 54.4194V62.1936H1208.99V54.4194H1218ZM1218 46.6452V54.4194H1208.99V46.6452H1218ZM1199.97 54.4194V62.1936H1190.96V54.4194H1199.97ZM1199.97 62.1936V69.9678H1190.96V62.1936H1199.97ZM1199.97 69.9678V77.742H1190.96V69.9678H1199.97ZM1199.97 77.742V85.5161H1190.96V77.742H1199.97ZM1199.97 85.5161V93.2903H1190.96V85.5161H1199.97ZM1199.97 93.2903V101.065H1190.96V93.2903H1199.97ZM1190.96 93.2903V101.065H1181.94V93.2903H1190.96ZM1190.96 101.065V108.839H1181.94V101.065H1190.96ZM1190.96 85.5161V93.2903H1181.94V85.5161H1190.96ZM1190.96 77.742V85.5161H1181.94V77.742H1190.96ZM1190.96 69.9678V77.742H1181.94V69.9678H1190.96ZM1190.96 62.1936V69.9678H1181.94V62.1936H1190.96ZM1208.99 69.9678V77.742H1199.97V69.9678H1208.99ZM1208.99 77.742V85.5161H1199.97V77.742H1208.99ZM1208.99 85.5161V93.2903H1199.97V85.5161H1208.99ZM1208.99 93.2903V101.065H1199.97V93.2903H1208.99ZM1208.99 101.065V108.839H1199.97V101.065H1208.99ZM1199.97 101.065V108.839H1190.96V101.065H1199.97ZM1118.84 186.581V194.355H1109.83V186.581H1118.84ZM1127.86 186.581V194.355H1118.84V186.581H1127.86ZM1136.87 194.355V202.129H1127.86V194.355H1136.87ZM1145.88 194.355V202.129H1136.87V194.355H1145.88ZM1154.9 194.355V202.129H1145.88V194.355H1154.9ZM1127.86 194.355V202.129H1118.84V194.355H1127.86ZM1118.84 194.355V202.129H1109.83V194.355H1118.84ZM1109.83 194.355V202.129H1100.81V194.355H1109.83ZM1109.83 202.129V209.903H1100.81V202.129H1109.83ZM1100.81 202.129V209.903H1091.8V202.129H1100.81ZM1100.81 209.903V217.677H1091.8V209.903H1100.81ZM1091.8 209.903V217.677H1082.78V209.903H1091.8ZM1091.8 217.677V225.452H1082.78V217.677H1091.8ZM1091.8 225.452V233.226H1082.78V225.452H1091.8ZM1091.8 233.226V241H1082.78V233.226H1091.8ZM1100.81 233.226V241H1091.8V233.226H1100.81ZM1109.83 233.226V241H1100.81V233.226H1109.83ZM1109.83 225.452V233.226H1100.81V225.452H1109.83ZM1109.83 217.677V225.452H1100.81V217.677H1109.83ZM1100.81 217.677V225.452H1091.8V217.677H1100.81ZM1100.81 225.452V233.226H1091.8V225.452H1100.81ZM1118.84 217.677V225.452H1109.83V217.677H1118.84ZM1118.84 225.452V233.226H1109.83V225.452H1118.84ZM1127.86 217.677V225.452H1118.84V217.677H1127.86ZM1127.86 209.903V217.677H1118.84V209.903H1127.86ZM1136.87 209.903V217.677H1127.86V209.903H1136.87ZM1136.87 202.129V209.903H1127.86V202.129H1136.87ZM1145.88 202.129V209.903H1136.87V202.129H1145.88ZM1127.86 202.129V209.903H1118.84V202.129H1127.86ZM1118.84 202.129V209.903H1109.83V202.129H1118.84ZM1118.84 209.903V217.677H1109.83V209.903H1118.84ZM1109.83 209.903V217.677H1100.81V209.903H1109.83Z" fill="white"/>
</svg>
