<svg width="55" height="13" viewBox="0 0 55 13" fill="none" xmlns="http://www.w3.org/2000/svg">
<path d="M2.44234 10.0645V10.4839H2.03529V10.0645H2.44234ZM2.44234 9.64516V10.0645H2.03529V9.64516H2.44234ZM2.44234 9.22581V9.64516H2.03529V9.22581H2.44234ZM2.44234 8.80645V9.22581H2.03529V8.80645H2.44234ZM2.44234 8.3871V8.80645H2.03529V8.3871H2.44234ZM2.44234 7.96774V8.3871H2.03529V7.96774H2.44234ZM2.44234 7.54839V7.96774H2.03529V7.54839H2.44234ZM2.44234 7.12903V7.54839H2.03529V7.12903H2.44234ZM2.44234 6.70968V7.12903H2.03529V6.70968H2.44234ZM2.44234 6.29032V6.70968H2.03529V6.29032H2.44234ZM2.44234 5.87097V6.29032H2.03529V5.87097H2.44234ZM2.44234 5.45161V5.87097H2.03529V5.45161H2.44234ZM2.44234 5.03226V5.45161H2.03529V5.03226H2.44234ZM2.44234 4.6129V5.03226H2.03529V4.6129H2.44234ZM2.44234 4.19355V4.6129H2.03529V4.19355H2.44234ZM2.8494 4.19355V4.6129H2.44234V4.19355H2.8494ZM2.8494 4.6129V5.03226H2.44234V4.6129H2.8494ZM2.8494 5.03226V5.45161H2.44234V5.03226H2.8494ZM2.8494 5.45161V5.87097H2.44234V5.45161H2.8494ZM2.8494 5.87097V6.29032H2.44234V5.87097H2.8494ZM2.8494 6.29032V6.70968H2.44234V6.29032H2.8494ZM2.8494 6.70968V7.12903H2.44234V6.70968H2.8494ZM3.25646 7.12903V7.54839H2.8494V7.12903H3.25646ZM3.25646 7.54839V7.96774H2.8494V7.54839H3.25646ZM3.25646 7.96774V8.3871H2.8494V7.96774H3.25646ZM3.25646 8.3871V8.80645H2.8494V8.3871H3.25646ZM3.25646 8.80645V9.22581H2.8494V8.80645H3.25646ZM3.25646 9.22581V9.64516H2.8494V9.22581H3.25646ZM3.25646 9.64516V10.0645H2.8494V9.64516H3.25646ZM3.25646 10.0645V10.4839H2.8494V10.0645H3.25646ZM3.66351 10.0645V10.4839H3.25646V10.0645H3.66351ZM4.07057 10.0645V10.4839H3.66351V10.0645H4.07057ZM4.07057 9.64516V10.0645H3.66351V9.64516H4.07057ZM4.07057 9.22581V9.64516H3.66351V9.22581H4.07057ZM4.07057 8.80645V9.22581H3.66351V8.80645H4.07057ZM4.07057 8.3871V8.80645H3.66351V8.3871H4.07057ZM4.07057 7.96774V8.3871H3.66351V7.96774H4.07057ZM4.07057 7.54839V7.96774H3.66351V7.54839H4.07057ZM4.07057 7.12903V7.54839H3.66351V7.12903H4.07057ZM3.66351 7.12903V7.54839H3.25646V7.12903H3.66351ZM3.66351 6.70968V7.12903H3.25646V6.70968H3.66351ZM3.66351 7.54839V7.96774H3.25646V7.54839H3.66351ZM3.66351 7.96774V8.3871H3.25646V7.96774H3.66351ZM3.66351 8.3871V8.80645H3.25646V8.3871H3.66351ZM3.66351 8.80645V9.22581H3.25646V8.80645H3.66351ZM3.66351 9.22581V9.64516H3.25646V9.22581H3.66351ZM3.66351 9.64516V10.0645H3.25646V9.64516H3.66351ZM2.8494 10.0645V10.4839H2.44234V10.0645H2.8494ZM2.8494 9.64516V10.0645H2.44234V9.64516H2.8494ZM2.8494 9.22581V9.64516H2.44234V9.22581H2.8494ZM2.8494 8.80645V9.22581H2.44234V8.80645H2.8494ZM2.8494 8.3871V8.80645H2.44234V8.3871H2.8494ZM2.8494 7.96774V8.3871H2.44234V7.96774H2.8494ZM2.8494 7.54839V7.96774H2.44234V7.54839H2.8494ZM2.8494 7.12903V7.54839H2.44234V7.12903H2.8494ZM2.44234 0V0.419355H2.03529V0H2.44234ZM2.44234 0.419355V0.83871H2.03529V0.419355H2.44234ZM2.44234 0.83871V1.25807H2.03529V0.83871H2.44234ZM2.44234 1.25807V1.67742H2.03529V1.25807H2.44234ZM2.44234 1.67742V2.09677H2.03529V1.67742H2.44234ZM2.44234 2.09677V2.51613H2.03529V2.09677H2.44234ZM2.44234 2.51613V2.93548H2.03529V2.51613H2.44234ZM2.44234 2.93548V3.35484H2.03529V2.93548H2.44234ZM2.44234 3.35484V3.77419H2.03529V3.35484H2.44234ZM2.44234 3.77419V4.19355H2.03529V3.77419H2.44234ZM3.66351 0V0.419355H3.25646V0H3.66351ZM3.66351 0.419355V0.83871H3.25646V0.419355H3.66351ZM3.66351 0.83871V1.25807H3.25646V0.83871H3.66351ZM3.66351 1.25807V1.67742H3.25646V1.25807H3.66351ZM3.66351 1.67742V2.09677H3.25646V1.67742H3.66351ZM3.66351 2.09677V2.51613H3.25646V2.09677H3.66351ZM3.66351 2.93548V3.35484H3.25646V2.93548H3.66351ZM3.66351 3.35484V3.77419H3.25646V3.35484H3.66351ZM3.66351 3.77419V4.19355H3.25646V3.77419H3.66351ZM3.66351 4.19355V4.6129H3.25646V4.19355H3.66351ZM3.66351 4.6129V5.03226H3.25646V4.6129H3.66351ZM3.66351 5.03226V5.45161H3.25646V5.03226H3.66351ZM3.66351 5.45161V5.87097H3.25646V5.45161H3.66351ZM4.07057 5.87097V6.29032H3.66351V5.87097H4.07057ZM4.07057 6.29032V6.70968H3.66351V6.29032H4.07057ZM4.07057 6.70968V7.12903H3.66351V6.70968H4.07057ZM4.07057 5.45161V5.87097H3.66351V5.45161H4.07057ZM4.07057 5.03226V5.45161H3.66351V5.03226H4.07057ZM4.07057 4.6129V5.03226H3.66351V4.6129H4.07057ZM4.07057 4.19355V4.6129H3.66351V4.19355H4.07057ZM4.07057 3.77419V4.19355H3.66351V3.77419H4.07057ZM4.07057 3.35484V3.77419H3.66351V3.35484H4.07057ZM4.07057 2.93548V3.35484H3.66351V2.93548H4.07057ZM4.07057 2.51613V2.93548H3.66351V2.51613H4.07057ZM4.07057 2.09677V2.51613H3.66351V2.09677H4.07057ZM4.07057 1.67742V2.09677H3.66351V1.67742H4.07057ZM3.66351 2.51613V2.93548H3.25646V2.51613H3.66351ZM4.07057 1.25807V1.67742H3.66351V1.25807H4.07057ZM4.07057 0.83871V1.25807H3.66351V0.83871H4.07057ZM4.07057 0.419355V0.83871H3.66351V0.419355H4.07057ZM4.07057 0V0.419355H3.66351V0H4.07057ZM3.25646 0V0.419355H2.8494V0H3.25646ZM2.8494 0V0.419355H2.44234V0H2.8494ZM2.8494 0.419355V0.83871H2.44234V0.419355H2.8494ZM3.25646 0.419355V0.83871H2.8494V0.419355H3.25646ZM3.25646 0.83871V1.25807H2.8494V0.83871H3.25646ZM3.25646 1.25807V1.67742H2.8494V1.25807H3.25646ZM3.25646 1.67742V2.09677H2.8494V1.67742H3.25646ZM3.25646 2.09677V2.51613H2.8494V2.09677H3.25646ZM3.25646 2.51613V2.93548H2.8494V2.51613H3.25646ZM3.25646 2.93548V3.35484H2.8494V2.93548H3.25646ZM2.8494 3.35484V3.77419H2.44234V3.35484H2.8494ZM2.8494 3.77419V4.19355H2.44234V3.77419H2.8494ZM2.8494 2.93548V3.35484H2.44234V2.93548H2.8494ZM2.8494 2.51613V2.93548H2.44234V2.51613H2.8494ZM2.8494 2.09677V2.51613H2.44234V2.09677H2.8494ZM2.8494 1.67742V2.09677H2.44234V1.67742H2.8494ZM2.8494 1.25807V1.67742H2.44234V1.25807H2.8494ZM2.8494 0.83871V1.25807H2.44234V0.83871H2.8494ZM3.25646 3.35484V3.77419H2.8494V3.35484H3.25646ZM3.25646 3.77419V4.19355H2.8494V3.77419H3.25646ZM3.25646 4.19355V4.6129H2.8494V4.19355H3.25646ZM3.25646 4.6129V5.03226H2.8494V4.6129H3.25646ZM3.25646 5.03226V5.45161H2.8494V5.03226H3.25646ZM3.25646 5.45161V5.87097H2.8494V5.45161H3.25646ZM3.25646 5.87097V6.29032H2.8494V5.87097H3.25646ZM3.25646 6.29032V6.70968H2.8494V6.29032H3.25646ZM3.25646 6.70968V7.12903H2.8494V6.70968H3.25646ZM3.66351 6.29032V6.70968H3.25646V6.29032H3.66351ZM3.66351 5.87097V6.29032H3.25646V5.87097H3.66351ZM2.03529 0V0.419355H1.62823V0H2.03529ZM1.62823 0V0.419355H1.22117V0H1.62823ZM1.22117 0V0.419355H0.814114V0H1.22117ZM0.814114 0V0.419355H0.407057V0H0.814114ZM0.407057 0V0.419355H0V0H0.407057ZM0.407057 0.419355V0.83871H0V0.419355H0.407057ZM0.407057 0.83871V1.25807H0V0.83871H0.407057ZM0.814114 0.419355V0.83871H0.407057V0.419355H0.814114ZM1.22117 0.419355V0.83871H0.814114V0.419355H1.22117ZM1.62823 0.419355V0.83871H1.22117V0.419355H1.62823ZM2.03529 0.83871V1.25807H1.62823V0.83871H2.03529ZM2.03529 0.419355V0.83871H1.62823V0.419355H2.03529ZM1.62823 0.83871V1.25807H1.22117V0.83871H1.62823ZM1.22117 0.83871V1.25807H0.814114V0.83871H1.22117ZM0.814114 0.83871V1.25807H0.407057V0.83871H0.814114ZM4.47763 0V0.419355H4.07057V0H4.47763ZM4.88468 0V0.419355H4.47763V0H4.88468ZM5.29174 0V0.419355H4.88468V0H5.29174ZM5.6988 0V0.419355H5.29174V0H5.6988ZM6.10586 0V0.419355H5.6988V0H6.10586ZM6.10586 0.419355V0.83871H5.6988V0.419355H6.10586ZM5.6988 0.419355V0.83871H5.29174V0.419355H5.6988ZM5.29174 0.419355V0.83871H4.88468V0.419355H5.29174ZM4.88468 0.419355V0.83871H4.47763V0.419355H4.88468ZM4.47763 0.419355V0.83871H4.07057V0.419355H4.47763ZM4.47763 0.83871V1.25807H4.07057V0.83871H4.47763ZM4.88468 0.83871V1.25807H4.47763V0.83871H4.88468ZM5.29174 0.83871V1.25807H4.88468V0.83871H5.29174ZM5.6988 0.83871V1.25807H5.29174V0.83871H5.6988ZM6.10586 0.83871V1.25807H5.6988V0.83871H6.10586ZM0.407057 1.25807V1.67742H0V1.25807H0.407057ZM0.407057 1.67742V2.09677H0V1.67742H0.407057ZM0.814114 1.67742V2.09677H0.407057V1.67742H0.814114ZM1.22117 1.67742V2.09677H0.814114V1.67742H1.22117ZM1.62823 1.67742V2.09677H1.22117V1.67742H1.62823ZM2.03529 1.67742V2.09677H1.62823V1.67742H2.03529ZM2.03529 1.25807V1.67742H1.62823V1.25807H2.03529ZM1.62823 1.25807V1.67742H1.22117V1.25807H1.62823ZM1.22117 1.25807V1.67742H0.814114V1.25807H1.22117ZM0.814114 1.25807V1.67742H0.407057V1.25807H0.814114ZM6.10586 1.25807V1.67742H5.6988V1.25807H6.10586ZM6.10586 1.67742V2.09677H5.6988V1.67742H6.10586ZM5.6988 1.67742V2.09677H5.29174V1.67742H5.6988ZM5.29174 1.67742V2.09677H4.88468V1.67742H5.29174ZM4.88468 1.67742V2.09677H4.47763V1.67742H4.88468ZM4.47763 1.67742V2.09677H4.07057V1.67742H4.47763ZM4.47763 1.25807V1.67742H4.07057V1.25807H4.47763ZM4.88468 1.25807V1.67742H4.47763V1.25807H4.88468ZM5.29174 1.25807V1.67742H4.88468V1.25807H5.29174ZM5.6988 1.25807V1.67742H5.29174V1.25807H5.6988Z" fill="white"/>
<path d="M8.14869 10.0645V10.4839H7.74164V10.0645H8.14869ZM8.14869 9.64516V10.0645H7.74164V9.64516H8.14869ZM8.14869 9.22581V9.64516H7.74164V9.22581H8.14869ZM8.14869 8.80645V9.22581H7.74164V8.80645H8.14869ZM8.14869 8.3871V8.80645H7.74164V8.3871H8.14869ZM8.14869 7.96774V8.3871H7.74164V7.96774H8.14869ZM8.14869 7.54839V7.96774H7.74164V7.54839H8.14869ZM8.14869 7.12903V7.54839H7.74164V7.12903H8.14869ZM8.14869 6.70968V7.12903H7.74164V6.70968H8.14869ZM8.14869 6.29032V6.70968H7.74164V6.29032H8.14869ZM8.14869 5.87097V6.29032H7.74164V5.87097H8.14869ZM8.14869 5.45161V5.87097H7.74164V5.45161H8.14869ZM8.14869 5.03226V5.45161H7.74164V5.03226H8.14869ZM8.14869 4.6129V5.03226H7.74164V4.6129H8.14869ZM8.14869 4.19355V4.6129H7.74164V4.19355H8.14869ZM8.55575 4.19355V4.6129H8.14869V4.19355H8.55575ZM8.55575 4.6129V5.03226H8.14869V4.6129H8.55575ZM8.55575 5.03226V5.45161H8.14869V5.03226H8.55575ZM8.55575 5.45161V5.87097H8.14869V5.45161H8.55575ZM8.55575 5.87097V6.29032H8.14869V5.87097H8.55575ZM8.55575 6.29032V6.70968H8.14869V6.29032H8.55575ZM8.55575 6.70968V7.12903H8.14869V6.70968H8.55575ZM8.96281 7.12903V7.54839H8.55575V7.12903H8.96281ZM8.96281 7.54839V7.96774H8.55575V7.54839H8.96281ZM8.96281 7.96774V8.3871H8.55575V7.96774H8.96281ZM8.96281 8.3871V8.80645H8.55575V8.3871H8.96281ZM8.96281 8.80645V9.22581H8.55575V8.80645H8.96281ZM8.96281 9.22581V9.64516H8.55575V9.22581H8.96281ZM8.96281 9.64516V10.0645H8.55575V9.64516H8.96281ZM8.96281 10.0645V10.4839H8.55575V10.0645H8.96281ZM9.36986 10.0645V10.4839H8.96281V10.0645H9.36986ZM9.77692 10.0645V10.4839H9.36986V10.0645H9.77692ZM9.77692 9.64516V10.0645H9.36986V9.64516H9.77692ZM9.77692 9.22581V9.64516H9.36986V9.22581H9.77692ZM9.77692 8.80645V9.22581H9.36986V8.80645H9.77692ZM9.77692 8.3871V8.80645H9.36986V8.3871H9.77692ZM9.77692 7.96774V8.3871H9.36986V7.96774H9.77692ZM9.77692 7.54839V7.96774H9.36986V7.54839H9.77692ZM9.77692 7.12903V7.54839H9.36986V7.12903H9.77692ZM9.36986 7.12903V7.54839H8.96281V7.12903H9.36986ZM9.36986 6.70968V7.12903H8.96281V6.70968H9.36986ZM9.36986 7.54839V7.96774H8.96281V7.54839H9.36986ZM9.36986 7.96774V8.3871H8.96281V7.96774H9.36986ZM9.36986 8.3871V8.80645H8.96281V8.3871H9.36986ZM9.36986 8.80645V9.22581H8.96281V8.80645H9.36986ZM9.36986 9.22581V9.64516H8.96281V9.22581H9.36986ZM9.36986 9.64516V10.0645H8.96281V9.64516H9.36986ZM8.55575 10.0645V10.4839H8.14869V10.0645H8.55575ZM8.55575 9.64516V10.0645H8.14869V9.64516H8.55575ZM8.55575 9.22581V9.64516H8.14869V9.22581H8.55575ZM8.55575 8.80645V9.22581H8.14869V8.80645H8.55575ZM8.55575 8.3871V8.80645H8.14869V8.3871H8.55575ZM8.55575 7.96774V8.3871H8.14869V7.96774H8.55575ZM8.55575 7.54839V7.96774H8.14869V7.54839H8.55575ZM8.55575 7.12903V7.54839H8.14869V7.12903H8.55575ZM8.14869 0V0.419355H7.74164V0H8.14869ZM8.14869 0.419355V0.83871H7.74164V0.419355H8.14869ZM8.14869 0.83871V1.25807H7.74164V0.83871H8.14869ZM8.14869 1.25807V1.67742H7.74164V1.25807H8.14869ZM8.14869 1.67742V2.09677H7.74164V1.67742H8.14869ZM8.14869 2.09677V2.51613H7.74164V2.09677H8.14869ZM8.14869 2.51613V2.93548H7.74164V2.51613H8.14869ZM8.14869 2.93548V3.35484H7.74164V2.93548H8.14869ZM8.14869 3.35484V3.77419H7.74164V3.35484H8.14869ZM8.14869 3.77419V4.19355H7.74164V3.77419H8.14869ZM9.36986 0V0.419355H8.96281V0H9.36986ZM9.36986 0.419355V0.83871H8.96281V0.419355H9.36986ZM9.36986 0.83871V1.25807H8.96281V0.83871H9.36986ZM9.36986 1.25807V1.67742H8.96281V1.25807H9.36986ZM9.36986 1.67742V2.09677H8.96281V1.67742H9.36986ZM9.36986 2.09677V2.51613H8.96281V2.09677H9.36986ZM9.36986 2.93548V3.35484H8.96281V2.93548H9.36986ZM9.36986 3.35484V3.77419H8.96281V3.35484H9.36986ZM9.36986 3.77419V4.19355H8.96281V3.77419H9.36986ZM9.36986 4.19355V4.6129H8.96281V4.19355H9.36986ZM9.36986 4.6129V5.03226H8.96281V4.6129H9.36986ZM9.36986 5.03226V5.45161H8.96281V5.03226H9.36986ZM9.36986 5.45161V5.87097H8.96281V5.45161H9.36986ZM9.77692 5.87097V6.29032H9.36986V5.87097H9.77692ZM9.77692 6.29032V6.70968H9.36986V6.29032H9.77692ZM9.77692 6.70968V7.12903H9.36986V6.70968H9.77692ZM9.77692 5.45161V5.87097H9.36986V5.45161H9.77692ZM9.77692 5.03226V5.45161H9.36986V5.03226H9.77692ZM9.77692 4.6129V5.03226H9.36986V4.6129H9.77692ZM9.77692 4.19355V4.6129H9.36986V4.19355H9.77692ZM9.77692 3.77419V4.19355H9.36986V3.77419H9.77692ZM9.77692 3.35484V3.77419H9.36986V3.35484H9.77692ZM9.77692 2.93548V3.35484H9.36986V2.93548H9.77692ZM9.77692 2.51613V2.93548H9.36986V2.51613H9.77692ZM9.77692 2.09677V2.51613H9.36986V2.09677H9.77692ZM9.77692 1.67742V2.09677H9.36986V1.67742H9.77692ZM9.36986 2.51613V2.93548H8.96281V2.51613H9.36986ZM9.77692 1.25807V1.67742H9.36986V1.25807H9.77692ZM9.77692 0.83871V1.25807H9.36986V0.83871H9.77692ZM9.77692 0.419355V0.83871H9.36986V0.419355H9.77692ZM9.77692 0V0.419355H9.36986V0H9.77692ZM8.96281 0V0.419355H8.55575V0H8.96281ZM8.55575 0V0.419355H8.14869V0H8.55575ZM8.55575 0.419355V0.83871H8.14869V0.419355H8.55575ZM8.96281 0.419355V0.83871H8.55575V0.419355H8.96281ZM8.96281 0.83871V1.25807H8.55575V0.83871H8.96281ZM8.96281 1.25807V1.67742H8.55575V1.25807H8.96281ZM8.96281 1.67742V2.09677H8.55575V1.67742H8.96281ZM8.96281 2.09677V2.51613H8.55575V2.09677H8.96281ZM8.96281 2.51613V2.93548H8.55575V2.51613H8.96281ZM8.96281 2.93548V3.35484H8.55575V2.93548H8.96281ZM8.55575 3.35484V3.77419H8.14869V3.35484H8.55575ZM8.55575 3.77419V4.19355H8.14869V3.77419H8.55575ZM8.55575 2.93548V3.35484H8.14869V2.93548H8.55575ZM8.55575 2.51613V2.93548H8.14869V2.51613H8.55575ZM8.55575 2.09677V2.51613H8.14869V2.09677H8.55575ZM8.55575 1.67742V2.09677H8.14869V1.67742H8.55575ZM8.55575 1.25807V1.67742H8.14869V1.25807H8.55575ZM8.55575 0.83871V1.25807H8.14869V0.83871H8.55575ZM8.96281 3.35484V3.77419H8.55575V3.35484H8.96281ZM8.96281 3.77419V4.19355H8.55575V3.77419H8.96281ZM8.96281 4.19355V4.6129H8.55575V4.19355H8.96281ZM8.96281 4.6129V5.03226H8.55575V4.6129H8.96281ZM8.96281 5.03226V5.45161H8.55575V5.03226H8.96281ZM8.96281 5.45161V5.87097H8.55575V5.45161H8.96281ZM8.96281 5.87097V6.29032H8.55575V5.87097H8.96281ZM8.96281 6.29032V6.70968H8.55575V6.29032H8.96281ZM8.96281 6.70968V7.12903H8.55575V6.70968H8.96281ZM9.36986 6.29032V6.70968H8.96281V6.29032H9.36986ZM9.36986 5.87097V6.29032H8.96281V5.87097H9.36986ZM12.6263 10.0645V10.4839H12.2193V10.0645H12.6263ZM13.0334 10.0645V10.4839H12.6263V10.0645H13.0334ZM13.4404 10.0645V10.4839H13.0334V10.0645H13.4404ZM13.8475 10.0645V10.4839H13.4404V10.0645H13.8475ZM14.2545 9.64516V10.0645H13.8475V9.64516H14.2545ZM14.2545 9.22581V9.64516H13.8475V9.22581H14.2545ZM14.2545 10.0645V10.4839H13.8475V10.0645H14.2545ZM13.8475 9.64516V10.0645H13.4404V9.64516H13.8475ZM13.4404 9.64516V10.0645H13.0334V9.64516H13.4404ZM13.0334 9.64516V10.0645H12.6263V9.64516H13.0334ZM12.6263 9.64516V10.0645H12.2193V9.64516H12.6263ZM12.6263 9.22581V9.64516H12.2193V9.22581H12.6263ZM12.6263 8.80645V9.22581H12.2193V8.80645H12.6263ZM13.0334 8.80645V9.22581H12.6263V8.80645H13.0334ZM13.4404 8.80645V9.22581H13.0334V8.80645H13.4404ZM13.8475 8.80645V9.22581H13.4404V8.80645H13.8475ZM14.2545 8.80645V9.22581H13.8475V8.80645H14.2545ZM13.8475 9.22581V9.64516H13.4404V9.22581H13.8475ZM13.4404 9.22581V9.64516H13.0334V9.22581H13.4404ZM13.0334 9.22581V9.64516H12.6263V9.22581H13.0334ZM14.2545 4.19355V4.6129H13.8475V4.19355H14.2545ZM13.8475 4.19355V4.6129H13.4404V4.19355H13.8475ZM13.0334 4.19355V4.6129H12.6263V4.19355H13.0334ZM13.0334 4.6129V5.03226H12.6263V4.6129H13.0334ZM13.0334 5.03226V5.45161H12.6263V5.03226H13.0334ZM12.6263 5.45161V5.87097H12.2193V5.45161H12.6263ZM12.6263 5.87097V6.29032H12.2193V5.87097H12.6263ZM12.6263 6.29032V6.70968H12.2193V6.29032H12.6263ZM12.6263 6.70968V7.12903H12.2193V6.70968H12.6263ZM12.6263 7.12903V7.54839H12.2193V7.12903H12.6263ZM12.6263 7.54839V7.96774H12.2193V7.54839H12.6263ZM12.6263 7.96774V8.3871H12.2193V7.96774H12.6263ZM12.6263 8.3871V8.80645H12.2193V8.3871H12.6263ZM13.0334 8.3871V8.80645H12.6263V8.3871H13.0334ZM13.4404 8.3871V8.80645H13.0334V8.3871H13.4404ZM13.8475 8.3871V8.80645H13.4404V8.3871H13.8475ZM14.2545 8.3871V8.80645H13.8475V8.3871H14.2545ZM14.2545 7.96774V8.3871H13.8475V7.96774H14.2545ZM14.2545 7.12903V7.54839H13.8475V7.12903H14.2545ZM14.2545 6.70968V7.12903H13.8475V6.70968H14.2545ZM14.2545 6.29032V6.70968H13.8475V6.29032H14.2545ZM14.2545 5.87097V6.29032H13.8475V5.87097H14.2545ZM14.2545 5.45161V5.87097H13.8475V5.45161H14.2545ZM14.2545 5.03226V5.45161H13.8475V5.03226H14.2545ZM14.2545 4.6129V5.03226H13.8475V4.6129H14.2545ZM13.8475 6.29032V6.70968H13.4404V6.29032H13.8475ZM13.8475 7.12903V7.54839H13.4404V7.12903H13.8475ZM13.8475 7.54839V7.96774H13.4404V7.54839H13.8475ZM13.8475 7.96774V8.3871H13.4404V7.96774H13.8475ZM14.2545 7.54839V7.96774H13.8475V7.54839H14.2545ZM13.8475 5.45161V5.87097H13.4404V5.45161H13.8475ZM13.4404 5.45161V5.87097H13.0334V5.45161H13.4404ZM13.0334 5.45161V5.87097H12.6263V5.45161H13.0334ZM13.0334 5.87097V6.29032H12.6263V5.87097H13.0334ZM13.0334 6.29032V6.70968H12.6263V6.29032H13.0334ZM13.0334 6.70968V7.12903H12.6263V6.70968H13.0334ZM13.0334 7.12903V7.54839H12.6263V7.12903H13.0334ZM13.0334 7.54839V7.96774H12.6263V7.54839H13.0334ZM13.0334 7.96774V8.3871H12.6263V7.96774H13.0334ZM13.4404 7.96774V8.3871H13.0334V7.96774H13.4404ZM13.4404 7.54839V7.96774H13.0334V7.54839H13.4404ZM13.4404 7.12903V7.54839H13.0334V7.12903H13.4404ZM13.4404 6.70968V7.12903H13.0334V6.70968H13.4404ZM13.4404 6.29032V6.70968H13.0334V6.29032H13.4404ZM13.4404 5.87097V6.29032H13.0334V5.87097H13.4404ZM13.8475 5.87097V6.29032H13.4404V5.87097H13.8475ZM13.8475 6.70968V7.12903H13.4404V6.70968H13.8475ZM13.8475 5.03226V5.45161H13.4404V5.03226H13.8475ZM13.8475 4.6129V5.03226H13.4404V4.6129H13.8475ZM13.4404 4.6129V5.03226H13.0334V4.6129H13.4404ZM13.4404 5.03226V5.45161H13.0334V5.03226H13.4404ZM12.6263 5.03226V5.45161H12.2193V5.03226H12.6263ZM12.6263 4.6129V5.03226H12.2193V4.6129H12.6263ZM12.6263 4.19355V4.6129H12.2193V4.19355H12.6263ZM13.4404 4.19355V4.6129H13.0334V4.19355H13.4404ZM12.6263 2.51613V2.93548H12.2193V2.51613H12.6263ZM12.6263 2.93548V3.35484H12.2193V2.93548H12.6263ZM13.0334 2.93548V3.35484H12.6263V2.93548H13.0334ZM13.4404 2.93548V3.35484H13.0334V2.93548H13.4404ZM13.4404 3.35484V3.77419H13.0334V3.35484H13.4404ZM13.8475 3.35484V3.77419H13.4404V3.35484H13.8475ZM13.8475 3.77419V4.19355H13.4404V3.77419H13.8475ZM13.4404 3.77419V4.19355H13.0334V3.77419H13.4404ZM13.0334 3.77419V4.19355H12.6263V3.77419H13.0334ZM13.0334 3.35484V3.77419H12.6263V3.35484H13.0334ZM12.6263 3.35484V3.77419H12.2193V3.35484H12.6263ZM12.2193 3.35484V3.77419H11.8122V3.35484H12.2193ZM12.2193 3.77419V4.19355H11.8122V3.77419H12.2193ZM12.6263 3.77419V4.19355H12.2193V3.77419H12.6263ZM12.2193 4.19355V4.6129H11.8122V4.19355H12.2193ZM11.8122 3.77419V4.19355H11.4051V3.77419H11.8122ZM11.8122 3.35484V3.77419H11.4051V3.35484H11.8122ZM11.8122 2.93548V3.35484H11.4051V2.93548H11.8122ZM11.8122 2.51613V2.93548H11.4051V2.51613H11.8122ZM12.2193 2.51613V2.93548H11.8122V2.51613H12.2193ZM12.2193 2.93548V3.35484H11.8122V2.93548H12.2193ZM11.4051 2.51613V2.93548H10.9981V2.51613H11.4051ZM11.4051 2.93548V3.35484H10.9981V2.93548H11.4051ZM11.4051 3.35484V3.77419H10.9981V3.35484H11.4051ZM11.4051 3.77419V4.19355H10.9981V3.77419H11.4051ZM10.9981 2.51613V2.93548H10.591V2.51613H10.9981ZM10.9981 2.93548V3.35484H10.591V2.93548H10.9981ZM10.591 2.93548V3.35484H10.184V2.93548H10.591ZM10.591 3.35484V3.77419H10.184V3.35484H10.591ZM10.184 3.35484V3.77419H9.77692V3.35484H10.184ZM10.184 3.77419V4.19355H9.77692V3.77419H10.184ZM10.591 3.77419V4.19355H10.184V3.77419H10.591ZM10.9981 3.77419V4.19355H10.591V3.77419H10.9981ZM10.9981 3.35484V3.77419H10.591V3.35484H10.9981ZM10.184 4.19355V4.6129H9.77692V4.19355H10.184ZM10.591 2.51613V2.93548H10.184V2.51613H10.591ZM10.184 2.93548V3.35484H9.77692V2.93548H10.184Z" fill="white"/>
<path d="M15.8903 10.0645V10.4839H15.4833V10.0645H15.8903ZM15.8903 9.64516V10.0645H15.4833V9.64516H15.8903ZM15.8903 9.22581V9.64516H15.4833V9.22581H15.8903ZM15.8903 8.80645V9.22581H15.4833V8.80645H15.8903ZM15.8903 8.3871V8.80645H15.4833V8.3871H15.8903ZM15.8903 7.96774V8.3871H15.4833V7.96774H15.8903ZM15.8903 7.54839V7.96774H15.4833V7.54839H15.8903ZM15.8903 7.12903V7.54839H15.4833V7.12903H15.8903ZM15.8903 6.70968V7.12903H15.4833V6.70968H15.8903ZM15.8903 6.29032V6.70968H15.4833V6.29032H15.8903ZM15.8903 5.87097V6.29032H15.4833V5.87097H15.8903ZM15.8903 5.45161V5.87097H15.4833V5.45161H15.8903ZM15.8903 5.03226V5.45161H15.4833V5.03226H15.8903ZM15.8903 4.6129V5.03226H15.4833V4.6129H15.8903ZM15.8903 4.19355V4.6129H15.4833V4.19355H15.8903ZM16.2974 4.19355V4.6129H15.8903V4.19355H16.2974ZM16.2974 4.6129V5.03226H15.8903V4.6129H16.2974ZM16.2974 5.03226V5.45161H15.8903V5.03226H16.2974ZM16.2974 5.45161V5.87097H15.8903V5.45161H16.2974ZM16.2974 5.87097V6.29032H15.8903V5.87097H16.2974ZM16.2974 6.29032V6.70968H15.8903V6.29032H16.2974ZM16.2974 6.70968V7.12903H15.8903V6.70968H16.2974ZM16.7044 7.12903V7.54839H16.2974V7.12903H16.7044ZM16.7044 7.54839V7.96774H16.2974V7.54839H16.7044ZM16.7044 7.96774V8.3871H16.2974V7.96774H16.7044ZM16.7044 8.3871V8.80645H16.2974V8.3871H16.7044ZM16.7044 8.80645V9.22581H16.2974V8.80645H16.7044ZM16.7044 9.22581V9.64516H16.2974V9.22581H16.7044ZM16.7044 9.64516V10.0645H16.2974V9.64516H16.7044ZM16.7044 10.0645V10.4839H16.2974V10.0645H16.7044ZM17.1115 10.0645V10.4839H16.7044V10.0645H17.1115ZM17.5186 10.0645V10.4839H17.1115V10.0645H17.5186ZM17.5186 9.64516V10.0645H17.1115V9.64516H17.5186ZM17.5186 9.22581V9.64516H17.1115V9.22581H17.5186ZM17.5186 8.80645V9.22581H17.1115V8.80645H17.5186ZM17.5186 8.3871V8.80645H17.1115V8.3871H17.5186ZM17.5186 7.96774V8.3871H17.1115V7.96774H17.5186ZM17.5186 7.54839V7.96774H17.1115V7.54839H17.5186ZM17.5186 7.12903V7.54839H17.1115V7.12903H17.5186ZM17.1115 7.12903V7.54839H16.7044V7.12903H17.1115ZM17.1115 6.70968V7.12903H16.7044V6.70968H17.1115ZM17.1115 7.54839V7.96774H16.7044V7.54839H17.1115ZM17.1115 7.96774V8.3871H16.7044V7.96774H17.1115ZM17.1115 8.3871V8.80645H16.7044V8.3871H17.1115ZM17.1115 8.80645V9.22581H16.7044V8.80645H17.1115ZM17.1115 9.22581V9.64516H16.7044V9.22581H17.1115ZM17.1115 9.64516V10.0645H16.7044V9.64516H17.1115ZM16.2974 10.0645V10.4839H15.8903V10.0645H16.2974ZM16.2974 9.64516V10.0645H15.8903V9.64516H16.2974ZM16.2974 9.22581V9.64516H15.8903V9.22581H16.2974ZM16.2974 8.80645V9.22581H15.8903V8.80645H16.2974ZM16.2974 8.3871V8.80645H15.8903V8.3871H16.2974ZM16.2974 7.96774V8.3871H15.8903V7.96774H16.2974ZM16.2974 7.54839V7.96774H15.8903V7.54839H16.2974ZM16.2974 7.12903V7.54839H15.8903V7.12903H16.2974ZM15.8903 2.51613V2.93548H15.4833V2.51613H15.8903ZM15.8903 2.93548V3.35484H15.4833V2.93548H15.8903ZM15.8903 3.35484V3.77419H15.4833V3.35484H15.8903ZM15.8903 3.77419V4.19355H15.4833V3.77419H15.8903ZM17.1115 2.93548V3.35484H16.7044V2.93548H17.1115ZM17.1115 3.35484V3.77419H16.7044V3.35484H17.1115ZM17.1115 3.77419V4.19355H16.7044V3.77419H17.1115ZM17.1115 4.19355V4.6129H16.7044V4.19355H17.1115ZM17.1115 4.6129V5.03226H16.7044V4.6129H17.1115ZM17.1115 5.03226V5.45161H16.7044V5.03226H17.1115ZM17.1115 5.45161V5.87097H16.7044V5.45161H17.1115ZM17.5186 5.87097V6.29032H17.1115V5.87097H17.5186ZM17.5186 6.29032V6.70968H17.1115V6.29032H17.5186ZM17.5186 6.70968V7.12903H17.1115V6.70968H17.5186ZM17.5186 5.45161V5.87097H17.1115V5.45161H17.5186ZM17.5186 5.03226V5.45161H17.1115V5.03226H17.5186ZM17.5186 4.6129V5.03226H17.1115V4.6129H17.5186ZM17.5186 4.19355V4.6129H17.1115V4.19355H17.5186ZM17.5186 3.77419V4.19355H17.1115V3.77419H17.5186ZM17.5186 3.35484V3.77419H17.1115V3.35484H17.5186ZM17.5186 2.93548V3.35484H17.1115V2.93548H17.5186ZM17.5186 2.51613V2.93548H17.1115V2.51613H17.5186ZM17.1115 2.51613V2.93548H16.7044V2.51613H17.1115ZM16.7044 2.51613V2.93548H16.2974V2.51613H16.7044ZM16.7044 2.93548V3.35484H16.2974V2.93548H16.7044ZM16.2974 3.35484V3.77419H15.8903V3.35484H16.2974ZM16.2974 3.77419V4.19355H15.8903V3.77419H16.2974ZM16.2974 2.93548V3.35484H15.8903V2.93548H16.2974ZM16.2974 2.51613V2.93548H15.8903V2.51613H16.2974ZM16.7044 3.35484V3.77419H16.2974V3.35484H16.7044ZM16.7044 3.77419V4.19355H16.2974V3.77419H16.7044ZM16.7044 4.19355V4.6129H16.2974V4.19355H16.7044ZM16.7044 4.6129V5.03226H16.2974V4.6129H16.7044ZM16.7044 5.03226V5.45161H16.2974V5.03226H16.7044ZM16.7044 5.45161V5.87097H16.2974V5.45161H16.7044ZM16.7044 5.87097V6.29032H16.2974V5.87097H16.7044ZM16.7044 6.29032V6.70968H16.2974V6.29032H16.7044ZM16.7044 6.70968V7.12903H16.2974V6.70968H16.7044ZM17.1115 6.29032V6.70968H16.7044V6.29032H17.1115ZM17.1115 5.87097V6.29032H16.7044V5.87097H17.1115ZM20.368 4.19355V4.6129H19.9609V4.19355H20.368ZM20.368 2.51613V2.93548H19.9609V2.51613H20.368ZM20.368 2.93548V3.35484H19.9609V2.93548H20.368ZM20.775 2.93548V3.35484H20.368V2.93548H20.775ZM21.1821 3.35484V3.77419H20.775V3.35484H21.1821ZM20.775 3.77419V4.19355H20.368V3.77419H20.775ZM20.775 3.35484V3.77419H20.368V3.35484H20.775ZM20.368 3.35484V3.77419H19.9609V3.35484H20.368ZM19.9609 3.35484V3.77419H19.5538V3.35484H19.9609ZM19.9609 3.77419V4.19355H19.5538V3.77419H19.9609ZM20.368 3.77419V4.19355H19.9609V3.77419H20.368ZM19.9609 4.19355V4.6129H19.5538V4.19355H19.9609ZM19.5538 3.77419V4.19355H19.1468V3.77419H19.5538ZM19.5538 3.35484V3.77419H19.1468V3.35484H19.5538ZM19.5538 2.93548V3.35484H19.1468V2.93548H19.5538ZM19.5538 2.51613V2.93548H19.1468V2.51613H19.5538ZM19.9609 2.51613V2.93548H19.5538V2.51613H19.9609ZM19.9609 2.93548V3.35484H19.5538V2.93548H19.9609ZM19.1468 2.51613V2.93548H18.7397V2.51613H19.1468ZM19.1468 2.93548V3.35484H18.7397V2.93548H19.1468ZM19.1468 3.35484V3.77419H18.7397V3.35484H19.1468ZM19.1468 3.77419V4.19355H18.7397V3.77419H19.1468ZM18.7397 2.51613V2.93548H18.3327V2.51613H18.7397ZM18.7397 2.93548V3.35484H18.3327V2.93548H18.7397ZM18.3327 2.93548V3.35484H17.9256V2.93548H18.3327ZM18.3327 3.35484V3.77419H17.9256V3.35484H18.3327ZM17.9256 3.35484V3.77419H17.5186V3.35484H17.9256ZM17.9256 3.77419V4.19355H17.5186V3.77419H17.9256ZM18.3327 3.77419V4.19355H17.9256V3.77419H18.3327ZM18.7397 3.77419V4.19355H18.3327V3.77419H18.7397ZM18.7397 3.35484V3.77419H18.3327V3.35484H18.7397ZM17.9256 4.19355V4.6129H17.5186V4.19355H17.9256ZM18.3327 2.51613V2.93548H17.9256V2.51613H18.3327ZM17.9256 2.93548V3.35484H17.5186V2.93548H17.9256ZM19.5538 4.19355V4.6129H19.1468V4.19355H19.5538ZM19.9609 4.6129V5.03226H19.5538V4.6129H19.9609Z" fill="white"/>
<path d="M26.4802 5.03226V5.45161H26.0731V5.03226H26.4802ZM26.8872 5.03226V5.45161H26.4802V5.03226H26.8872ZM27.2943 5.03226V5.45161H26.8872V5.03226H27.2943ZM27.7013 5.03226V5.45161H27.2943V5.03226H27.7013ZM28.1084 5.03226V5.45161H27.7013V5.03226H28.1084ZM28.1084 4.6129V5.03226H27.7013V4.6129H28.1084ZM28.1084 4.19355V4.6129H27.7013V4.19355H28.1084ZM27.7013 4.19355V4.6129H27.2943V4.19355H27.7013ZM27.2943 4.19355V4.6129H26.8872V4.19355H27.2943ZM26.8872 4.19355V4.6129H26.4802V4.19355H26.8872ZM26.8872 4.6129V5.03226H26.4802V4.6129H26.8872ZM26.4802 4.6129V5.03226H26.0731V4.6129H26.4802ZM27.2943 4.6129V5.03226H26.8872V4.6129H27.2943ZM27.7013 4.6129V5.03226H27.2943V4.6129H27.7013ZM26.4802 4.19355V4.6129H26.0731V4.19355H26.4802ZM26.0731 4.19355V4.6129H25.6661V4.19355H26.0731ZM26.0731 3.77419V4.19355H25.6661V3.77419H26.0731ZM26.4802 3.77419V4.19355H26.0731V3.77419H26.4802ZM26.8872 3.77419V4.19355H26.4802V3.77419H26.8872ZM27.2943 3.77419V4.19355H26.8872V3.77419H27.2943ZM27.7013 3.77419V4.19355H27.2943V3.77419H27.7013ZM27.7013 3.35484V3.77419H27.2943V3.35484H27.7013ZM27.2943 3.35484V3.77419H26.8872V3.35484H27.2943ZM26.8872 3.35484V3.77419H26.4802V3.35484H26.8872ZM26.4802 3.35484V3.77419H26.0731V3.35484H26.4802ZM26.0731 3.35484V3.77419H25.6661V3.35484H26.0731ZM26.8872 2.93548V3.35484H26.4802V2.93548H26.8872ZM27.2943 2.93548V3.35484H26.8872V2.93548H27.2943ZM26.4802 2.93548V3.35484H26.0731V2.93548H26.4802ZM26.4802 2.51613V2.93548H26.0731V2.51613H26.4802ZM26.0731 2.51613V2.93548H25.6661V2.51613H26.0731ZM26.0731 2.93548V3.35484H25.6661V2.93548H26.0731ZM25.6661 2.93548V3.35484H25.259V2.93548H25.6661ZM25.6661 2.51613V2.93548H25.259V2.51613H25.6661ZM25.6661 3.35484V3.77419H25.259V3.35484H25.6661ZM25.259 3.35484V3.77419H24.8519V3.35484H25.259ZM25.259 3.77419V4.19355H24.8519V3.77419H25.259ZM25.6661 3.77419V4.19355H25.259V3.77419H25.6661ZM24.8519 3.77419V4.19355H24.4449V3.77419H24.8519ZM24.8519 3.35484V3.77419H24.4449V3.35484H24.8519ZM24.8519 2.93548V3.35484H24.4449V2.93548H24.8519ZM24.8519 2.51613V2.93548H24.4449V2.51613H24.8519ZM25.259 2.51613V2.93548H24.8519V2.51613H25.259ZM25.259 2.93548V3.35484H24.8519V2.93548H25.259ZM24.4449 2.51613V2.93548H24.0378V2.51613H24.4449ZM24.0378 2.51613V2.93548H23.6308V2.51613H24.0378ZM23.6308 2.51613V2.93548H23.2237V2.51613H23.6308ZM23.6308 2.93548V3.35484H23.2237V2.93548H23.6308ZM23.6308 3.35484V3.77419H23.2237V3.35484H23.6308ZM23.6308 3.77419V4.19355H23.2237V3.77419H23.6308ZM24.0378 3.77419V4.19355H23.6308V3.77419H24.0378ZM24.4449 3.77419V4.19355H24.0378V3.77419H24.4449ZM24.4449 3.35484V3.77419H24.0378V3.35484H24.4449ZM24.4449 2.93548V3.35484H24.0378V2.93548H24.4449ZM24.0378 2.93548V3.35484H23.6308V2.93548H24.0378ZM24.0378 3.35484V3.77419H23.6308V3.35484H24.0378ZM23.2237 3.35484V3.77419H22.8167V3.35484H23.2237ZM23.2237 2.93548V3.35484H22.8167V2.93548H23.2237ZM22.8167 2.93548V3.35484H22.4096V2.93548H22.8167ZM22.8167 3.35484V3.77419H22.4096V3.35484H22.8167ZM22.4096 3.35484V3.77419H22.0025V3.35484H22.4096ZM22.4096 3.77419V4.19355H22.0025V3.77419H22.4096ZM22.4096 4.19355V4.6129H22.0025V4.19355H22.4096ZM22.8167 4.19355V4.6129H22.4096V4.19355H22.8167ZM22.8167 3.77419V4.19355H22.4096V3.77419H22.8167ZM23.2237 3.77419V4.19355H22.8167V3.77419H23.2237ZM23.2237 4.19355V4.6129H22.8167V4.19355H23.2237ZM23.6308 4.19355V4.6129H23.2237V4.19355H23.6308ZM24.0378 4.19355V4.6129H23.6308V4.19355H24.0378ZM22.0025 4.19355V4.6129H21.5955V4.19355H22.0025ZM22.0025 4.6129V5.03226H21.5955V4.6129H22.0025ZM22.0025 5.03226V5.45161H21.5955V5.03226H22.0025ZM22.0025 5.45161V5.87097H21.5955V5.45161H22.0025ZM22.0025 5.87097V6.29032H21.5955V5.87097H22.0025ZM22.0025 6.29032V6.70968H21.5955V6.29032H22.0025ZM22.0025 6.70968V7.12903H21.5955V6.70968H22.0025ZM22.0025 7.12903V7.54839H21.5955V7.12903H22.0025ZM22.0025 7.54839V7.96774H21.5955V7.54839H22.0025ZM22.0025 7.96774V8.3871H21.5955V7.96774H22.0025ZM22.4096 7.96774V8.3871H22.0025V7.96774H22.4096ZM22.4096 8.3871V8.80645H22.0025V8.3871H22.4096ZM22.0025 8.3871V8.80645H21.5955V8.3871H22.0025ZM22.8167 8.3871V8.80645H22.4096V8.3871H22.8167ZM23.2237 8.3871V8.80645H22.8167V8.3871H23.2237ZM23.6308 8.3871V8.80645H23.2237V8.3871H23.6308ZM24.0378 8.3871V8.80645H23.6308V8.3871H24.0378ZM23.6308 7.96774V8.3871H23.2237V7.96774H23.6308ZM23.6308 7.54839V7.96774H23.2237V7.54839H23.6308ZM23.6308 7.12903V7.54839H23.2237V7.12903H23.6308ZM23.6308 6.70968V7.12903H23.2237V6.70968H23.6308ZM23.6308 6.29032V6.70968H23.2237V6.29032H23.6308ZM23.6308 5.87097V6.29032H23.2237V5.87097H23.6308ZM23.6308 5.45161V5.87097H23.2237V5.45161H23.6308ZM23.6308 5.03226V5.45161H23.2237V5.03226H23.6308ZM23.6308 4.6129V5.03226H23.2237V4.6129H23.6308ZM23.2237 4.6129V5.03226H22.8167V4.6129H23.2237ZM22.8167 4.6129V5.03226H22.4096V4.6129H22.8167ZM22.4096 4.6129V5.03226H22.0025V4.6129H22.4096ZM22.4096 5.03226V5.45161H22.0025V5.03226H22.4096ZM22.4096 5.45161V5.87097H22.0025V5.45161H22.4096ZM22.4096 5.87097V6.29032H22.0025V5.87097H22.4096ZM22.4096 6.29032V6.70968H22.0025V6.29032H22.4096ZM22.4096 6.70968V7.12903H22.0025V6.70968H22.4096ZM22.4096 7.12903V7.54839H22.0025V7.12903H22.4096ZM22.4096 7.54839V7.96774H22.0025V7.54839H22.4096ZM22.8167 7.96774V8.3871H22.4096V7.96774H22.8167ZM23.2237 7.96774V8.3871H22.8167V7.96774H23.2237ZM23.2237 7.54839V7.96774H22.8167V7.54839H23.2237ZM23.2237 7.12903V7.54839H22.8167V7.12903H23.2237ZM23.2237 6.70968V7.12903H22.8167V6.70968H23.2237ZM23.2237 6.29032V6.70968H22.8167V6.29032H23.2237ZM22.8167 6.29032V6.70968H22.4096V6.29032H22.8167ZM22.8167 5.87097V6.29032H22.4096V5.87097H22.8167ZM22.8167 5.45161V5.87097H22.4096V5.45161H22.8167ZM22.8167 5.03226V5.45161H22.4096V5.03226H22.8167ZM23.2237 5.03226V5.45161H22.8167V5.03226H23.2237ZM23.2237 5.45161V5.87097H22.8167V5.45161H23.2237ZM23.2237 5.87097V6.29032H22.8167V5.87097H23.2237ZM22.8167 7.12903V7.54839H22.4096V7.12903H22.8167ZM22.8167 7.54839V7.96774H22.4096V7.54839H22.8167ZM22.8167 6.70968V7.12903H22.4096V6.70968H22.8167ZM26.4802 7.96774V8.3871H26.0731V7.96774H26.4802ZM26.8872 7.96774V8.3871H26.4802V7.96774H26.8872ZM27.2943 7.96774V8.3871H26.8872V7.96774H27.2943ZM27.7013 7.96774V8.3871H27.2943V7.96774H27.7013ZM28.1084 7.96774V8.3871H27.7013V7.96774H28.1084ZM28.1084 8.3871V8.80645H27.7013V8.3871H28.1084ZM27.7013 8.3871V8.80645H27.2943V8.3871H27.7013ZM27.2943 8.3871V8.80645H26.8872V8.3871H27.2943ZM26.8872 8.3871V8.80645H26.4802V8.3871H26.8872ZM26.4802 8.3871V8.80645H26.0731V8.3871H26.4802ZM26.0731 8.3871V8.80645H25.6661V8.3871H26.0731ZM26.0731 8.80645V9.22581H25.6661V8.80645H26.0731ZM26.4802 8.80645V9.22581H26.0731V8.80645H26.4802ZM26.8872 8.80645V9.22581H26.4802V8.80645H26.8872ZM27.2943 8.80645V9.22581H26.8872V8.80645H27.2943ZM27.2943 9.22581V9.64516H26.8872V9.22581H27.2943ZM27.7013 9.22581V9.64516H27.2943V9.22581H27.7013ZM27.7013 8.80645V9.22581H27.2943V8.80645H27.7013ZM27.2943 9.64516V10.0645H26.8872V9.64516H27.2943ZM26.8872 9.64516V10.0645H26.4802V9.64516H26.8872ZM26.8872 9.22581V9.64516H26.4802V9.22581H26.8872ZM26.4802 9.22581V9.64516H26.0731V9.22581H26.4802ZM26.4802 9.64516V10.0645H26.0731V9.64516H26.4802ZM26.4802 10.0645V10.4839H26.0731V10.0645H26.4802ZM26.0731 10.0645V10.4839H25.6661V10.0645H26.0731ZM25.6661 10.0645V10.4839H25.259V10.0645H25.6661ZM25.259 10.0645V10.4839H24.8519V10.0645H25.259ZM24.8519 10.0645V10.4839H24.4449V10.0645H24.8519ZM24.4449 10.0645V10.4839H24.0378V10.0645H24.4449ZM24.0378 10.0645V10.4839H23.6308V10.0645H24.0378ZM23.6308 10.0645V10.4839H23.2237V10.0645H23.6308ZM24.0378 9.64516V10.0645H23.6308V9.64516H24.0378ZM24.4449 9.64516V10.0645H24.0378V9.64516H24.4449ZM24.8519 9.64516V10.0645H24.4449V9.64516H24.8519ZM25.259 9.64516V10.0645H24.8519V9.64516H25.259ZM25.6661 9.64516V10.0645H25.259V9.64516H25.6661ZM26.0731 9.64516V10.0645H25.6661V9.64516H26.0731ZM26.0731 9.22581V9.64516H25.6661V9.22581H26.0731ZM25.6661 9.22581V9.64516H25.259V9.22581H25.6661ZM25.259 9.22581V9.64516H24.8519V9.22581H25.259ZM24.8519 9.22581V9.64516H24.4449V9.22581H24.8519ZM24.4449 9.22581V9.64516H24.0378V9.22581H24.4449ZM24.0378 9.22581V9.64516H23.6308V9.22581H24.0378ZM23.6308 9.64516V10.0645H23.2237V9.64516H23.6308ZM23.2237 9.64516V10.0645H22.8167V9.64516H23.2237ZM22.8167 9.64516V10.0645H22.4096V9.64516H22.8167ZM22.8167 9.22581V9.64516H22.4096V9.22581H22.8167ZM22.4096 9.22581V9.64516H22.0025V9.22581H22.4096ZM22.4096 8.80645V9.22581H22.0025V8.80645H22.4096ZM22.8167 8.80645V9.22581H22.4096V8.80645H22.8167ZM23.2237 8.80645V9.22581H22.8167V8.80645H23.2237ZM23.6308 8.80645V9.22581H23.2237V8.80645H23.6308ZM24.0378 8.80645V9.22581H23.6308V8.80645H24.0378ZM24.4449 8.80645V9.22581H24.0378V8.80645H24.4449ZM24.8519 8.80645V9.22581H24.4449V8.80645H24.8519ZM25.259 8.80645V9.22581H24.8519V8.80645H25.259ZM25.6661 8.80645V9.22581H25.259V8.80645H25.6661ZM23.6308 9.22581V9.64516H23.2237V9.22581H23.6308ZM23.2237 9.22581V9.64516H22.8167V9.22581H23.2237ZM28.1084 5.45161V5.87097H27.7013V5.45161H28.1084ZM27.7013 5.45161V5.87097H27.2943V5.45161H27.7013ZM27.2943 5.45161V5.87097H26.8872V5.45161H27.2943ZM26.8872 5.45161V5.87097H26.4802V5.45161H26.8872ZM26.4802 5.45161V5.87097H26.0731V5.45161H26.4802ZM28.1084 5.87097V6.29032H27.7013V5.87097H28.1084ZM27.2943 5.87097V6.29032H26.8872V5.87097H27.2943ZM26.8872 5.87097V6.29032H26.4802V5.87097H26.8872ZM26.0731 5.87097V6.29032H25.6661V5.87097H26.0731ZM25.6661 5.87097V6.29032H25.259V5.87097H25.6661ZM25.259 5.87097V6.29032H24.8519V5.87097H25.259ZM24.8519 5.87097V6.29032H24.4449V5.87097H24.8519ZM24.4449 5.87097V6.29032H24.0378V5.87097H24.4449ZM24.0378 5.87097V6.29032H23.6308V5.87097H24.0378ZM26.4802 5.87097V6.29032H26.0731V5.87097H26.4802ZM27.7013 5.87097V6.29032H27.2943V5.87097H27.7013ZM28.1084 6.29032V6.70968H27.7013V6.29032H28.1084ZM27.7013 6.29032V6.70968H27.2943V6.29032H27.7013ZM27.2943 6.29032V6.70968H26.8872V6.29032H27.2943ZM26.8872 6.29032V6.70968H26.4802V6.29032H26.8872ZM26.4802 6.29032V6.70968H26.0731V6.29032H26.4802ZM26.0731 6.29032V6.70968H25.6661V6.29032H26.0731ZM25.6661 6.29032V6.70968H25.259V6.29032H25.6661ZM25.259 6.29032V6.70968H24.8519V6.29032H25.259ZM24.8519 6.29032V6.70968H24.4449V6.29032H24.8519ZM24.4449 6.29032V6.70968H24.0378V6.29032H24.4449ZM24.0378 6.29032V6.70968H23.6308V6.29032H24.0378ZM24.0378 6.70968V7.12903H23.6308V6.70968H24.0378ZM24.4449 6.70968V7.12903H24.0378V6.70968H24.4449ZM24.8519 6.70968V7.12903H24.4449V6.70968H24.8519ZM25.6661 6.70968V7.12903H25.259V6.70968H25.6661ZM26.0731 6.70968V7.12903H25.6661V6.70968H26.0731ZM26.4802 6.70968V7.12903H26.0731V6.70968H26.4802ZM26.8872 6.70968V7.12903H26.4802V6.70968H26.8872ZM27.2943 6.70968V7.12903H26.8872V6.70968H27.2943ZM27.7013 6.70968V7.12903H27.2943V6.70968H27.7013ZM28.1084 6.70968V7.12903H27.7013V6.70968H28.1084ZM25.259 6.70968V7.12903H24.8519V6.70968H25.259Z" fill="white"/>
<path d="M30.5579 7.96774V7.54839H30.965V7.96774H30.5579ZM30.1508 7.96774V7.54839H30.5579V7.96774H30.1508ZM29.7438 7.96774V7.54839H30.1508V7.96774H29.7438ZM29.3367 7.96774V7.54839H29.7438V7.96774H29.3367ZM28.9297 7.96774V7.54839H29.3367V7.96774H28.9297ZM28.9297 8.3871V7.96774H29.3367V8.3871H28.9297ZM28.9297 8.80645V8.3871H29.3367V8.80645H28.9297ZM29.3367 8.80645V8.3871H29.7438V8.80645H29.3367ZM29.7438 8.80645V8.3871H30.1508V8.80645H29.7438ZM30.1508 8.80645V8.3871H30.5579V8.80645H30.1508ZM30.1508 8.3871V7.96774H30.5579V8.3871H30.1508ZM30.5579 8.3871V7.96774H30.965V8.3871H30.5579ZM29.7438 8.3871V7.96774H30.1508V8.3871H29.7438ZM29.3367 8.3871V7.96774H29.7438V8.3871H29.3367ZM30.5579 8.80645V8.3871H30.965V8.80645H30.5579ZM30.965 8.80645V8.3871H31.372V8.80645H30.965ZM30.965 9.22581V8.80645H31.372V9.22581H30.965ZM30.5579 9.22581V8.80645H30.965V9.22581H30.5579ZM30.1508 9.22581V8.80645H30.5579V9.22581H30.1508ZM29.7438 9.22581V8.80645H30.1508V9.22581H29.7438ZM29.3367 9.22581V8.80645H29.7438V9.22581H29.3367ZM29.3367 9.64516V9.22581H29.7438V9.64516H29.3367ZM29.7438 9.64516V9.22581H30.1508V9.64516H29.7438ZM30.1508 9.64516V9.22581H30.5579V9.64516H30.1508ZM30.5579 9.64516V9.22581H30.965V9.64516H30.5579ZM30.965 9.64516V9.22581H31.372V9.64516H30.965ZM30.1508 10.0645V9.64516H30.5579V10.0645H30.1508ZM29.7438 10.0645V9.64516H30.1508V10.0645H29.7438ZM30.5579 10.0645V9.64516H30.965V10.0645H30.5579ZM30.5579 10.4839V10.0645H30.965V10.4839H30.5579ZM30.965 10.4839V10.0645H31.372V10.4839H30.965ZM30.965 10.0645V9.64516H31.372V10.0645H30.965ZM31.372 10.0645V9.64516H31.7791V10.0645H31.372ZM31.372 10.4839V10.0645H31.7791V10.4839H31.372ZM31.372 9.64516V9.22581H31.7791V9.64516H31.372ZM31.7791 9.64516V9.22581H32.1861V9.64516H31.7791ZM31.7791 9.22581V8.80645H32.1861V9.22581H31.7791ZM31.372 9.22581V8.80645H31.7791V9.22581H31.372ZM32.1861 9.22581V8.80645H32.5932V9.22581H32.1861ZM32.1861 9.64516V9.22581H32.5932V9.64516H32.1861ZM32.1861 10.0645V9.64516H32.5932V10.0645H32.1861ZM32.1861 10.4839V10.0645H32.5932V10.4839H32.1861ZM31.7791 10.4839V10.0645H32.1861V10.4839H31.7791ZM31.7791 10.0645V9.64516H32.1861V10.0645H31.7791ZM32.5932 10.4839V10.0645H33.0002V10.4839H32.5932ZM33.4073 10.0645V9.64516H33.8144V10.0645H33.4073ZM33.4073 9.64516V9.22581H33.8144V9.64516H33.4073ZM33.4073 9.22581V8.80645H33.8144V9.22581H33.4073ZM33.0002 9.22581V8.80645H33.4073V9.22581H33.0002ZM32.5932 9.22581V8.80645H33.0002V9.22581H32.5932ZM32.5932 9.64516V9.22581H33.0002V9.64516H32.5932ZM32.5932 10.0645V9.64516H33.0002V10.0645H32.5932ZM33.0002 10.0645V9.64516H33.4073V10.0645H33.0002ZM33.0002 9.64516V9.22581H33.4073V9.64516H33.0002ZM33.8144 9.64516V9.22581H34.2214V9.64516H33.8144ZM33.8144 10.0645V9.64516H34.2214V10.0645H33.8144ZM34.2214 10.0645V9.64516H34.6285V10.0645H34.2214ZM34.2214 9.64516V9.22581H34.6285V9.64516H34.2214ZM34.6285 9.64516V9.22581H35.0355V9.64516H34.6285ZM34.6285 9.22581V8.80645H35.0355V9.22581H34.6285ZM34.6285 8.80645V8.3871H35.0355V8.80645H34.6285ZM34.2214 8.80645V8.3871H34.6285V8.80645H34.2214ZM34.2214 9.22581V8.80645H34.6285V9.22581H34.2214ZM33.8144 9.22581V8.80645H34.2214V9.22581H33.8144ZM33.8144 8.80645V8.3871H34.2214V8.80645H33.8144ZM33.4073 8.80645V8.3871H33.8144V8.80645H33.4073ZM35.0355 8.80645V8.3871H35.4426V8.80645H35.0355ZM35.0355 8.3871V7.96774H35.4426V8.3871H35.0355ZM35.0355 7.96774V7.54839H35.4426V7.96774H35.0355ZM35.0355 7.54839V7.12903H35.4426V7.54839H35.0355ZM35.0355 7.12903V6.70968H35.4426V7.12903H35.0355ZM35.0355 6.70968V6.29032H35.4426V6.70968H35.0355ZM35.0355 6.29032V5.87097H35.4426V6.29032H35.0355ZM35.0355 5.87097V5.45161H35.4426V5.87097H35.0355ZM35.0355 5.45161V5.03226H35.4426V5.45161H35.0355ZM35.0355 5.03226V4.6129H35.4426V5.03226H35.0355ZM34.6285 5.03226V4.6129H35.0355V5.03226H34.6285ZM34.6285 4.6129V4.19355H35.0355V4.6129H34.6285ZM35.0355 4.6129V4.19355H35.4426V4.6129H35.0355ZM34.2214 4.6129V4.19355H34.6285V4.6129H34.2214ZM33.8144 4.6129V4.19355H34.2214V4.6129H33.8144ZM33.4073 4.6129V4.19355H33.8144V4.6129H33.4073ZM33.0002 4.6129V4.19355H33.4073V4.6129H33.0002ZM33.4073 5.03226V4.6129H33.8144V5.03226H33.4073ZM33.4073 5.45161V5.03226H33.8144V5.45161H33.4073ZM33.4073 5.87097V5.45161H33.8144V5.87097H33.4073ZM33.4073 6.29032V5.87097H33.8144V6.29032H33.4073ZM33.4073 6.70968V6.29032H33.8144V6.70968H33.4073ZM33.4073 7.12903V6.70968H33.8144V7.12903H33.4073ZM33.4073 7.54839V7.12903H33.8144V7.54839H33.4073ZM33.4073 7.96774V7.54839H33.8144V7.96774H33.4073ZM33.4073 8.3871V7.96774H33.8144V8.3871H33.4073ZM33.8144 8.3871V7.96774H34.2214V8.3871H33.8144ZM34.2214 8.3871V7.96774H34.6285V8.3871H34.2214ZM34.6285 8.3871V7.96774H35.0355V8.3871H34.6285ZM34.6285 7.96774V7.54839H35.0355V7.96774H34.6285ZM34.6285 7.54839V7.12903H35.0355V7.54839H34.6285ZM34.6285 7.12903V6.70968H35.0355V7.12903H34.6285ZM34.6285 6.70968V6.29032H35.0355V6.70968H34.6285ZM34.6285 6.29032V5.87097H35.0355V6.29032H34.6285ZM34.6285 5.87097V5.45161H35.0355V5.87097H34.6285ZM34.6285 5.45161V5.03226H35.0355V5.45161H34.6285ZM34.2214 5.03226V4.6129H34.6285V5.03226H34.2214ZM33.8144 5.03226V4.6129H34.2214V5.03226H33.8144ZM33.8144 5.45161V5.03226H34.2214V5.45161H33.8144ZM33.8144 5.87097V5.45161H34.2214V5.87097H33.8144ZM33.8144 6.29032V5.87097H34.2214V6.29032H33.8144ZM33.8144 6.70968V6.29032H34.2214V6.70968H33.8144ZM34.2214 6.70968V6.29032H34.6285V6.70968H34.2214ZM34.2214 7.12903V6.70968H34.6285V7.12903H34.2214ZM34.2214 7.54839V7.12903H34.6285V7.54839H34.2214ZM34.2214 7.96774V7.54839H34.6285V7.96774H34.2214ZM33.8144 7.96774V7.54839H34.2214V7.96774H33.8144ZM33.8144 7.54839V7.12903H34.2214V7.54839H33.8144ZM33.8144 7.12903V6.70968H34.2214V7.12903H33.8144ZM34.2214 5.87097V5.45161H34.6285V5.87097H34.2214ZM34.2214 5.45161V5.03226H34.6285V5.45161H34.2214ZM34.2214 6.29032V5.87097H34.6285V6.29032H34.2214ZM30.5579 5.03226V4.6129H30.965V5.03226H30.5579ZM30.1508 5.03226V4.6129H30.5579V5.03226H30.1508ZM29.7438 5.03226V4.6129H30.1508V5.03226H29.7438ZM29.3367 5.03226V4.6129H29.7438V5.03226H29.3367ZM28.9297 5.03226V4.6129H29.3367V5.03226H28.9297ZM28.9297 4.6129V4.19355H29.3367V4.6129H28.9297ZM29.3367 4.6129V4.19355H29.7438V4.6129H29.3367ZM29.7438 4.6129V4.19355H30.1508V4.6129H29.7438ZM30.1508 4.6129V4.19355H30.5579V4.6129H30.1508ZM30.5579 4.6129V4.19355H30.965V4.6129H30.5579ZM30.965 4.6129V4.19355H31.372V4.6129H30.965ZM30.965 4.19355V3.77419H31.372V4.19355H30.965ZM30.5579 4.19355V3.77419H30.965V4.19355H30.5579ZM30.1508 4.19355V3.77419H30.5579V4.19355H30.1508ZM29.7438 4.19355V3.77419H30.1508V4.19355H29.7438ZM29.7438 3.77419V3.35484H30.1508V3.77419H29.7438ZM29.3367 3.77419V3.35484H29.7438V3.77419H29.3367ZM29.3367 4.19355V3.77419H29.7438V4.19355H29.3367ZM29.7438 3.35484V2.93548H30.1508V3.35484H29.7438ZM30.1508 3.35484V2.93548H30.5579V3.35484H30.1508ZM30.1508 3.77419V3.35484H30.5579V3.77419H30.1508ZM30.5579 3.77419V3.35484H30.965V3.77419H30.5579ZM30.5579 3.35484V2.93548H30.965V3.35484H30.5579ZM30.5579 2.93548V2.51613H30.965V2.93548H30.5579ZM30.965 2.93548V2.51613H31.372V2.93548H30.965ZM31.372 2.93548V2.51613H31.7791V2.93548H31.372ZM31.7791 2.93548V2.51613H32.1861V2.93548H31.7791ZM32.1861 2.93548V2.51613H32.5932V2.93548H32.1861ZM32.5932 2.93548V2.51613H33.0002V2.93548H32.5932ZM33.0002 2.93548V2.51613H33.4073V2.93548H33.0002ZM33.4073 2.93548V2.51613H33.8144V2.93548H33.4073ZM33.0002 3.35484V2.93548H33.4073V3.35484H33.0002ZM32.5932 3.35484V2.93548H33.0002V3.35484H32.5932ZM32.1861 3.35484V2.93548H32.5932V3.35484H32.1861ZM31.7791 3.35484V2.93548H32.1861V3.35484H31.7791ZM31.372 3.35484V2.93548H31.7791V3.35484H31.372ZM30.965 3.35484V2.93548H31.372V3.35484H30.965ZM30.965 3.77419V3.35484H31.372V3.77419H30.965ZM31.372 3.77419V3.35484H31.7791V3.77419H31.372ZM31.7791 3.77419V3.35484H32.1861V3.77419H31.7791ZM32.1861 3.77419V3.35484H32.5932V3.77419H32.1861ZM32.5932 3.77419V3.35484H33.0002V3.77419H32.5932ZM33.0002 3.77419V3.35484H33.4073V3.77419H33.0002ZM33.4073 3.35484V2.93548H33.8144V3.35484H33.4073ZM33.8144 3.35484V2.93548H34.2214V3.35484H33.8144ZM34.2214 3.35484V2.93548H34.6285V3.35484H34.2214ZM34.2214 3.77419V3.35484H34.6285V3.77419H34.2214ZM34.6285 3.77419V3.35484H35.0355V3.77419H34.6285ZM34.6285 4.19355V3.77419H35.0355V4.19355H34.6285ZM34.2214 4.19355V3.77419H34.6285V4.19355H34.2214ZM33.8144 4.19355V3.77419H34.2214V4.19355H33.8144ZM33.4073 4.19355V3.77419H33.8144V4.19355H33.4073ZM33.0002 4.19355V3.77419H33.4073V4.19355H33.0002ZM32.5932 4.19355V3.77419H33.0002V4.19355H32.5932ZM32.1861 4.19355V3.77419H32.5932V4.19355H32.1861ZM31.7791 4.19355V3.77419H32.1861V4.19355H31.7791ZM31.372 4.19355V3.77419H31.7791V4.19355H31.372ZM33.4073 3.77419V3.35484H33.8144V3.77419H33.4073ZM33.8144 3.77419V3.35484H34.2214V3.77419H33.8144ZM29.3367 7.54839V7.12903H29.7438V7.54839H29.3367ZM29.7438 7.54839V7.12903H30.1508V7.54839H29.7438ZM30.1508 7.54839V7.12903H30.5579V7.54839H30.1508ZM30.5579 7.54839V7.12903H30.965V7.54839H30.5579ZM29.7438 7.12903V6.70968H30.1508V7.12903H29.7438ZM30.1508 7.12903V6.70968H30.5579V7.12903H30.1508ZM30.965 7.12903V6.70968H31.372V7.12903H30.965ZM31.372 7.12903V6.70968H31.7791V7.12903H31.372ZM31.7791 7.12903V6.70968H32.1861V7.12903H31.7791ZM32.1861 7.12903V6.70968H32.5932V7.12903H32.1861ZM32.5932 7.12903V6.70968H33.0002V7.12903H32.5932ZM33.0002 7.12903V6.70968H33.4073V7.12903H33.0002ZM30.5579 7.12903V6.70968H30.965V7.12903H30.5579ZM29.3367 7.12903V6.70968H29.7438V7.12903H29.3367ZM29.7438 6.70968V6.29032H30.1508V6.70968H29.7438ZM30.1508 6.70968V6.29032H30.5579V6.70968H30.1508ZM30.5579 6.70968V6.29032H30.965V6.70968H30.5579ZM30.965 6.70968V6.29032H31.372V6.70968H30.965ZM31.372 6.70968V6.29032H31.7791V6.70968H31.372ZM31.7791 6.70968V6.29032H32.1861V6.70968H31.7791ZM32.1861 6.70968V6.29032H32.5932V6.70968H32.1861ZM32.5932 6.70968V6.29032H33.0002V6.70968H32.5932ZM33.0002 6.70968V6.29032H33.4073V6.70968H33.0002ZM33.0002 6.29032V5.87097H33.4073V6.29032H33.0002ZM32.5932 6.29032V5.87097H33.0002V6.29032H32.5932ZM32.1861 6.29032V5.87097H32.5932V6.29032H32.1861ZM31.372 6.29032V5.87097H31.7791V6.29032H31.372ZM30.965 6.29032V5.87097H31.372V6.29032H30.965ZM30.5579 6.29032V5.87097H30.965V6.29032H30.5579ZM31.7791 6.29032V5.87097H32.1861V6.29032H31.7791ZM35.4426 8.80645V9.22581H35.0355V8.80645H35.4426ZM35.4426 9.22581V9.64516H35.0355V9.22581H35.4426ZM35.4426 9.64516V10.0645H35.0355V9.64516H35.4426ZM35.4426 10.0645V10.4839H35.0355V10.0645H35.4426ZM35.0355 10.0645V10.4839H34.6285V10.0645H35.0355ZM35.0355 9.64516V10.0645H34.6285V9.64516H35.0355ZM34.6285 10.0645V10.4839H34.2214V10.0645H34.6285ZM34.2214 10.0645V10.4839H33.8144V10.0645H34.2214ZM33.8144 10.0645V10.4839H33.4073V10.0645H33.8144ZM33.4073 8.3871V8.80645H33.0002V8.3871H33.4073ZM30.5579 10.0645V10.4839H30.1508V10.0645H30.5579ZM31.372 7.12903V7.54839H30.965V7.12903H31.372Z" fill="white"/>
<path d="M41.1489 3.77419V4.19355H40.7419V3.77419H41.1489ZM41.1489 3.35484V3.77419H40.7419V3.35484H41.1489ZM41.1489 2.93548V3.35484H40.7419V2.93548H41.1489ZM40.7419 2.93548V3.35484H40.3348V2.93548H40.7419ZM40.7419 2.51613V2.93548H40.3348V2.51613H40.7419ZM40.7419 3.35484V3.77419H40.3348V3.35484H40.7419ZM40.3348 3.35484V3.77419H39.9278V3.35484H40.3348ZM40.3348 3.77419V4.19355H39.9278V3.77419H40.3348ZM40.7419 3.77419V4.19355H40.3348V3.77419H40.7419ZM39.9278 3.77419V4.19355H39.5207V3.77419H39.9278ZM39.9278 3.35484V3.77419H39.5207V3.35484H39.9278ZM39.9278 2.93548V3.35484H39.5207V2.93548H39.9278ZM39.9278 2.51613V2.93548H39.5207V2.51613H39.9278ZM40.3348 2.51613V2.93548H39.9278V2.51613H40.3348ZM40.3348 2.93548V3.35484H39.9278V2.93548H40.3348ZM39.5207 2.51613V2.93548H39.1136V2.51613H39.5207ZM39.1136 2.51613V2.93548H38.7066V2.51613H39.1136ZM38.7066 2.51613V2.93548H38.2995V2.51613H38.7066ZM38.7066 2.93548V3.35484H38.2995V2.93548H38.7066ZM38.7066 3.35484V3.77419H38.2995V3.35484H38.7066ZM38.7066 3.77419V4.19355H38.2995V3.77419H38.7066ZM39.1136 3.77419V4.19355H38.7066V3.77419H39.1136ZM39.5207 3.77419V4.19355H39.1136V3.77419H39.5207ZM39.5207 3.35484V3.77419H39.1136V3.35484H39.5207ZM39.5207 2.93548V3.35484H39.1136V2.93548H39.5207ZM39.1136 2.93548V3.35484H38.7066V2.93548H39.1136ZM39.1136 3.35484V3.77419H38.7066V3.35484H39.1136ZM38.2995 3.35484V3.77419H37.8925V3.35484H38.2995ZM38.2995 2.93548V3.35484H37.8925V2.93548H38.2995ZM37.8925 2.93548V3.35484H37.4854V2.93548H37.8925ZM37.8925 3.35484V3.77419H37.4854V3.35484H37.8925ZM37.4854 3.35484V3.77419H37.0784V3.35484H37.4854ZM37.4854 3.77419V4.19355H37.0784V3.77419H37.4854ZM37.4854 4.19355V4.6129H37.0784V4.19355H37.4854ZM37.8925 4.19355V4.6129H37.4854V4.19355H37.8925ZM37.8925 3.77419V4.19355H37.4854V3.77419H37.8925ZM38.2995 3.77419V4.19355H37.8925V3.77419H38.2995ZM38.2995 4.19355V4.6129H37.8925V4.19355H38.2995ZM38.7066 4.19355V4.6129H38.2995V4.19355H38.7066ZM39.1136 4.19355V4.6129H38.7066V4.19355H39.1136ZM37.0784 4.19355V4.6129H36.6713V4.19355H37.0784ZM37.0784 4.6129V5.03226H36.6713V4.6129H37.0784ZM37.0784 5.03226V5.45161H36.6713V5.03226H37.0784ZM37.0784 5.45161V5.87097H36.6713V5.45161H37.0784ZM37.0784 5.87097V6.29032H36.6713V5.87097H37.0784ZM37.0784 6.29032V6.70968H36.6713V6.29032H37.0784ZM37.0784 6.70968V7.12903H36.6713V6.70968H37.0784ZM37.0784 7.12903V7.54839H36.6713V7.12903H37.0784ZM37.0784 7.54839V7.96774H36.6713V7.54839H37.0784ZM37.0784 7.96774V8.3871H36.6713V7.96774H37.0784ZM37.4854 7.96774V8.3871H37.0784V7.96774H37.4854ZM37.4854 8.3871V8.80645H37.0784V8.3871H37.4854ZM37.0784 8.3871V8.80645H36.6713V8.3871H37.0784ZM37.8925 8.3871V8.80645H37.4854V8.3871H37.8925ZM38.2995 8.3871V8.80645H37.8925V8.3871H38.2995ZM38.7066 8.3871V8.80645H38.2995V8.3871H38.7066ZM39.1136 8.3871V8.80645H38.7066V8.3871H39.1136ZM38.7066 7.96774V8.3871H38.2995V7.96774H38.7066ZM38.7066 7.54839V7.96774H38.2995V7.54839H38.7066ZM38.7066 7.12903V7.54839H38.2995V7.12903H38.7066ZM38.7066 6.70968V7.12903H38.2995V6.70968H38.7066ZM38.7066 6.29032V6.70968H38.2995V6.29032H38.7066ZM38.7066 5.87097V6.29032H38.2995V5.87097H38.7066ZM38.7066 5.45161V5.87097H38.2995V5.45161H38.7066ZM38.7066 5.03226V5.45161H38.2995V5.03226H38.7066ZM38.7066 4.6129V5.03226H38.2995V4.6129H38.7066ZM38.2995 4.6129V5.03226H37.8925V4.6129H38.2995ZM37.8925 4.6129V5.03226H37.4854V4.6129H37.8925ZM37.4854 4.6129V5.03226H37.0784V4.6129H37.4854ZM37.4854 5.03226V5.45161H37.0784V5.03226H37.4854ZM37.4854 5.45161V5.87097H37.0784V5.45161H37.4854ZM37.4854 5.87097V6.29032H37.0784V5.87097H37.4854ZM37.4854 6.29032V6.70968H37.0784V6.29032H37.4854ZM37.4854 6.70968V7.12903H37.0784V6.70968H37.4854ZM37.4854 7.12903V7.54839H37.0784V7.12903H37.4854ZM37.4854 7.54839V7.96774H37.0784V7.54839H37.4854ZM37.8925 7.96774V8.3871H37.4854V7.96774H37.8925ZM38.2995 7.96774V8.3871H37.8925V7.96774H38.2995ZM38.2995 7.54839V7.96774H37.8925V7.54839H38.2995ZM38.2995 7.12903V7.54839H37.8925V7.12903H38.2995ZM38.2995 6.70968V7.12903H37.8925V6.70968H38.2995ZM38.2995 6.29032V6.70968H37.8925V6.29032H38.2995ZM37.8925 6.29032V6.70968H37.4854V6.29032H37.8925ZM37.8925 5.87097V6.29032H37.4854V5.87097H37.8925ZM37.8925 5.45161V5.87097H37.4854V5.45161H37.8925ZM37.8925 5.03226V5.45161H37.4854V5.03226H37.8925ZM38.2995 5.03226V5.45161H37.8925V5.03226H38.2995ZM38.2995 5.45161V5.87097H37.8925V5.45161H38.2995ZM38.2995 5.87097V6.29032H37.8925V5.87097H38.2995ZM37.8925 7.12903V7.54839H37.4854V7.12903H37.8925ZM37.8925 7.54839V7.96774H37.4854V7.54839H37.8925ZM37.8925 6.70968V7.12903H37.4854V6.70968H37.8925ZM41.1489 8.80645V9.22581H40.7419V8.80645H41.1489ZM40.7419 10.0645V10.4839H40.3348V10.0645H40.7419ZM40.3348 10.0645V10.4839H39.9278V10.0645H40.3348ZM39.9278 10.0645V10.4839H39.5207V10.0645H39.9278ZM39.5207 10.0645V10.4839H39.1136V10.0645H39.5207ZM39.1136 10.0645V10.4839H38.7066V10.0645H39.1136ZM38.7066 10.0645V10.4839H38.2995V10.0645H38.7066ZM39.1136 9.64516V10.0645H38.7066V9.64516H39.1136ZM39.5207 9.64516V10.0645H39.1136V9.64516H39.5207ZM39.9278 9.64516V10.0645H39.5207V9.64516H39.9278ZM40.3348 9.64516V10.0645H39.9278V9.64516H40.3348ZM40.7419 9.64516V10.0645H40.3348V9.64516H40.7419ZM41.1489 9.64516V10.0645H40.7419V9.64516H41.1489ZM41.1489 9.22581V9.64516H40.7419V9.22581H41.1489ZM40.7419 9.22581V9.64516H40.3348V9.22581H40.7419ZM40.3348 9.22581V9.64516H39.9278V9.22581H40.3348ZM39.9278 9.22581V9.64516H39.5207V9.22581H39.9278ZM39.5207 9.22581V9.64516H39.1136V9.22581H39.5207ZM39.1136 9.22581V9.64516H38.7066V9.22581H39.1136ZM38.7066 9.64516V10.0645H38.2995V9.64516H38.7066ZM38.2995 9.64516V10.0645H37.8925V9.64516H38.2995ZM37.8925 9.64516V10.0645H37.4854V9.64516H37.8925ZM37.8925 9.22581V9.64516H37.4854V9.22581H37.8925ZM37.4854 9.22581V9.64516H37.0784V9.22581H37.4854ZM37.4854 8.80645V9.22581H37.0784V8.80645H37.4854ZM37.8925 8.80645V9.22581H37.4854V8.80645H37.8925ZM38.2995 8.80645V9.22581H37.8925V8.80645H38.2995ZM38.7066 8.80645V9.22581H38.2995V8.80645H38.7066ZM39.1136 8.80645V9.22581H38.7066V8.80645H39.1136ZM39.5207 8.80645V9.22581H39.1136V8.80645H39.5207ZM39.9278 8.80645V9.22581H39.5207V8.80645H39.9278ZM40.3348 8.80645V9.22581H39.9278V8.80645H40.3348ZM40.7419 8.80645V9.22581H40.3348V8.80645H40.7419ZM38.7066 9.22581V9.64516H38.2995V9.22581H38.7066ZM38.2995 9.22581V9.64516H37.8925V9.22581H38.2995ZM41.556 9.22581V9.64516H41.1489V9.22581H41.556ZM41.556 8.80645V9.22581H41.1489V8.80645H41.556ZM41.556 8.3871V8.80645H41.1489V8.3871H41.556ZM41.556 7.96774V8.3871H41.1489V7.96774H41.556ZM41.556 7.54839V7.96774H41.1489V7.54839H41.556ZM41.556 7.12903V7.54839H41.1489V7.12903H41.556ZM41.556 6.70968V7.12903H41.1489V6.70968H41.556ZM41.556 6.29032V6.70968H41.1489V6.29032H41.556ZM41.556 5.87097V6.29032H41.1489V5.87097H41.556ZM41.556 5.45161V5.87097H41.1489V5.45161H41.556ZM41.556 5.03226V5.45161H41.1489V5.03226H41.556ZM41.556 4.6129V5.03226H41.1489V4.6129H41.556ZM41.556 4.19355V4.6129H41.1489V4.19355H41.556ZM41.963 4.19355V4.6129H41.556V4.19355H41.963ZM41.963 4.6129V5.03226H41.556V4.6129H41.963ZM41.963 5.03226V5.45161H41.556V5.03226H41.963ZM41.963 5.45161V5.87097H41.556V5.45161H41.963ZM41.963 5.87097V6.29032H41.556V5.87097H41.963ZM41.963 6.29032V6.70968H41.556V6.29032H41.963ZM41.963 6.70968V7.12903H41.556V6.70968H41.963ZM42.3701 7.12903V7.54839H41.963V7.12903H42.3701ZM42.3701 7.54839V7.96774H41.963V7.54839H42.3701ZM42.3701 7.96774V8.3871H41.963V7.96774H42.3701ZM42.3701 8.3871V8.80645H41.963V8.3871H42.3701ZM42.3701 8.80645V9.22581H41.963V8.80645H42.3701ZM42.3701 9.22581V9.64516H41.963V9.22581H42.3701ZM42.3701 9.64516V10.0645H41.963V9.64516H42.3701ZM42.3701 10.0645V10.4839H41.963V10.0645H42.3701ZM42.7772 10.0645V10.4839H42.3701V10.0645H42.7772ZM43.1842 10.0645V10.4839H42.7772V10.0645H43.1842ZM43.1842 9.64516V10.0645H42.7772V9.64516H43.1842ZM43.1842 9.22581V9.64516H42.7772V9.22581H43.1842ZM43.1842 8.80645V9.22581H42.7772V8.80645H43.1842ZM43.1842 8.3871V8.80645H42.7772V8.3871H43.1842ZM43.1842 7.96774V8.3871H42.7772V7.96774H43.1842ZM43.1842 7.54839V7.96774H42.7772V7.54839H43.1842ZM43.1842 7.12903V7.54839H42.7772V7.12903H43.1842ZM42.7772 7.12903V7.54839H42.3701V7.12903H42.7772ZM42.7772 6.70968V7.12903H42.3701V6.70968H42.7772ZM42.7772 7.54839V7.96774H42.3701V7.54839H42.7772ZM42.7772 7.96774V8.3871H42.3701V7.96774H42.7772ZM42.7772 8.3871V8.80645H42.3701V8.3871H42.7772ZM42.7772 8.80645V9.22581H42.3701V8.80645H42.7772ZM42.7772 9.22581V9.64516H42.3701V9.22581H42.7772ZM42.7772 9.64516V10.0645H42.3701V9.64516H42.7772ZM41.963 9.22581V9.64516H41.556V9.22581H41.963ZM41.963 8.80645V9.22581H41.556V8.80645H41.963ZM41.963 8.3871V8.80645H41.556V8.3871H41.963ZM41.963 7.96774V8.3871H41.556V7.96774H41.963ZM41.963 7.54839V7.96774H41.556V7.54839H41.963ZM41.963 7.12903V7.54839H41.556V7.12903H41.963ZM41.556 0V0.419355H41.1489V0H41.556ZM41.556 0.419355V0.83871H41.1489V0.419355H41.556ZM41.556 0.83871V1.25807H41.1489V0.83871H41.556ZM41.556 1.25807V1.67742H41.1489V1.25807H41.556ZM41.556 1.67742V2.09677H41.1489V1.67742H41.556ZM41.556 2.09677V2.51613H41.1489V2.09677H41.556ZM41.556 2.93548V3.35484H41.1489V2.93548H41.556ZM41.556 3.77419V4.19355H41.1489V3.77419H41.556ZM42.7772 0V0.419355H42.3701V0H42.7772ZM42.7772 0.419355V0.83871H42.3701V0.419355H42.7772ZM42.7772 0.83871V1.25807H42.3701V0.83871H42.7772ZM42.7772 1.25807V1.67742H42.3701V1.25807H42.7772ZM42.7772 1.67742V2.09677H42.3701V1.67742H42.7772ZM42.7772 2.09677V2.51613H42.3701V2.09677H42.7772ZM42.7772 2.93548V3.35484H42.3701V2.93548H42.7772ZM42.7772 3.35484V3.77419H42.3701V3.35484H42.7772ZM42.7772 3.77419V4.19355H42.3701V3.77419H42.7772ZM42.7772 4.6129V5.03226H42.3701V4.6129H42.7772ZM42.7772 5.03226V5.45161H42.3701V5.03226H42.7772ZM42.7772 5.45161V5.87097H42.3701V5.45161H42.7772ZM43.1842 5.87097V6.29032H42.7772V5.87097H43.1842ZM43.1842 6.29032V6.70968H42.7772V6.29032H43.1842ZM43.1842 6.70968V7.12903H42.7772V6.70968H43.1842ZM43.1842 5.45161V5.87097H42.7772V5.45161H43.1842ZM43.1842 5.03226V5.45161H42.7772V5.03226H43.1842ZM43.1842 4.19355V4.6129H42.7772V4.19355H43.1842ZM43.1842 3.77419V4.19355H42.7772V3.77419H43.1842ZM43.1842 3.35484V3.77419H42.7772V3.35484H43.1842ZM43.1842 2.93548V3.35484H42.7772V2.93548H43.1842ZM43.1842 2.51613V2.93548H42.7772V2.51613H43.1842ZM43.1842 2.09677V2.51613H42.7772V2.09677H43.1842ZM43.1842 1.67742V2.09677H42.7772V1.67742H43.1842ZM42.7772 2.51613V2.93548H42.3701V2.51613H42.7772ZM43.1842 1.25807V1.67742H42.7772V1.25807H43.1842ZM43.1842 0.83871V1.25807H42.7772V0.83871H43.1842ZM43.1842 0.419355V0.83871H42.7772V0.419355H43.1842ZM43.1842 0V0.419355H42.7772V0H43.1842ZM42.3701 0V0.419355H41.963V0H42.3701ZM41.963 0V0.419355H41.556V0H41.963ZM41.963 0.419355V0.83871H41.556V0.419355H41.963ZM42.3701 0.419355V0.83871H41.963V0.419355H42.3701ZM42.3701 0.83871V1.25807H41.963V0.83871H42.3701ZM42.3701 1.25807V1.67742H41.963V1.25807H42.3701ZM42.3701 1.67742V2.09677H41.963V1.67742H42.3701ZM42.3701 2.09677V2.51613H41.963V2.09677H42.3701ZM42.3701 2.51613V2.93548H41.963V2.51613H42.3701ZM42.3701 2.93548V3.35484H41.963V2.93548H42.3701ZM41.963 3.35484V3.77419H41.556V3.35484H41.963ZM41.963 3.77419V4.19355H41.556V3.77419H41.963ZM41.963 2.93548V3.35484H41.556V2.93548H41.963ZM41.963 2.51613V2.93548H41.556V2.51613H41.963ZM41.963 2.09677V2.51613H41.556V2.09677H41.963ZM41.963 1.67742V2.09677H41.556V1.67742H41.963ZM41.963 1.25807V1.67742H41.556V1.25807H41.963ZM41.963 0.83871V1.25807H41.556V0.83871H41.963ZM42.3701 3.77419V4.19355H41.963V3.77419H42.3701ZM42.3701 4.6129V5.03226H41.963V4.6129H42.3701ZM42.3701 5.03226V5.45161H41.963V5.03226H42.3701ZM42.3701 5.45161V5.87097H41.963V5.45161H42.3701ZM42.3701 5.87097V6.29032H41.963V5.87097H42.3701ZM42.3701 6.29032V6.70968H41.963V6.29032H42.3701ZM42.3701 6.70968V7.12903H41.963V6.70968H42.3701ZM42.7772 6.29032V6.70968H42.3701V6.29032H42.7772ZM42.7772 5.87097V6.29032H42.3701V5.87097H42.7772ZM41.556 2.51613V2.93548H41.1489V2.51613H41.556ZM43.1842 4.6129V5.03226H42.7772V4.6129H43.1842ZM41.556 3.35484V3.77419H41.1489V3.35484H41.556ZM42.3701 3.35484V3.77419H41.963V3.35484H42.3701ZM42.3701 4.19355V4.6129H41.963V4.19355H42.3701ZM42.7772 4.19355V4.6129H42.3701V4.19355H42.7772ZM41.556 9.64516V10.0645H41.1489V9.64516H41.556ZM41.963 9.64516V10.0645H41.556V9.64516H41.963ZM41.963 10.0645V10.4839H41.556V10.0645H41.963ZM41.1489 2.51613V2.93548H40.7419V2.51613H41.1489ZM41.1489 8.3871V8.80645H40.7419V8.3871H41.1489ZM41.556 10.0645V10.4839H41.1489V10.0645H41.556Z" fill="white"/>
<path d="M45.2271 10.0645V10.4839H44.82V10.0645H45.2271ZM45.2271 9.64516V10.0645H44.82V9.64516H45.2271ZM45.2271 9.22581V9.64516H44.82V9.22581H45.2271ZM45.2271 8.80645V9.22581H44.82V8.80645H45.2271ZM45.2271 8.3871V8.80645H44.82V8.3871H45.2271ZM45.2271 7.96774V8.3871H44.82V7.96774H45.2271ZM45.2271 7.54839V7.96774H44.82V7.54839H45.2271ZM45.2271 7.12903V7.54839H44.82V7.12903H45.2271ZM45.2271 6.70968V7.12903H44.82V6.70968H45.2271ZM45.2271 6.29032V6.70968H44.82V6.29032H45.2271ZM45.2271 5.87097V6.29032H44.82V5.87097H45.2271ZM45.2271 5.45161V5.87097H44.82V5.45161H45.2271ZM45.2271 5.03226V5.45161H44.82V5.03226H45.2271ZM45.2271 4.6129V5.03226H44.82V4.6129H45.2271ZM45.2271 4.19355V4.6129H44.82V4.19355H45.2271ZM45.6341 4.19355V4.6129H45.2271V4.19355H45.6341ZM45.6341 4.6129V5.03226H45.2271V4.6129H45.6341ZM45.6341 5.03226V5.45161H45.2271V5.03226H45.6341ZM45.6341 5.45161V5.87097H45.2271V5.45161H45.6341ZM45.6341 5.87097V6.29032H45.2271V5.87097H45.6341ZM45.6341 6.29032V6.70968H45.2271V6.29032H45.6341ZM45.6341 6.70968V7.12903H45.2271V6.70968H45.6341ZM46.0412 7.12903V7.54839H45.6341V7.12903H46.0412ZM46.0412 7.54839V7.96774H45.6341V7.54839H46.0412ZM46.0412 7.96774V8.3871H45.6341V7.96774H46.0412ZM46.0412 8.3871V8.80645H45.6341V8.3871H46.0412ZM46.0412 8.80645V9.22581H45.6341V8.80645H46.0412ZM46.0412 9.22581V9.64516H45.6341V9.22581H46.0412ZM46.0412 9.64516V10.0645H45.6341V9.64516H46.0412ZM46.0412 10.0645V10.4839H45.6341V10.0645H46.0412ZM46.4482 10.0645V10.4839H46.0412V10.0645H46.4482ZM46.8553 10.0645V10.4839H46.4482V10.0645H46.8553ZM46.8553 9.64516V10.0645H46.4482V9.64516H46.8553ZM46.8553 9.22581V9.64516H46.4482V9.22581H46.8553ZM46.8553 8.80645V9.22581H46.4482V8.80645H46.8553ZM46.8553 8.3871V8.80645H46.4482V8.3871H46.8553ZM46.8553 7.96774V8.3871H46.4482V7.96774H46.8553ZM46.8553 7.54839V7.96774H46.4482V7.54839H46.8553ZM46.8553 7.12903V7.54839H46.4482V7.12903H46.8553ZM46.4482 7.12903V7.54839H46.0412V7.12903H46.4482ZM46.4482 6.70968V7.12903H46.0412V6.70968H46.4482ZM46.4482 7.54839V7.96774H46.0412V7.54839H46.4482ZM46.4482 7.96774V8.3871H46.0412V7.96774H46.4482ZM46.4482 8.3871V8.80645H46.0412V8.3871H46.4482ZM46.4482 8.80645V9.22581H46.0412V8.80645H46.4482ZM46.4482 9.22581V9.64516H46.0412V9.22581H46.4482ZM46.4482 9.64516V10.0645H46.0412V9.64516H46.4482ZM45.6341 10.0645V10.4839H45.2271V10.0645H45.6341ZM45.6341 9.64516V10.0645H45.2271V9.64516H45.6341ZM45.6341 9.22581V9.64516H45.2271V9.22581H45.6341ZM45.6341 8.80645V9.22581H45.2271V8.80645H45.6341ZM45.6341 8.3871V8.80645H45.2271V8.3871H45.6341ZM45.6341 7.96774V8.3871H45.2271V7.96774H45.6341ZM45.6341 7.54839V7.96774H45.2271V7.54839H45.6341ZM45.6341 7.12903V7.54839H45.2271V7.12903H45.6341ZM45.2271 0V0.419355H44.82V0H45.2271ZM45.2271 0.419355V0.83871H44.82V0.419355H45.2271ZM45.2271 0.83871V1.25807H44.82V0.83871H45.2271ZM45.2271 1.25807V1.67742H44.82V1.25807H45.2271ZM45.2271 1.67742V2.09677H44.82V1.67742H45.2271ZM45.2271 2.09677V2.51613H44.82V2.09677H45.2271ZM45.2271 2.51613V2.93548H44.82V2.51613H45.2271ZM45.2271 2.93548V3.35484H44.82V2.93548H45.2271ZM45.2271 3.35484V3.77419H44.82V3.35484H45.2271ZM45.2271 3.77419V4.19355H44.82V3.77419H45.2271ZM46.4482 0V0.419355H46.0412V0H46.4482ZM46.4482 0.419355V0.83871H46.0412V0.419355H46.4482ZM46.4482 0.83871V1.25807H46.0412V0.83871H46.4482ZM46.4482 1.25807V1.67742H46.0412V1.25807H46.4482ZM46.4482 1.67742V2.09677H46.0412V1.67742H46.4482ZM46.4482 2.09677V2.51613H46.0412V2.09677H46.4482ZM46.4482 2.93548V3.35484H46.0412V2.93548H46.4482ZM46.4482 3.35484V3.77419H46.0412V3.35484H46.4482ZM46.4482 3.77419V4.19355H46.0412V3.77419H46.4482ZM46.4482 4.19355V4.6129H46.0412V4.19355H46.4482ZM46.4482 4.6129V5.03226H46.0412V4.6129H46.4482ZM46.4482 5.03226V5.45161H46.0412V5.03226H46.4482ZM46.4482 5.45161V5.87097H46.0412V5.45161H46.4482ZM46.8553 5.87097V6.29032H46.4482V5.87097H46.8553ZM46.8553 6.29032V6.70968H46.4482V6.29032H46.8553ZM46.8553 6.70968V7.12903H46.4482V6.70968H46.8553ZM46.8553 5.45161V5.87097H46.4482V5.45161H46.8553ZM46.8553 5.03226V5.45161H46.4482V5.03226H46.8553ZM46.8553 4.6129V5.03226H46.4482V4.6129H46.8553ZM46.8553 4.19355V4.6129H46.4482V4.19355H46.8553ZM46.8553 3.77419V4.19355H46.4482V3.77419H46.8553ZM46.8553 3.35484V3.77419H46.4482V3.35484H46.8553ZM46.8553 2.93548V3.35484H46.4482V2.93548H46.8553ZM46.8553 2.51613V2.93548H46.4482V2.51613H46.8553ZM46.8553 2.09677V2.51613H46.4482V2.09677H46.8553ZM46.8553 1.67742V2.09677H46.4482V1.67742H46.8553ZM46.4482 2.51613V2.93548H46.0412V2.51613H46.4482ZM46.8553 1.25807V1.67742H46.4482V1.25807H46.8553ZM46.8553 0.83871V1.25807H46.4482V0.83871H46.8553ZM46.8553 0.419355V0.83871H46.4482V0.419355H46.8553ZM46.8553 0V0.419355H46.4482V0H46.8553ZM46.0412 0V0.419355H45.6341V0H46.0412ZM45.6341 0V0.419355H45.2271V0H45.6341ZM45.6341 0.419355V0.83871H45.2271V0.419355H45.6341ZM46.0412 0.419355V0.83871H45.6341V0.419355H46.0412ZM46.0412 0.83871V1.25807H45.6341V0.83871H46.0412ZM46.0412 1.25807V1.67742H45.6341V1.25807H46.0412ZM46.0412 1.67742V2.09677H45.6341V1.67742H46.0412ZM46.0412 2.09677V2.51613H45.6341V2.09677H46.0412ZM46.0412 2.51613V2.93548H45.6341V2.51613H46.0412ZM46.0412 2.93548V3.35484H45.6341V2.93548H46.0412ZM45.6341 3.35484V3.77419H45.2271V3.35484H45.6341ZM45.6341 3.77419V4.19355H45.2271V3.77419H45.6341ZM45.6341 2.93548V3.35484H45.2271V2.93548H45.6341ZM45.6341 2.51613V2.93548H45.2271V2.51613H45.6341ZM45.6341 2.09677V2.51613H45.2271V2.09677H45.6341ZM45.6341 1.67742V2.09677H45.2271V1.67742H45.6341ZM45.6341 1.25807V1.67742H45.2271V1.25807H45.6341ZM45.6341 0.83871V1.25807H45.2271V0.83871H45.6341ZM46.0412 3.35484V3.77419H45.6341V3.35484H46.0412ZM46.0412 3.77419V4.19355H45.6341V3.77419H46.0412ZM46.0412 4.19355V4.6129H45.6341V4.19355H46.0412ZM46.0412 4.6129V5.03226H45.6341V4.6129H46.0412ZM46.0412 5.03226V5.45161H45.6341V5.03226H46.0412ZM46.0412 5.45161V5.87097H45.6341V5.45161H46.0412ZM46.0412 5.87097V6.29032H45.6341V5.87097H46.0412ZM46.0412 6.29032V6.70968H45.6341V6.29032H46.0412ZM46.0412 6.70968V7.12903H45.6341V6.70968H46.0412ZM46.4482 6.29032V6.70968H46.0412V6.29032H46.4482ZM46.4482 5.87097V6.29032H46.0412V5.87097H46.4482Z" fill="white"/>
<path d="M48.8941 2.51613V2.93548H48.4871V2.51613H48.8941ZM49.3012 2.51613V2.93548H48.8941V2.51613H49.3012ZM49.7083 2.51613V2.93548H49.3012V2.51613H49.7083ZM50.1153 2.51613V2.93548H49.7083V2.51613H50.1153ZM50.1153 2.93548V3.35484H49.7083V2.93548H50.1153ZM50.5224 2.93548V3.35484H50.1153V2.93548H50.5224ZM50.5224 3.35484V3.77419H50.1153V3.35484H50.5224ZM50.5224 2.51613V2.93548H50.1153V2.51613H50.5224ZM50.5224 3.77419V4.19355H50.1153V3.77419H50.5224ZM50.5224 4.19355V4.6129H50.1153V4.19355H50.5224ZM50.5224 4.6129V5.03226H50.1153V4.6129H50.5224ZM50.5224 5.03226V5.45161H50.1153V5.03226H50.5224ZM50.5224 5.45161V5.87097H50.1153V5.45161H50.5224ZM50.5224 5.87097V6.29032H50.1153V5.87097H50.5224ZM50.5224 6.29032V6.70968H50.1153V6.29032H50.5224ZM50.5224 6.70968V7.12903H50.1153V6.70968H50.5224ZM50.5224 7.12903V7.54839H50.1153V7.12903H50.5224ZM50.1153 7.12903V7.54839H49.7083V7.12903H50.1153ZM49.7083 7.54839V7.96774H49.3012V7.54839H49.7083ZM49.3012 7.54839V7.96774H48.8941V7.54839H49.3012ZM48.8941 7.54839V7.96774H48.4871V7.54839H48.8941ZM48.8941 7.12903V7.54839H48.4871V7.12903H48.8941ZM48.8941 6.70968V7.12903H48.4871V6.70968H48.8941ZM48.8941 6.29032V6.70968H48.4871V6.29032H48.8941ZM48.8941 5.87097V6.29032H48.4871V5.87097H48.8941ZM49.3012 5.87097V6.29032H48.8941V5.87097H49.3012ZM49.3012 5.45161V5.87097H48.8941V5.45161H49.3012ZM49.3012 5.03226V5.45161H48.8941V5.03226H49.3012ZM49.3012 4.6129V5.03226H48.8941V4.6129H49.3012ZM49.3012 4.19355V4.6129H48.8941V4.19355H49.3012ZM49.3012 3.77419V4.19355H48.8941V3.77419H49.3012ZM49.3012 3.35484V3.77419H48.8941V3.35484H49.3012ZM49.3012 2.93548V3.35484H48.8941V2.93548H49.3012ZM48.8941 2.93548V3.35484H48.4871V2.93548H48.8941ZM48.8941 3.35484V3.77419H48.4871V3.35484H48.8941ZM48.8941 3.77419V4.19355H48.4871V3.77419H48.8941ZM48.8941 4.19355V4.6129H48.4871V4.19355H48.8941ZM48.8941 4.6129V5.03226H48.4871V4.6129H48.8941ZM48.8941 5.03226V5.45161H48.4871V5.03226H48.8941ZM48.8941 5.45161V5.87097H48.4871V5.45161H48.8941ZM49.7083 4.6129V5.03226H49.3012V4.6129H49.7083ZM49.7083 4.19355V4.6129H49.3012V4.19355H49.7083ZM49.7083 3.77419V4.19355H49.3012V3.77419H49.7083ZM49.7083 3.35484V3.77419H49.3012V3.35484H49.7083ZM49.7083 2.93548V3.35484H49.3012V2.93548H49.7083ZM50.1153 4.6129V5.03226H49.7083V4.6129H50.1153ZM50.1153 5.03226V5.45161H49.7083V5.03226H50.1153ZM50.1153 4.19355V4.6129H49.7083V4.19355H50.1153ZM50.1153 3.77419V4.19355H49.7083V3.77419H50.1153ZM50.1153 3.35484V3.77419H49.7083V3.35484H50.1153ZM49.7083 5.87097V6.29032H49.3012V5.87097H49.7083ZM49.7083 5.45161V5.87097H49.3012V5.45161H49.7083ZM49.7083 5.03226V5.45161H49.3012V5.03226H49.7083ZM50.1153 5.45161V5.87097H49.7083V5.45161H50.1153ZM50.1153 5.87097V6.29032H49.7083V5.87097H50.1153ZM50.1153 6.29032V6.70968H49.7083V6.29032H50.1153ZM49.7083 6.70968V7.12903H49.3012V6.70968H49.7083ZM49.7083 7.12903V7.54839H49.3012V7.12903H49.7083ZM49.7083 6.29032V6.70968H49.3012V6.29032H49.7083ZM49.3012 6.29032V6.70968H48.8941V6.29032H49.3012ZM49.3012 6.70968V7.12903H48.8941V6.70968H49.3012ZM49.3012 7.12903V7.54839H48.8941V7.12903H49.3012ZM50.1153 6.70968V7.12903H49.7083V6.70968H50.1153ZM49.7083 7.96774V8.3871H49.3012V7.96774H49.7083ZM49.3012 7.96774V8.3871H48.8941V7.96774H49.3012ZM50.1153 7.96774V8.3871H49.7083V7.96774H50.1153ZM50.1153 7.54839V7.96774H49.7083V7.54839H50.1153ZM50.5224 7.54839V7.96774H50.1153V7.54839H50.5224ZM50.9294 7.54839V7.96774H50.5224V7.54839H50.9294ZM50.9294 7.96774V8.3871H50.5224V7.96774H50.9294ZM50.5224 7.96774V8.3871H50.1153V7.96774H50.5224ZM51.3365 7.96774V8.3871H50.9294V7.96774H51.3365ZM49.7083 8.3871V8.80645H49.3012V8.3871H49.7083ZM50.1153 8.3871V8.80645H49.7083V8.3871H50.1153ZM50.5224 8.3871V8.80645H50.1153V8.3871H50.5224ZM50.9294 8.3871V8.80645H50.5224V8.3871H50.9294ZM51.3365 8.3871V8.80645H50.9294V8.3871H51.3365ZM51.7435 8.3871V8.80645H51.3365V8.3871H51.7435ZM52.1506 8.3871V8.80645H51.7435V8.3871H52.1506ZM52.5577 8.3871V8.80645H52.1506V8.3871H52.5577ZM52.9647 8.3871V8.80645H52.5577V8.3871H52.9647ZM53.3718 8.3871V8.80645H52.9647V8.3871H53.3718ZM53.7788 8.3871V8.80645H53.3718V8.3871H53.7788ZM54.1859 8.3871V8.80645H53.7788V8.3871H54.1859ZM53.7788 7.96774V8.3871H53.3718V7.96774H53.7788ZM53.3718 7.96774V8.3871H52.9647V7.96774H53.3718ZM52.9647 7.96774V8.3871H52.5577V7.96774H52.9647ZM52.5577 7.96774V8.3871H52.1506V7.96774H52.5577ZM52.9647 7.54839V7.96774H52.5577V7.54839H52.9647ZM53.3718 7.54839V7.96774H52.9647V7.54839H53.3718ZM53.7788 7.54839V7.96774H53.3718V7.54839H53.7788ZM54.1859 7.54839V7.96774H53.7788V7.54839H54.1859ZM54.5929 7.54839V7.96774H54.1859V7.54839H54.5929ZM54.5929 7.96774V8.3871H54.1859V7.96774H54.5929ZM54.1859 7.96774V8.3871H53.7788V7.96774H54.1859ZM55 7.54839V7.96774H54.5929V7.54839H55ZM51.3365 10.0645V10.4839H50.9294V10.0645H51.3365ZM51.3365 9.64516V10.0645H50.9294V9.64516H51.3365ZM51.3365 9.22581V9.64516H50.9294V9.22581H51.3365ZM51.7435 9.22581V9.64516H51.3365V9.22581H51.7435ZM51.7435 8.80645V9.22581H51.3365V8.80645H51.7435ZM52.1506 8.80645V9.22581H51.7435V8.80645H52.1506ZM52.5577 8.80645V9.22581H52.1506V8.80645H52.5577ZM52.5577 9.22581V9.64516H52.1506V9.22581H52.5577ZM52.5577 9.64516V10.0645H52.1506V9.64516H52.5577ZM52.5577 10.0645V10.4839H52.1506V10.0645H52.5577ZM52.1506 10.0645V10.4839H51.7435V10.0645H52.1506ZM51.7435 10.0645V10.4839H51.3365V10.0645H51.7435ZM51.7435 9.64516V10.0645H51.3365V9.64516H51.7435ZM52.1506 9.22581V9.64516H51.7435V9.22581H52.1506ZM52.1506 9.64516V10.0645H51.7435V9.64516H52.1506ZM52.9647 9.22581V9.64516H52.5577V9.22581H52.9647ZM52.9647 8.80645V9.22581H52.5577V8.80645H52.9647ZM53.3718 8.80645V9.22581H52.9647V8.80645H53.3718ZM53.7788 8.80645V9.22581H53.3718V8.80645H53.7788ZM53.3718 9.22581V9.64516H52.9647V9.22581H53.3718ZM52.9647 9.64516V10.0645H52.5577V9.64516H52.9647ZM50.1153 8.80645V9.22581H49.7083V8.80645H50.1153ZM50.5224 8.80645V9.22581H50.1153V8.80645H50.5224ZM50.5224 9.22581V9.64516H50.1153V9.22581H50.5224ZM50.9294 9.22581V9.64516H50.5224V9.22581H50.9294ZM50.9294 9.64516V10.0645H50.5224V9.64516H50.9294ZM51.3365 8.80645V9.22581H50.9294V8.80645H51.3365ZM50.9294 8.80645V9.22581H50.5224V8.80645H50.9294ZM53.3718 7.12903V7.54839H52.9647V7.12903H53.3718ZM53.3718 6.70968V7.12903H52.9647V6.70968H53.3718ZM53.3718 6.29032V6.70968H52.9647V6.29032H53.3718ZM53.3718 5.87097V6.29032H52.9647V5.87097H53.3718ZM53.7788 5.87097V6.29032H53.3718V5.87097H53.7788ZM54.1859 5.87097V6.29032H53.7788V5.87097H54.1859ZM54.5929 5.87097V6.29032H54.1859V5.87097H54.5929ZM55 5.87097V6.29032H54.5929V5.87097H55ZM55 6.29032V6.70968H54.5929V6.29032H55ZM55 6.70968V7.12903H54.5929V6.70968H55ZM55 7.12903V7.54839H54.5929V7.12903H55ZM54.5929 7.12903V7.54839H54.1859V7.12903H54.5929ZM54.1859 7.12903V7.54839H53.7788V7.12903H54.1859ZM53.7788 7.12903V7.54839H53.3718V7.12903H53.7788ZM54.1859 6.70968V7.12903H53.7788V6.70968H54.1859ZM54.5929 6.70968V7.12903H54.1859V6.70968H54.5929ZM54.5929 6.29032V6.70968H54.1859V6.29032H54.5929ZM54.1859 6.29032V6.70968H53.7788V6.29032H54.1859ZM53.7788 6.29032V6.70968H53.3718V6.29032H53.7788ZM53.7788 6.70968V7.12903H53.3718V6.70968H53.7788ZM53.3718 5.45161V5.87097H52.9647V5.45161H53.3718ZM53.3718 5.03226V5.45161H52.9647V5.03226H53.3718ZM53.3718 4.6129V5.03226H52.9647V4.6129H53.3718ZM53.3718 4.19355V4.6129H52.9647V4.19355H53.3718ZM53.3718 3.77419V4.19355H52.9647V3.77419H53.3718ZM53.3718 3.35484V3.77419H52.9647V3.35484H53.3718ZM53.3718 2.93548V3.35484H52.9647V2.93548H53.3718ZM53.3718 2.51613V2.93548H52.9647V2.51613H53.3718ZM53.7788 2.93548V3.35484H53.3718V2.93548H53.7788ZM53.7788 2.51613V2.93548H53.3718V2.51613H53.7788ZM54.1859 2.51613V2.93548H53.7788V2.51613H54.1859ZM54.5929 2.51613V2.93548H54.1859V2.51613H54.5929ZM54.5929 2.93548V3.35484H54.1859V2.93548H54.5929ZM54.5929 3.35484V3.77419H54.1859V3.35484H54.5929ZM55 3.35484V3.77419H54.5929V3.35484H55ZM55 3.77419V4.19355H54.5929V3.77419H55ZM55 4.19355V4.6129H54.5929V4.19355H55ZM55 4.6129V5.03226H54.5929V4.6129H55ZM55 5.03226V5.45161H54.5929V5.03226H55ZM55 5.45161V5.87097H54.5929V5.45161H55ZM55 2.93548V3.35484H54.5929V2.93548H55ZM55 2.51613V2.93548H54.5929V2.51613H55ZM54.1859 2.93548V3.35484H53.7788V2.93548H54.1859ZM54.1859 3.35484V3.77419H53.7788V3.35484H54.1859ZM54.1859 3.77419V4.19355H53.7788V3.77419H54.1859ZM54.1859 4.19355V4.6129H53.7788V4.19355H54.1859ZM54.1859 4.6129V5.03226H53.7788V4.6129H54.1859ZM54.1859 5.03226V5.45161H53.7788V5.03226H54.1859ZM53.7788 5.03226V5.45161H53.3718V5.03226H53.7788ZM53.7788 5.45161V5.87097H53.3718V5.45161H53.7788ZM53.7788 4.6129V5.03226H53.3718V4.6129H53.7788ZM53.7788 4.19355V4.6129H53.3718V4.19355H53.7788ZM53.7788 3.77419V4.19355H53.3718V3.77419H53.7788ZM53.7788 3.35484V3.77419H53.3718V3.35484H53.7788ZM54.5929 3.77419V4.19355H54.1859V3.77419H54.5929ZM54.5929 4.19355V4.6129H54.1859V4.19355H54.5929ZM54.5929 4.6129V5.03226H54.1859V4.6129H54.5929ZM54.5929 5.03226V5.45161H54.1859V5.03226H54.5929ZM54.5929 5.45161V5.87097H54.1859V5.45161H54.5929ZM54.1859 5.45161V5.87097H53.7788V5.45161H54.1859ZM50.5224 10.0645V10.4839H50.1153V10.0645H50.5224ZM50.9294 10.0645V10.4839H50.5224V10.0645H50.9294ZM51.3365 10.4839V10.9032H50.9294V10.4839H51.3365ZM51.7435 10.4839V10.9032H51.3365V10.4839H51.7435ZM52.1506 10.4839V10.9032H51.7435V10.4839H52.1506ZM50.9294 10.4839V10.9032H50.5224V10.4839H50.9294ZM50.5224 10.4839V10.9032H50.1153V10.4839H50.5224ZM50.1153 10.4839V10.9032H49.7083V10.4839H50.1153ZM50.1153 10.9032V11.3226H49.7083V10.9032H50.1153ZM49.7083 10.9032V11.3226H49.3012V10.9032H49.7083ZM49.7083 11.3226V11.7419H49.3012V11.3226H49.7083ZM49.3012 11.3226V11.7419H48.8941V11.3226H49.3012ZM49.3012 11.7419V12.1613H48.8941V11.7419H49.3012ZM49.3012 12.1613V12.5806H48.8941V12.1613H49.3012ZM49.3012 12.5806V13H48.8941V12.5806H49.3012ZM49.7083 12.5806V13H49.3012V12.5806H49.7083ZM50.1153 12.5806V13H49.7083V12.5806H50.1153ZM50.1153 12.1613V12.5806H49.7083V12.1613H50.1153ZM50.1153 11.7419V12.1613H49.7083V11.7419H50.1153ZM49.7083 11.7419V12.1613H49.3012V11.7419H49.7083ZM49.7083 12.1613V12.5806H49.3012V12.1613H49.7083ZM50.5224 11.7419V12.1613H50.1153V11.7419H50.5224ZM50.5224 12.1613V12.5806H50.1153V12.1613H50.5224ZM50.9294 11.7419V12.1613H50.5224V11.7419H50.9294ZM50.9294 11.3226V11.7419H50.5224V11.3226H50.9294ZM51.3365 11.3226V11.7419H50.9294V11.3226H51.3365ZM51.3365 10.9032V11.3226H50.9294V10.9032H51.3365ZM51.7435 10.9032V11.3226H51.3365V10.9032H51.7435ZM50.9294 10.9032V11.3226H50.5224V10.9032H50.9294ZM50.5224 10.9032V11.3226H50.1153V10.9032H50.5224ZM50.5224 11.3226V11.7419H50.1153V11.3226H50.5224ZM50.1153 11.3226V11.7419H49.7083V11.3226H50.1153Z" fill="white"/>
</svg>
